<svg width="2773" height="2662" viewBox="0 0 2773 2662" fill="none" xmlns="http://www.w3.org/2000/svg">
<path d="M872.395 1842.88C814.254 1867.19 792.172 1926.77 830.173 1960.78C908.355 2030.77 1230.22 1996.19 1245.36 1948.75C1260.28 1902.01 993.716 1792.15 872.395 1842.88Z" stroke="url(#paint0_linear_1931_1061)" stroke-opacity="0.06" stroke-width="2" stroke-miterlimit="10"/>
<path d="M1016.46 1687.21C1149.26 1640.77 1372.26 1971.44 1280.21 2049.51C1223.62 2097.51 1086.62 2091.51 974.898 2075.74C870.017 2060.93 720.154 2000.38 683.181 1899.82C663.603 1846.44 675.355 1770.38 716.818 1743.74C748.907 1723.13 792.228 1732.4 801.785 1728.98C847.343 1747.84 854.028 1755.18 890.326 1759.6C937.77 1765.39 979.937 1699.98 1016.46 1687.21Z" stroke="url(#paint1_linear_1931_1061)" stroke-opacity="0.06" stroke-width="2" stroke-miterlimit="10"/>
<path d="M1151.21 1524.57C1305.45 1549.15 1473.06 2032.15 1305.74 2143.3C1199.19 2214.09 1013.42 2182.83 883.936 2145.4C764.994 2111.03 566.941 1996.31 526.871 1831.9C503.578 1736.37 531.882 1601.98 612.978 1563.1C677.621 1532.13 760.913 1558.76 775.578 1560.81C862.262 1607.37 869.271 1631.06 933.816 1647C1019.27 1668.09 1086.75 1514.24 1151.21 1524.57Z" stroke="url(#paint2_linear_1931_1061)" stroke-opacity="0.06" stroke-width="2" stroke-miterlimit="10"/>
<path d="M1276.19 1363.01C1446.49 1408.33 1564.09 2093.54 1321.51 2238.15C1164.94 2331.48 930.353 2275.5 783.207 2216.14C650.092 2162.46 404.678 1993.54 360.795 1765.04C334.321 1627.24 378.5 1434.81 499.356 1383.54C596.469 1342.32 720.491 1384.62 739.576 1393.72C873.001 1457.4 874.689 1508.01 967.58 1535.47C1090.97 1572.05 1187 1339.32 1276.19 1363.01Z" stroke="url(#paint3_linear_1931_1061)" stroke-opacity="0.06" stroke-width="2" stroke-miterlimit="10"/>
<path d="M1393.65 1208.8C1582.25 1274.18 1647.3 2161.59 1329.75 2340.37C1122.97 2455.75 839.659 2375.66 674.975 2294.25C527.533 2221.38 235.069 1998.27 187.146 1705.53C157.688 1525.58 217.546 1275.05 378.176 1211.29C507.815 1159.87 671.583 1220.18 696.03 1233.93C868.018 1330.7 872.466 1392.51 993.674 1431.3C1155.02 1483.38 1280.76 1169.67 1393.65 1208.8Z" stroke="url(#paint4_linear_1931_1061)" stroke-opacity="0.06" stroke-width="2" stroke-miterlimit="10"/>
<path d="M251.719 1041.09C413.827 979.484 617.242 1057.72 647.207 1076.21C857.294 1205.85 865.063 1278.61 1014.55 1329.08C1213.88 1396.39 1370.08 1000.91 1505.74 1056.54C1714.12 1142 1725.82 2232.75 1332.62 2444.54C1076.06 2582.74 743.475 2477.88 561.353 2374.3C399.612 2282.32 60.3084 2005.03 8.23349 1647.99C-24.1374 1425.91 51.2868 1117.24 251.719 1041.09Z" stroke="url(#paint5_linear_1931_1061)" stroke-opacity="0.06" stroke-width="2" stroke-miterlimit="10"/>
<path d="M2005.88 928.698C1942.03 928.165 1865.45 817.616 1922.72 799.156C1955.79 788.479 2043.36 805.366 2077.76 835.416C2126.2 877.702 2049.82 929.078 2005.88 928.698Z" stroke="url(#paint6_linear_1931_1061)" stroke-opacity="0.06" stroke-width="2" stroke-miterlimit="10"/>
<path d="M1832.35 814.638C1838.6 799.802 1867.86 793.214 1894.56 775.147C1948.71 738.48 1956.48 721.06 1994.95 698.948C2009.95 690.308 2030.13 678.956 2049.84 684.154C2080.01 692.12 2087.54 726.595 2125.84 787.313C2175.49 866.21 2194.3 886.609 2180.11 928.417C2176.8 938.139 2172.52 969.622 2148.61 988.826C2115.49 1015.38 2076.68 994.867 2028.15 1012.44C1969.87 1033.51 1940.97 1071.02 1915.68 1054.45C1897.86 1042.77 1897.2 1010.8 1883.86 955.124C1873.7 912.711 1867.31 884.881 1854.95 862.178C1840.13 835.149 1825.39 831.131 1832.35 814.638Z" stroke="url(#paint7_linear_1931_1061)" stroke-opacity="0.06" stroke-width="2" stroke-miterlimit="10"/>
<path d="M1734.74 845.559C1735.83 819.26 1777.2 806.532 1811.31 768.53C1881.24 690.575 1848.84 634.872 1904.9 577.919C1928.69 553.741 1966.01 530.322 2003.42 534.86C2056.51 541.308 2074.34 596.056 2156.07 707.054C2262.92 852.176 2308.44 880.596 2298.46 957.933C2296.42 973.696 2294.43 1034.22 2252.68 1070.65C2196.98 1119.23 2130.23 1075.03 2043.04 1111.54C1945.62 1152.28 1909.21 1239.38 1876.36 1221.36C1853.54 1208.84 1862.28 1158.43 1844.75 1060.12C1832.33 990.245 1824.66 949.406 1799.85 915.956C1768.53 873.768 1733.57 874.119 1734.74 845.559Z" stroke="url(#paint8_linear_1931_1061)" stroke-opacity="0.06" stroke-width="2" stroke-miterlimit="10"/>
<path d="M1637.04 876.142C1632.82 838.45 1686.4 819.499 1727.96 761.562C1813.53 642.29 1739.75 549.063 1814.75 456.539C1846.86 416.95 1901.92 381.534 1956.9 385.228C2033.12 390.342 2061.28 464.94 2186.32 626.457C2350.7 837.495 2421.5 874.653 2416.85 987.112C2415.94 1009.04 2416.36 1098.45 2356.78 1152.17C2278.5 1222.74 2183.67 1154.77 2057.99 1210.33C1921.32 1270.74 1877.53 1407.39 1837.02 1387.97C1809.22 1374.54 1827.03 1305.76 1805.62 1164.81C1790.84 1067.47 1781.93 1013.82 1744.72 969.425C1696.76 912.219 1641.56 916.743 1637.04 876.142Z" stroke="url(#paint9_linear_1931_1061)" stroke-opacity="0.06" stroke-width="2" stroke-miterlimit="10"/>
<path d="M1539.11 906.642C1529.64 857.598 1595.27 832.353 1644.38 754.524C1745.41 593.864 1630.1 463.479 1724.4 335.089C1764.71 280.159 1837.64 232.731 1910.18 235.512C2009.57 239.334 2047.61 334.035 2216.28 545.79C2437.68 823.109 2534.04 868.908 2534.89 1016.22C2535.06 1044.32 2537.85 1162.52 2460.53 1233.61C2359.56 1326.08 2236.83 1234.38 2072.57 1309.05C1896.64 1389.04 1845.45 1575.37 1797.46 1554.52C1764.66 1540.22 1791.55 1453.01 1766.27 1269.43C1749.08 1144.61 1738.99 1078.22 1689.38 1022.82C1624.72 950.67 1549.3 959.381 1539.11 906.642Z" stroke="url(#paint10_linear_1931_1061)" stroke-opacity="0.06" stroke-width="2" stroke-miterlimit="10"/>
<path d="M1441 937.127C1456.86 1002.03 1552.48 989.107 1633.81 1076.21C1695.84 1142.62 1707.11 1221.72 1726.71 1374.04C1755.8 1600.22 1719.88 1705.88 1757.67 1721.04C1813.22 1743.33 1871.78 1507.32 2087.01 1407.76C2289.76 1313.97 2440.64 1429.59 2564.13 1315.03C2659.32 1226.71 2654.03 1079.71 2652.79 1045.3C2646.24 863.176 2524.48 808.695 2246.05 465.095C2033.74 203.102 1985.86 88.3253 1863.23 85.7825C1773.15 83.914 1682.3 143.382 1633.81 213.625C1520.28 377.993 1677.35 545.607 1560.63 747.471C1504.06 845.292 1426.23 876.747 1441 937.127Z" stroke="url(#paint11_linear_1931_1061)" stroke-opacity="0.06" stroke-width="2" stroke-miterlimit="10"/>
<path d="M2252.45 1981.78C2235.79 1973.35 2200.8 1989.59 2197.7 2014.89C2194.2 2043.59 2233.79 2067.34 2251.18 2059.96C2271.76 2051.22 2274.56 1992.94 2252.45 1981.78Z" stroke="url(#paint12_linear_1931_1061)" stroke-opacity="0.06" stroke-width="2" stroke-miterlimit="10"/>
<path d="M2299.4 2134.28C2327.8 2107.77 2340.22 2059.12 2354.42 1975.73C2368.49 1893.04 2366.28 1833.84 2353.91 1829.54C2347.17 1827.22 2328.07 1845.36 2311.69 1858.65C2281.02 1883.45 2228.52 1880.7 2215.07 1883.38C2165.81 1893.22 2151.34 1911.48 2130.75 1946.46C2121.22 1962.62 2099 1998.44 2089.22 2040.59C2074.3 2104.41 2007.43 2124.08 2015.58 2149.66C2022.43 2171.02 2088.68 2176.2 2131.64 2176.8C2193.2 2177.67 2255.49 2175.22 2299.4 2134.28Z" stroke="url(#paint13_linear_1931_1061)" stroke-opacity="0.06" stroke-width="2" stroke-miterlimit="10"/>
<path d="M2348.63 2205.55C2395.32 2158.18 2413.69 2078.67 2441.97 1930C2470.71 1780.61 2470.53 1678.13 2456.37 1674.31C2445.75 1671.39 2411.34 1708.32 2382.09 1734.72C2326.96 1784.69 2228.27 1776.47 2207.93 1779.68C2115.18 1793.98 2092.33 1828.24 2056.38 1893.01C2041.41 1919.98 2000.32 1985.73 1981.6 2063.38C1952.79 2182.32 1816.2 2213.47 1827.51 2257.57C1836.95 2294.29 1963.62 2299.93 2043.32 2296.91C2155.86 2292.54 2269.75 2285.62 2348.63 2205.55Z" stroke="url(#paint14_linear_1931_1061)" stroke-opacity="0.06" stroke-width="2" stroke-miterlimit="10"/>
<path d="M2397.6 2276.35C2462.61 2208.13 2486.72 2097.72 2529.25 1883.81C2572.44 1667.67 2574.46 1522.17 2558.55 1518.54C2543.99 1515.17 2494.29 1570.8 2452.26 1610.38C2372.81 1685.64 2227.81 1671.8 2200.57 1675.42C2064.36 1693.57 2032.99 1744.33 1981.79 1839.02C1961.35 1876.8 1901.44 1972.48 1873.75 2085.59C1831.09 2259.68 1624.76 2302.27 1639.19 2364.9C1651.24 2416.99 1838.36 2423.3 1954.78 2416.4C2118.27 2407.2 2283.92 2395.65 2397.6 2276.35Z" stroke="url(#paint15_linear_1931_1061)" stroke-opacity="0.06" stroke-width="2" stroke-miterlimit="10"/>
<path d="M2446.41 2347.11C2529.78 2258.05 2559.61 2116.72 2616.38 1837.56C2674.09 1554.7 2678.31 1366.21 2660.61 1362.72C2642.08 1359.02 2577.07 1433.13 2522.3 1485.91C2418.37 1586.28 2227.22 1566.97 2193.09 1571.11C2013.41 1592.87 1973.29 1660.25 1907.05 1784.96C1881.07 1833.51 1802.41 1959.16 1765.79 2107.74C1709.24 2336.96 1433.17 2391.02 1450.76 2472.18C1465.39 2539.61 1712.95 2546.34 1866.11 2535.86C2080.48 2521.43 2297.99 2505.68 2446.41 2347.11Z" stroke="url(#paint16_linear_1931_1061)" stroke-opacity="0.06" stroke-width="2" stroke-miterlimit="10"/>
<path d="M2185.53 1466.76C1962.41 1492.05 1913.89 1576.34 1832.26 1730.87C1800.88 1790.28 1703.31 1945.82 1657.74 2129.85C1587.37 2414.22 1241.52 2479.73 1262.25 2579.41C1279.48 2662.29 1587.48 2669.32 1777.37 2655.27C2042.7 2635.6 2312.04 2615.68 2495.16 2417.85C2596.91 2307.92 2632.43 2135.71 2703.46 1791.28C2775.56 1441.7 2782 1210.26 2762.57 1206.86C2740.05 1202.93 2659.83 1295.37 2592.27 1361.4C2463.86 1486.88 2226.57 1462.11 2185.53 1466.76Z" stroke="url(#paint17_linear_1931_1061)" stroke-opacity="0.06" stroke-width="2" stroke-miterlimit="10"/>
<path d="M371.35 791.022C396.684 887.957 578.524 842.426 794.987 1060.76C872.55 1138.99 924.555 1220.82 1027.21 1233.55C1037.57 1234.83 1140.41 1246.06 1212.99 1180.17C1304.31 1097.28 1248.57 982.294 1355.14 821.929C1394.4 762.855 1400.93 780.008 1429.74 733.423C1552.69 534.565 1365.16 332.687 1473.37 130.738C1523.18 37.7784 1597.22 16.4386 1590.18 4.30064C1559.81 -47.7775 302.893 529.816 371.35 791.022Z" stroke="url(#paint18_linear_1931_1061)" stroke-opacity="0.06" stroke-width="2" stroke-miterlimit="10"/>
<path d="M1055.36 1101.03C1061.58 1100.19 1129.39 1105.25 1175.91 1058.66C1234.72 999.84 1192.8 918.85 1260.18 809.51C1284.98 769.247 1288.43 780.163 1306.08 748.314C1381.38 612.408 1246.24 475.687 1312.41 342.647C1343.04 281.058 1391.39 266.939 1384.19 260.926C1351.67 233.503 522.03 638.623 587.194 814.905C611.627 881.017 745.009 857.556 897.631 999.953C953.126 1051.69 990.704 1109.78 1055.36 1101.03Z" stroke="url(#paint19_linear_1931_1061)" stroke-opacity="0.06" stroke-width="2" stroke-miterlimit="10"/>
<path d="M1083.51 968.498C1085.28 964.045 1118.44 964.143 1138.82 937.156C1165.28 902.146 1137.1 855.505 1165.23 797.105C1175.54 775.667 1175.96 780.247 1182.44 763.206C1210.23 689.914 1127.2 618.772 1151.47 554.542C1162.83 524.309 1183.94 519.154 1178.31 517.538C1137.16 523.368 742.011 747.823 802.967 838.787C826.766 874.33 911.958 872.63 1000.2 939.15C1033.74 964.438 1055.7 982.954 1083.51 968.498Z" stroke="url(#paint20_linear_1931_1061)" stroke-opacity="0.06" stroke-width="2" stroke-miterlimit="10"/>
<path d="M1111.66 835.978C1089.82 772.267 1003.82 750.604 972.323 774.164C925.878 808.948 965.497 854.241 1018.77 862.67C1058.58 868.922 1136.65 908.89 1111.66 835.978Z" stroke="url(#paint21_linear_1931_1061)" stroke-opacity="0.06" stroke-width="2" stroke-miterlimit="10"/>
<defs>
<linearGradient id="paint0_linear_1931_1061" x1="1" y1="1" x2="2773.3" y2="2659.64" gradientUnits="userSpaceOnUse">
<stop stop-color="#4438DE"/>
<stop offset="1" stop-color="#8331E6"/>
</linearGradient>
<linearGradient id="paint1_linear_1931_1061" x1="1" y1="1" x2="2773.3" y2="2659.64" gradientUnits="userSpaceOnUse">
<stop stop-color="#4438DE"/>
<stop offset="1" stop-color="#8331E6"/>
</linearGradient>
<linearGradient id="paint2_linear_1931_1061" x1="1" y1="1" x2="2773.3" y2="2659.64" gradientUnits="userSpaceOnUse">
<stop stop-color="#4438DE"/>
<stop offset="1" stop-color="#8331E6"/>
</linearGradient>
<linearGradient id="paint3_linear_1931_1061" x1="1" y1="1" x2="2773.3" y2="2659.64" gradientUnits="userSpaceOnUse">
<stop stop-color="#4438DE"/>
<stop offset="1" stop-color="#8331E6"/>
</linearGradient>
<linearGradient id="paint4_linear_1931_1061" x1="1" y1="1" x2="2773.3" y2="2659.64" gradientUnits="userSpaceOnUse">
<stop stop-color="#4438DE"/>
<stop offset="1" stop-color="#8331E6"/>
</linearGradient>
<linearGradient id="paint5_linear_1931_1061" x1="1" y1="1" x2="2773.3" y2="2659.64" gradientUnits="userSpaceOnUse">
<stop stop-color="#4438DE"/>
<stop offset="1" stop-color="#8331E6"/>
</linearGradient>
<linearGradient id="paint6_linear_1931_1061" x1="1" y1="1" x2="2773.3" y2="2659.64" gradientUnits="userSpaceOnUse">
<stop stop-color="#4438DE"/>
<stop offset="1" stop-color="#8331E6"/>
</linearGradient>
<linearGradient id="paint7_linear_1931_1061" x1="1" y1="1" x2="2773.3" y2="2659.64" gradientUnits="userSpaceOnUse">
<stop stop-color="#4438DE"/>
<stop offset="1" stop-color="#8331E6"/>
</linearGradient>
<linearGradient id="paint8_linear_1931_1061" x1="1" y1="1" x2="2773.3" y2="2659.64" gradientUnits="userSpaceOnUse">
<stop stop-color="#4438DE"/>
<stop offset="1" stop-color="#8331E6"/>
</linearGradient>
<linearGradient id="paint9_linear_1931_1061" x1="1" y1="1" x2="2773.3" y2="2659.64" gradientUnits="userSpaceOnUse">
<stop stop-color="#4438DE"/>
<stop offset="1" stop-color="#8331E6"/>
</linearGradient>
<linearGradient id="paint10_linear_1931_1061" x1="1" y1="1" x2="2773.3" y2="2659.64" gradientUnits="userSpaceOnUse">
<stop stop-color="#4438DE"/>
<stop offset="1" stop-color="#8331E6"/>
</linearGradient>
<linearGradient id="paint11_linear_1931_1061" x1="1" y1="1" x2="2773.3" y2="2659.64" gradientUnits="userSpaceOnUse">
<stop stop-color="#4438DE"/>
<stop offset="1" stop-color="#8331E6"/>
</linearGradient>
<linearGradient id="paint12_linear_1931_1061" x1="1" y1="1" x2="2773.3" y2="2659.64" gradientUnits="userSpaceOnUse">
<stop stop-color="#4438DE"/>
<stop offset="1" stop-color="#8331E6"/>
</linearGradient>
<linearGradient id="paint13_linear_1931_1061" x1="1" y1="1" x2="2773.3" y2="2659.64" gradientUnits="userSpaceOnUse">
<stop stop-color="#4438DE"/>
<stop offset="1" stop-color="#8331E6"/>
</linearGradient>
<linearGradient id="paint14_linear_1931_1061" x1="1" y1="1" x2="2773.3" y2="2659.64" gradientUnits="userSpaceOnUse">
<stop stop-color="#4438DE"/>
<stop offset="1" stop-color="#8331E6"/>
</linearGradient>
<linearGradient id="paint15_linear_1931_1061" x1="1" y1="1" x2="2773.3" y2="2659.64" gradientUnits="userSpaceOnUse">
<stop stop-color="#4438DE"/>
<stop offset="1" stop-color="#8331E6"/>
</linearGradient>
<linearGradient id="paint16_linear_1931_1061" x1="1" y1="1" x2="2773.3" y2="2659.64" gradientUnits="userSpaceOnUse">
<stop stop-color="#4438DE"/>
<stop offset="1" stop-color="#8331E6"/>
</linearGradient>
<linearGradient id="paint17_linear_1931_1061" x1="1" y1="1" x2="2773.3" y2="2659.64" gradientUnits="userSpaceOnUse">
<stop stop-color="#4438DE"/>
<stop offset="1" stop-color="#8331E6"/>
</linearGradient>
<linearGradient id="paint18_linear_1931_1061" x1="1" y1="1" x2="2773.3" y2="2659.64" gradientUnits="userSpaceOnUse">
<stop stop-color="#4438DE"/>
<stop offset="1" stop-color="#8331E6"/>
</linearGradient>
<linearGradient id="paint19_linear_1931_1061" x1="1" y1="1" x2="2773.3" y2="2659.64" gradientUnits="userSpaceOnUse">
<stop stop-color="#4438DE"/>
<stop offset="1" stop-color="#8331E6"/>
</linearGradient>
<linearGradient id="paint20_linear_1931_1061" x1="1" y1="1" x2="2773.3" y2="2659.64" gradientUnits="userSpaceOnUse">
<stop stop-color="#4438DE"/>
<stop offset="1" stop-color="#8331E6"/>
</linearGradient>
<linearGradient id="paint21_linear_1931_1061" x1="1" y1="1" x2="2773.3" y2="2659.64" gradientUnits="userSpaceOnUse">
<stop stop-color="#4438DE"/>
<stop offset="1" stop-color="#8331E6"/>
</linearGradient>
</defs>
</svg>
