<svg width="52" height="65" viewBox="0 0 52 65" fill="none" xmlns="http://www.w3.org/2000/svg">
<path d="M3.926 40.8358C3.39583 40.5812 3.05859 40.0452 3.05859 39.4571L3.05859 2.53522C3.05859 1.38364 4.28318 0.645168 5.30169 1.18254L14.7562 6.17082C15.258 6.43554 15.572 6.95622 15.572 7.52351L15.572 43.9968C15.572 45.1231 14.3958 45.863 13.3805 45.3755L3.926 40.8358Z" fill="url(#paint0_linear_963_272)"/>
<path d="M37.3463 47.9207C36.789 47.6775 36.4287 47.1272 36.4287 46.5191V9.08991C36.4287 7.93834 37.6533 7.19986 38.6718 7.73723L48.1264 12.7255C48.6281 12.9902 48.9421 13.5109 48.9421 14.0782V50.646C48.9421 51.7484 47.8111 52.4888 46.8008 52.0477L37.3463 47.9207Z" fill="url(#paint1_linear_963_272)"/>
<path d="M22.0377 16.5268C21.4883 16.7735 21.1348 17.3198 21.1348 17.9221V47.1353C21.1348 48.2948 22.3746 49.0326 23.3937 48.4796L30.0675 44.8578C30.5604 44.5903 30.8674 44.0745 30.8674 43.5136V14.9257C30.8674 13.8164 29.7235 13.0761 28.7115 13.5304L22.0377 16.5268Z" fill="url(#paint2_linear_963_272)"/>
<path d="M6.32844 63.5273V62.1516H1.86709V60.7857H5.9845V59.4099H1.86709V58.0244H6.32844V56.6486H0.491338L0.491338 63.5273H6.32844ZM8.5846 60.0978V58.0244H12.0141V60.0978H8.5846ZM8.5846 63.5273V61.4735H12.702L13.3801 60.7857V57.3463L12.702 56.6486H7.20886V63.5273H8.5846ZM15.638 63.5273V56.6486H14.2623V63.5273H15.638ZM22.1161 63.5273L22.7942 62.8493V61.4735H21.4283V62.1516H17.9987V58.0244H21.4283V58.7122H22.7942V57.3463L22.1161 56.6486H17.301L16.623 57.3463V62.8493L17.301 63.5273H22.1161ZM23.6764 56.6486V62.8493L24.3544 63.5273H29.1695L29.8476 62.8493V56.6486H28.4817V62.1516H25.0521V56.6486H23.6764ZM32.2015 60.0978V58.0244H35.631V60.0978H32.2015ZM36.9969 63.5273V62.1516L36.3189 61.4735L36.9969 60.7857V57.3463L36.3189 56.6486H30.8257V63.5273H32.2015V61.4735H34.2553L34.9431 62.1516L35.631 62.8493V63.5273H36.9969ZM37.9751 56.6486V62.8493L38.6531 63.5273H43.4683L44.1463 62.8493V56.6486H42.7804V62.1516H39.3508V56.6486H37.9751ZM50.6176 63.5273L51.2957 62.8493V60.088L50.6176 59.4001H46.5002V58.0244H49.9297V58.7122H51.2957V57.3463L50.6176 56.6486H45.8025L45.1244 57.3463V60.2943L45.8025 60.7857H49.9297V62.1516H46.5002V61.4735H45.1244V62.8493L45.8025 63.5273H50.6176Z" fill="white"/>
<defs>
<linearGradient id="paint0_linear_963_272" x1="3.05859" y1="23.2134" x2="15.572" y2="23.2134" gradientUnits="userSpaceOnUse">
<stop stop-color="#0F135A"/>
<stop offset="0.322917" stop-color="#6530DA"/>
<stop offset="0.703125" stop-color="#763FBF"/>
<stop offset="1" stop-color="#7E49F3"/>
</linearGradient>
<linearGradient id="paint1_linear_963_272" x1="36.4287" y1="52.9824" x2="66.3667" y2="30.7786" gradientUnits="userSpaceOnUse">
<stop stop-color="#0F135A"/>
<stop offset="0.322917" stop-color="#6530DA"/>
<stop offset="0.703125" stop-color="#763FBF"/>
<stop offset="1" stop-color="#7E49F3"/>
</linearGradient>
<linearGradient id="paint2_linear_963_272" x1="21.1348" y1="12.5625" x2="44.8815" y2="29.6853" gradientUnits="userSpaceOnUse">
<stop stop-color="#0F135A"/>
<stop offset="0.322917" stop-color="#6530DA"/>
<stop offset="0.703125" stop-color="#763FBF"/>
<stop offset="1" stop-color="#7E49F3"/>
</linearGradient>
</defs>
</svg>
