<svg width="138" height="30" viewBox="0 0 138 30" fill="none" xmlns="http://www.w3.org/2000/svg">
<path d="M7.6336 26.1448C7.98112 25.9872 8.20218 25.6553 8.20218 25.2911V2.43066C8.20218 1.71766 7.39948 1.26042 6.73189 1.59314L0.534687 4.68167C0.205814 4.84558 0 5.16796 0 5.5192V28.1019C0 28.7993 0.77091 29.2574 1.43641 28.9556L7.6336 26.1448Z" fill="url(#paint0_linear_1924_1369)"/>
<path d="M29.4738 25.7051C29.8391 25.5544 30.0752 25.2137 30.0752 24.8372V1.6626C30.0752 0.949589 29.2725 0.492353 28.605 0.825071L22.4077 3.91361C22.0789 4.07751 21.873 4.39989 21.873 4.75113V27.3924C21.873 28.075 22.6144 28.5334 23.2766 28.2603L29.4738 25.7051Z" fill="url(#paint1_linear_1924_1369)"/>
<path d="M17.6352 7.8027C17.9954 7.95545 18.2271 8.29365 18.2271 8.66657V26.7542C18.2271 27.4721 17.4144 27.9289 16.7465 27.5865L12.372 25.3441C12.0489 25.1785 11.8477 24.859 11.8477 24.5118V6.81131C11.8477 6.12449 12.5975 5.66612 13.2607 5.94744L17.6352 7.8027Z" fill="url(#paint2_linear_1924_1369)"/>
<path d="M56.3648 20.6721H45.9434V9.89209H56.3648V12.0481H48.3996V14.2195H55.7507V16.3755H48.3996V18.5161H56.3648V20.6721ZM60.3929 15.2975H66.5157V12.0481H60.3929V15.2975ZM60.3929 20.6721H57.9367V9.89209H67.7442L68.9546 10.9855V16.3755L67.7442 17.4535H60.3929V20.6721ZM72.9856 20.6721H70.5294V9.89209H72.9856V20.6721ZM84.5518 20.6721H75.9552L74.7442 19.6095V10.9855L75.9552 9.89209H84.5518L85.7622 10.9855V13.1261H83.324V12.0481H77.2004V18.5161H83.324V17.4535H85.7622V19.6095L84.5518 20.6721ZM87.3376 9.89209H89.7939V18.5161H95.9168V9.89209H98.3557V19.6095L97.1446 20.6721H88.548L87.3376 19.6095V9.89209ZM102.558 15.2975H108.681V12.0481H102.558V15.2975ZM111.119 20.6721H108.681V19.6095L107.453 18.5161L106.225 17.4535H102.558V20.6721H100.102V9.89209H109.909L111.119 10.9855V16.3755L109.909 17.4535L111.119 18.5161V20.6721ZM112.866 9.89209H115.323V18.5161H121.446V9.89209H123.884V19.6095L122.673 20.6721H114.077L112.866 19.6095V9.89209ZM135.438 20.6721H126.841L125.631 19.6095V17.4535H128.086V18.5161H134.21V16.3755H126.841L125.631 15.6055V10.9855L126.841 9.89209H135.438L136.648 10.9855V13.1261H134.21V12.0481H128.086V14.2041H135.438L136.648 15.2821V19.6095L135.438 20.6721Z" fill="white"/>
<defs>
<linearGradient id="paint0_linear_1924_1369" x1="0" y1="15.2337" x2="8.20218" y2="15.2337" gradientUnits="userSpaceOnUse">
<stop stop-color="#0F135A"/>
<stop offset="0.322917" stop-color="#6530DA"/>
<stop offset="0.703125" stop-color="#763FBF"/>
<stop offset="1" stop-color="#7E49F3"/>
</linearGradient>
<linearGradient id="paint1_linear_1924_1369" x1="21.873" y1="28.839" x2="40.6903" y2="14.0645" gradientUnits="userSpaceOnUse">
<stop stop-color="#0F135A"/>
<stop offset="0.322917" stop-color="#6530DA"/>
<stop offset="0.703125" stop-color="#763FBF"/>
<stop offset="1" stop-color="#7E49F3"/>
</linearGradient>
<linearGradient id="paint2_linear_1924_1369" x1="11.8477" y1="5.34814" x2="26.7956" y2="16.7586" gradientUnits="userSpaceOnUse">
<stop stop-color="#0F135A"/>
<stop offset="0.322917" stop-color="#6530DA"/>
<stop offset="0.703125" stop-color="#763FBF"/>
<stop offset="1" stop-color="#7E49F3"/>
</linearGradient>
</defs>
</svg>
