<svg width="184" height="42" viewBox="0 0 184 42" fill="none" xmlns="http://www.w3.org/2000/svg">
<path d="M0.758117 31.6706C0.294745 31.4733 0 31.0578 0 30.602V1.983C0 1.09039 1.07029 0.517974 1.96047 0.934503L10.2237 4.80103C10.6623 5.00622 10.9367 5.40981 10.9367 5.84952V34.1208C10.9367 34.9938 9.90872 35.5673 9.02143 35.1895L0.758117 31.6706Z" fill="url(#paint0_linear_1590_1643)"/>
<path d="M29.966 37.1627C29.479 36.9742 29.1641 36.5476 29.1641 36.0763V7.06405C29.1641 6.17144 30.2344 5.59903 31.1245 6.01556L39.3879 9.88208C39.8263 10.0873 40.1008 10.4909 40.1008 10.9306V39.2751C40.1008 40.1296 39.1124 40.7035 38.2293 40.3616L29.966 37.1627Z" fill="url(#paint1_linear_1590_1643)"/>
<path d="M16.5861 12.8283C16.1058 13.0195 15.7969 13.443 15.7969 13.9098V36.5536C15.7969 37.4524 16.8805 38.0243 17.7712 37.5956L23.6041 34.7883C24.0349 34.581 24.3032 34.1812 24.3032 33.7464V11.5873C24.3032 10.7274 23.3035 10.1536 22.419 10.5057L16.5861 12.8283Z" fill="url(#paint2_linear_1590_1643)"/>
<path d="M75.1531 28.9407H61.2578V13.8486H75.1531V16.867H64.5328V19.907H74.3343V22.9254H64.5328V25.9222H75.1531V28.9407ZM80.5238 21.4162H88.6877V16.867H80.5238V21.4162ZM80.5238 28.9407H77.2489V13.8486H90.3256L91.9395 15.3794V22.9254L90.3256 24.4346H80.5238V28.9407ZM97.3142 28.9407H94.0391V13.8486H97.3142V28.9407ZM112.736 28.9407H101.274L99.6589 27.453V15.3794L101.274 13.8486H112.736L114.35 15.3794V18.3762H111.099V16.867H102.934V25.9222H111.099V24.4346H114.35V27.453L112.736 28.9407ZM116.45 13.8486H119.725V25.9222H127.889V13.8486H131.141V27.453L129.526 28.9407H118.064L116.45 27.453V13.8486ZM136.744 21.4162H144.908V16.867H136.744V21.4162ZM148.159 28.9407H144.908V27.453L143.27 25.9222L141.633 24.4346H136.744V28.9407H133.469V13.8486H146.545L148.159 15.3794V22.9254L146.545 24.4346L148.159 25.9222V28.9407ZM150.488 13.8486H153.763V25.9222H161.927V13.8486H165.178V27.453L163.564 28.9407H152.102L150.488 27.453V13.8486ZM180.584 28.9407H169.121L167.508 27.453V24.4346H170.782V25.9222H178.947V22.9254H169.121L167.508 21.8474V15.3794L169.121 13.8486H180.584L182.197 15.3794V18.3762H178.947V16.867H170.782V19.8855H180.584L182.197 21.3946V27.453L180.584 28.9407Z" fill="white"/>
<defs>
<linearGradient id="paint0_linear_1590_1643" x1="0" y1="18.0111" x2="10.9367" y2="18.0111" gradientUnits="userSpaceOnUse">
<stop stop-color="#0F135A"/>
<stop offset="0.322917" stop-color="#6530DA"/>
<stop offset="0.703125" stop-color="#763FBF"/>
<stop offset="1" stop-color="#7E49F3"/>
</linearGradient>
<linearGradient id="paint1_linear_1590_1643" x1="29.1641" y1="41.0861" x2="53.0312" y2="21.1267" gradientUnits="userSpaceOnUse">
<stop stop-color="#0F135A"/>
<stop offset="0.322917" stop-color="#6530DA"/>
<stop offset="0.703125" stop-color="#763FBF"/>
<stop offset="1" stop-color="#7E49F3"/>
</linearGradient>
<linearGradient id="paint2_linear_1590_1643" x1="15.7969" y1="9.75549" x2="34.7884" y2="25.1964" gradientUnits="userSpaceOnUse">
<stop stop-color="#0F135A"/>
<stop offset="0.322917" stop-color="#6530DA"/>
<stop offset="0.703125" stop-color="#763FBF"/>
<stop offset="1" stop-color="#7E49F3"/>
</linearGradient>
</defs>
</svg>
