<svg width="600" height="450" viewBox="0 0 600 450" fill="none" xmlns="http://www.w3.org/2000/svg">
<g clip-path="url(#clip0_1773_1216)">
<g clip-path="url(#clip1_1773_1216)">
<path d="M1031.01 -53.7002H168.987C157.561 -53.7002 148.299 -44.4325 148.299 -33.0002V381C148.299 392.432 157.561 401.7 168.987 401.7H1031.01C1042.44 401.7 1051.7 392.432 1051.7 381V-33.0002C1051.7 -44.4325 1042.44 -53.7002 1031.01 -53.7002Z" fill="#0D0E12" stroke="#2B2B2B" stroke-width="4"/>
<path d="M1026.41 49.2251H235.65" stroke="#323232"/>
<path d="M1026.41 141.225H235.65" stroke="#323232"/>
<path d="M1026.41 233.225H235.65" stroke="#323232"/>
<path d="M1026.41 325.225H235.65" stroke="#323232"/>
<path d="M377.603 169.488C327.424 169.488 256.205 309.125 235.65 309.125V325.8H1026.3V108.572C978.535 108.572 912.033 178.108 865.483 178.108C818.931 178.108 752.43 114.894 752.43 114.894C752.43 114.894 705.878 71.7927 667.792 58.5753C629.704 45.3579 539.625 217.186 493.073 217.186C446.522 217.186 427.781 169.488 377.603 169.488Z" fill="url(#paint0_linear_1773_1216)"/>
<path d="M237.949 309.7C258.507 309.7 327.438 169.739 377.624 169.739C427.81 169.739 446.554 217.545 493.112 217.545C539.671 217.545 629.764 45.3298 667.856 58.577C705.95 71.8237 752.508 115.022 752.508 115.022C752.508 115.022 819.02 178.379 865.577 178.379C912.136 178.379 978.647 108.686 1026.42 108.686" stroke="#7B46E5" stroke-width="4" stroke-linecap="round"/>
<path d="M511.241 363.75V362.437L514.723 359.021C515.056 358.684 515.334 358.385 515.556 358.124C515.778 357.863 515.945 357.61 516.055 357.364C516.166 357.119 516.222 356.858 516.222 356.581C516.222 356.264 516.15 355.992 516.007 355.767C515.863 355.538 515.665 355.362 515.414 355.238C515.163 355.114 514.877 355.052 514.557 355.052C514.227 355.052 513.938 355.121 513.69 355.257C513.441 355.392 513.249 355.583 513.111 355.831C512.978 356.08 512.911 356.375 512.911 356.718H511.182C511.182 356.081 511.328 355.527 511.618 355.056C511.909 354.586 512.309 354.221 512.818 353.964C513.331 353.706 513.918 353.576 514.581 353.576C515.254 353.576 515.845 353.703 516.354 353.954C516.864 354.205 517.258 354.55 517.54 354.988C517.824 355.425 517.965 355.926 517.965 356.488C517.965 356.863 517.894 357.232 517.75 357.595C517.607 357.958 517.354 358.359 516.991 358.801C516.632 359.242 516.127 359.776 515.478 360.403L513.748 362.162V362.231H518.118V363.75H511.241ZM523.791 363.941C522.984 363.941 522.293 363.738 521.714 363.329C521.14 362.918 520.697 362.324 520.387 361.55C520.08 360.773 519.926 359.837 519.926 358.742C519.929 357.647 520.085 356.717 520.392 355.949C520.702 355.177 521.144 354.589 521.719 354.185C522.297 353.78 522.988 353.576 523.791 353.576C524.594 353.576 525.284 353.78 525.863 354.185C526.441 354.589 526.883 355.177 527.19 355.949C527.5 356.719 527.656 357.651 527.656 358.742C527.656 359.839 527.5 360.777 527.19 361.555C526.883 362.329 526.441 362.92 525.863 363.329C525.288 363.738 524.597 363.941 523.791 363.941ZM523.791 362.407C524.418 362.407 524.912 362.099 525.275 361.481C525.641 360.86 525.823 359.947 525.823 358.742C525.823 357.945 525.741 357.275 525.574 356.733C525.407 356.19 525.172 355.782 524.868 355.507C524.565 355.23 524.205 355.091 523.791 355.091C523.167 355.091 522.674 355.401 522.312 356.022C521.949 356.64 521.766 357.546 521.763 358.742C521.759 359.542 521.84 360.215 522.003 360.761C522.17 361.306 522.405 361.718 522.709 361.995C523.012 362.27 523.373 362.407 523.791 362.407ZM533.638 353.714V363.75H531.821V355.483H531.762L529.416 356.982V355.316L531.909 353.714H533.638ZM540.026 363.887C539.299 363.887 538.652 363.765 538.087 363.52C537.525 363.275 537.085 362.939 536.764 362.515C536.448 362.087 536.291 361.602 536.294 361.06C536.291 360.638 536.383 360.251 536.569 359.899C536.755 359.546 537.007 359.251 537.323 359.017C537.644 358.778 537.999 358.626 538.391 358.56V358.492C537.875 358.377 537.457 358.114 537.137 357.702C536.821 357.288 536.663 356.809 536.667 356.267C536.663 355.751 536.807 355.29 537.098 354.885C537.388 354.48 537.787 354.161 538.293 353.929C538.799 353.695 539.377 353.576 540.026 353.576C540.67 353.576 541.243 353.695 541.746 353.929C542.252 354.161 542.65 354.48 542.941 354.885C543.235 355.29 543.382 355.751 543.382 356.267C543.382 356.809 543.22 357.288 542.897 357.702C542.577 358.114 542.164 358.377 541.658 358.492V358.56C542.049 358.626 542.402 358.778 542.716 359.017C543.033 359.251 543.283 359.546 543.47 359.899C543.659 360.251 543.754 360.638 543.754 361.06C543.754 361.602 543.594 362.087 543.274 362.515C542.954 362.939 542.513 363.275 541.951 363.52C541.393 363.765 540.751 363.887 540.026 363.887ZM540.026 362.486C540.402 362.486 540.728 362.422 541.007 362.294C541.284 362.164 541.5 361.981 541.652 361.746C541.807 361.511 541.885 361.24 541.888 360.933C541.885 360.612 541.802 360.33 541.638 360.084C541.478 359.837 541.258 359.642 540.977 359.501C540.7 359.361 540.382 359.291 540.026 359.291C539.668 359.291 539.348 359.361 539.066 359.501C538.786 359.642 538.564 359.837 538.401 360.084C538.241 360.33 538.162 360.612 538.165 360.933C538.162 361.24 538.238 361.511 538.391 361.746C538.545 361.978 538.76 362.159 539.038 362.29C539.318 362.421 539.648 362.486 540.026 362.486ZM540.026 357.914C540.334 357.914 540.604 357.852 540.84 357.728C541.078 357.603 541.266 357.43 541.403 357.208C541.54 356.986 541.61 356.729 541.613 356.439C541.61 356.151 541.542 355.899 541.408 355.684C541.274 355.464 541.088 355.297 540.849 355.179C540.611 355.059 540.336 354.998 540.026 354.998C539.71 354.998 539.431 355.059 539.189 355.179C538.95 355.297 538.764 355.464 538.631 355.684C538.5 355.899 538.437 356.151 538.44 356.439C538.437 356.729 538.502 356.986 538.635 357.208C538.773 357.426 538.961 357.6 539.199 357.728C539.441 357.852 539.717 357.914 540.026 357.914Z" fill="white"/>
<path d="M420.442 363.75V362.437L423.923 359.021C424.256 358.684 424.534 358.385 424.756 358.124C424.978 357.863 425.145 357.61 425.255 357.364C425.367 357.119 425.422 356.858 425.422 356.581C425.422 356.264 425.351 355.992 425.207 355.767C425.063 355.538 424.866 355.362 424.614 355.238C424.363 355.114 424.077 355.052 423.758 355.052C423.428 355.052 423.138 355.121 422.89 355.257C422.641 355.392 422.45 355.583 422.312 355.831C422.178 356.08 422.112 356.375 422.112 356.718H420.382C420.382 356.081 420.528 355.527 420.819 355.056C421.109 354.586 421.509 354.221 422.019 353.964C422.531 353.706 423.118 353.576 423.782 353.576C424.454 353.576 425.045 353.703 425.554 353.954C426.064 354.205 426.459 354.55 426.74 354.988C427.024 355.425 427.165 355.926 427.165 356.488C427.165 356.863 427.094 357.232 426.95 357.595C426.807 357.958 426.554 358.359 426.191 358.801C425.832 359.242 425.328 359.776 424.678 360.403L422.948 362.162V362.231H427.318V363.75H420.442ZM432.992 363.941C432.185 363.941 431.493 363.738 430.915 363.329C430.34 362.918 429.897 362.324 429.587 361.55C429.28 360.773 429.126 359.837 429.126 358.742C429.13 357.647 429.285 356.717 429.592 355.949C429.902 355.177 430.345 354.589 430.919 354.185C431.497 353.78 432.188 353.576 432.992 353.576C433.794 353.576 434.485 353.78 435.063 354.185C435.641 354.589 436.083 355.177 436.39 355.949C436.701 356.719 436.856 357.651 436.856 358.742C436.856 359.839 436.701 360.777 436.39 361.555C436.083 362.329 435.641 362.92 435.063 363.329C434.488 363.738 433.797 363.941 432.992 363.941ZM432.992 362.407C433.618 362.407 434.112 362.099 434.475 361.481C434.841 360.86 435.024 359.947 435.024 358.742C435.024 357.945 434.941 357.275 434.774 356.733C434.608 356.19 434.372 355.782 434.069 355.507C433.765 355.23 433.405 355.091 432.992 355.091C432.367 355.091 431.874 355.401 431.512 356.022C431.149 356.64 430.966 357.546 430.963 358.742C430.959 359.542 431.04 360.215 431.203 360.761C431.37 361.306 431.605 361.718 431.909 361.995C432.212 362.27 432.573 362.407 432.992 362.407ZM442.838 353.714V363.75H441.021V355.483H440.962L438.617 356.982V355.316L441.11 353.714H442.838ZM446.029 363.75L450.294 355.301V355.233H445.343V353.714H452.176V355.268L447.914 363.75H446.029Z" fill="white"/>
<path d="M328.492 363.75V362.437L331.974 359.021C332.307 358.684 332.585 358.385 332.807 358.124C333.029 357.863 333.196 357.61 333.306 357.364C333.417 357.119 333.473 356.858 333.473 356.581C333.473 356.264 333.401 355.992 333.258 355.767C333.114 355.538 332.916 355.362 332.665 355.238C332.414 355.114 332.128 355.052 331.808 355.052C331.478 355.052 331.189 355.121 330.941 355.257C330.692 355.392 330.5 355.583 330.362 355.831C330.229 356.08 330.162 356.375 330.162 356.718H328.433C328.433 356.081 328.579 355.527 328.869 355.056C329.16 354.586 329.56 354.221 330.069 353.964C330.582 353.706 331.169 353.576 331.832 353.576C332.505 353.576 333.096 353.703 333.605 353.954C334.115 354.205 334.509 354.55 334.791 354.988C335.075 355.425 335.216 355.926 335.216 356.488C335.216 356.863 335.145 357.232 335.001 357.595C334.858 357.958 334.605 358.359 334.242 358.801C333.883 359.242 333.378 359.776 332.729 360.403L330.999 362.162V362.231H335.369V363.75H328.492ZM341.042 363.941C340.235 363.941 339.544 363.738 338.965 363.329C338.391 362.918 337.948 362.324 337.638 361.55C337.331 360.773 337.177 359.837 337.177 358.742C337.18 357.647 337.336 356.717 337.642 355.949C337.953 355.177 338.395 354.589 338.97 354.185C339.548 353.78 340.239 353.576 341.042 353.576C341.845 353.576 342.535 353.78 343.113 354.185C343.692 354.589 344.134 355.177 344.441 355.949C344.751 356.719 344.907 357.651 344.907 358.742C344.907 359.839 344.751 360.777 344.441 361.555C344.134 362.329 343.692 362.92 343.113 363.329C342.539 363.738 341.848 363.941 341.042 363.941ZM341.042 362.407C341.669 362.407 342.163 362.099 342.526 361.481C342.892 360.86 343.074 359.947 343.074 358.742C343.074 357.945 342.992 357.275 342.825 356.733C342.658 356.19 342.423 355.782 342.119 355.507C341.816 355.23 341.456 355.091 341.042 355.091C340.418 355.091 339.925 355.401 339.563 356.022C339.2 356.64 339.017 357.546 339.014 358.742C339.01 359.542 339.091 360.215 339.254 360.761C339.421 361.306 339.656 361.718 339.96 361.995C340.263 362.27 340.624 362.407 341.042 362.407ZM350.889 353.714V363.75H349.072V355.483H349.013L346.667 356.982V355.316L349.16 353.714H350.889ZM357.385 363.887C356.906 363.884 356.437 363.801 355.979 363.638C355.523 363.471 355.112 363.202 354.745 362.829C354.38 362.453 354.089 361.955 353.874 361.334C353.658 360.711 353.552 359.938 353.555 359.017C353.555 358.157 353.646 357.391 353.829 356.718C354.013 356.045 354.275 355.476 354.619 355.013C354.961 354.546 355.374 354.189 355.858 353.944C356.344 353.699 356.887 353.576 357.489 353.576C358.118 353.576 358.677 353.7 359.163 353.949C359.653 354.197 360.048 354.538 360.348 354.969C360.649 355.397 360.836 355.88 360.907 356.419H359.12C359.028 356.034 358.84 355.727 358.556 355.498C358.275 355.266 357.92 355.149 357.489 355.149C356.793 355.149 356.258 355.452 355.882 356.057C355.509 356.66 355.322 357.491 355.319 358.545H355.388C355.547 358.258 355.754 358.012 356.009 357.806C356.263 357.6 356.551 357.441 356.871 357.331C357.194 357.216 357.536 357.158 357.894 357.158C358.483 357.158 359.01 357.3 359.477 357.58C359.947 357.861 360.32 358.249 360.593 358.742C360.868 359.232 361.003 359.794 361 360.428C361.003 361.088 360.853 361.68 360.549 362.207C360.246 362.729 359.823 363.141 359.28 363.442C358.739 363.742 358.107 363.89 357.385 363.887ZM357.376 362.417C357.731 362.417 358.05 362.331 358.331 362.157C358.612 361.984 358.833 361.75 358.997 361.457C359.16 361.163 359.24 360.833 359.237 360.467C359.24 360.107 359.162 359.783 359.001 359.492C358.845 359.201 358.628 358.971 358.351 358.801C358.072 358.63 357.756 358.545 357.4 358.545C357.136 358.545 356.889 358.596 356.661 358.698C356.432 358.799 356.232 358.94 356.063 359.119C355.893 359.295 355.759 359.501 355.661 359.737C355.567 359.969 355.517 360.217 355.514 360.482C355.517 360.831 355.599 361.152 355.759 361.447C355.92 361.741 356.139 361.976 356.421 362.153C356.701 362.329 357.02 362.417 357.376 362.417Z" fill="white"/>
<path d="M236.542 363.75V362.437L240.025 359.021C240.358 358.684 240.635 358.385 240.857 358.124C241.079 357.863 241.246 357.61 241.357 357.364C241.468 357.119 241.523 356.858 241.523 356.581C241.523 356.264 241.452 355.992 241.308 355.767C241.164 355.538 240.967 355.362 240.715 355.238C240.464 355.114 240.178 355.052 239.858 355.052C239.528 355.052 239.239 355.121 238.991 355.257C238.743 355.392 238.55 355.583 238.413 355.831C238.279 356.08 238.212 356.375 238.212 356.718H236.483C236.483 356.081 236.629 355.527 236.919 355.056C237.21 354.586 237.61 354.221 238.119 353.964C238.632 353.706 239.22 353.576 239.883 353.576C240.555 353.576 241.146 353.703 241.656 353.954C242.165 354.205 242.56 354.55 242.841 354.988C243.125 355.425 243.267 355.926 243.267 356.488C243.267 356.863 243.195 357.232 243.051 357.595C242.908 357.958 242.655 358.359 242.292 358.801C241.933 359.242 241.429 359.776 240.779 360.403L239.05 362.162V362.231H243.419V363.75H236.542ZM249.092 363.941C248.286 363.941 247.593 363.738 247.015 363.329C246.441 362.918 245.998 362.324 245.688 361.55C245.381 360.773 245.228 359.837 245.228 358.742C245.231 357.647 245.386 356.717 245.693 355.949C246.003 355.177 246.446 354.589 247.02 354.185C247.598 353.78 248.289 353.576 249.092 353.576C249.895 353.576 250.586 353.78 251.164 354.185C251.742 354.589 252.184 355.177 252.491 355.949C252.801 356.719 252.957 357.651 252.957 358.742C252.957 359.839 252.801 360.777 252.491 361.555C252.184 362.329 251.742 362.92 251.164 363.329C250.589 363.738 249.899 363.941 249.092 363.941ZM249.092 362.407C249.719 362.407 250.214 362.099 250.576 361.481C250.942 360.86 251.125 359.947 251.125 358.742C251.125 357.945 251.042 357.275 250.875 356.733C250.708 356.19 250.473 355.782 250.17 355.507C249.866 355.23 249.507 355.091 249.092 355.091C248.468 355.091 247.975 355.401 247.613 356.022C247.251 356.64 247.068 357.546 247.064 358.742C247.061 359.542 247.141 360.215 247.304 360.761C247.471 361.306 247.706 361.718 248.01 361.995C248.313 362.27 248.674 362.407 249.092 362.407ZM258.94 353.714V363.75H257.122V355.483H257.064L254.718 356.982V355.316L257.211 353.714H258.94ZM265.249 363.887C264.596 363.887 264.013 363.765 263.497 363.52C262.98 363.272 262.57 362.931 262.267 362.5C261.967 362.069 261.807 361.576 261.787 361.02H263.551C263.583 361.432 263.761 361.769 264.084 362.03C264.407 362.289 264.795 362.417 265.249 362.417C265.606 362.417 265.923 362.336 266.2 362.172C266.477 362.009 266.696 361.781 266.856 361.492C267.016 361.201 267.094 360.868 267.092 360.496C267.094 360.117 267.015 359.78 266.852 359.487C266.688 359.193 266.464 358.963 266.18 358.796C265.896 358.626 265.57 358.541 265.201 358.541C264.9 358.537 264.605 358.594 264.314 358.707C264.024 358.821 263.793 358.972 263.624 359.158L261.983 358.889L262.507 353.714H268.325V355.233H264.01L263.722 357.894H263.78C263.967 357.675 264.23 357.494 264.569 357.35C264.908 357.203 265.28 357.13 265.686 357.13C266.293 357.13 266.835 357.273 267.311 357.561C267.788 357.845 268.164 358.237 268.438 358.737C268.712 359.236 268.849 359.808 268.849 360.452C268.849 361.116 268.696 361.707 268.389 362.226C268.086 362.743 267.663 363.149 267.12 363.447C266.581 363.74 265.958 363.887 265.249 363.887Z" fill="white"/>
<path d="M177.709 331.655V319.109H178.512V331.655H177.709ZM180.026 323.123C179.98 322.695 179.787 322.362 179.448 322.124C179.111 321.884 178.674 321.765 178.135 321.765C177.756 321.765 177.431 321.822 177.16 321.937C176.889 322.051 176.682 322.206 176.538 322.402C176.395 322.598 176.321 322.823 176.318 323.073C176.318 323.283 176.365 323.464 176.46 323.617C176.558 323.771 176.69 323.901 176.857 324.01C177.023 324.114 177.208 324.203 177.41 324.274C177.613 324.346 177.817 324.406 178.022 324.456L178.963 324.691C179.342 324.779 179.706 324.898 180.055 325.049C180.408 325.199 180.723 325.388 181 325.617C181.281 325.846 181.503 326.122 181.666 326.445C181.83 326.768 181.911 327.148 181.911 327.583C181.911 328.17 181.761 328.688 181.461 329.136C181.16 329.58 180.726 329.927 180.158 330.179C179.593 330.428 178.909 330.552 178.106 330.552C177.325 330.552 176.648 330.431 176.073 330.19C175.502 329.948 175.054 329.595 174.731 329.13C174.411 328.667 174.238 328.101 174.212 327.435H176C176.026 327.785 176.133 328.076 176.323 328.307C176.512 328.539 176.759 328.713 177.062 328.827C177.369 328.942 177.712 328.998 178.091 328.998C178.486 328.998 178.832 328.94 179.129 328.822C179.43 328.702 179.665 328.535 179.835 328.322C180.004 328.107 180.091 327.855 180.094 327.568C180.091 327.307 180.014 327.09 179.864 326.92C179.714 326.748 179.503 326.604 179.232 326.489C178.964 326.372 178.651 326.267 178.292 326.176L177.151 325.882C176.324 325.669 175.671 325.348 175.191 324.917C174.715 324.482 174.476 323.905 174.476 323.186C174.476 322.595 174.636 322.078 174.956 321.632C175.28 321.189 175.719 320.844 176.274 320.599C176.829 320.35 177.457 320.226 178.16 320.226C178.871 320.226 179.495 320.35 180.031 320.599C180.569 320.844 180.992 321.185 181.299 321.623C181.606 322.058 181.764 322.557 181.774 323.123H180.026ZM187.417 330.591C186.61 330.591 185.918 330.387 185.34 329.979C184.766 329.567 184.323 328.974 184.013 328.2C183.706 327.423 183.552 326.487 183.552 325.392C183.556 324.297 183.711 323.367 184.018 322.598C184.328 321.827 184.77 321.239 185.345 320.834C185.923 320.43 186.614 320.226 187.417 320.226C188.22 320.226 188.911 320.43 189.489 320.834C190.067 321.239 190.509 321.827 190.816 322.598C191.126 323.369 191.281 324.3 191.281 325.392C191.281 326.489 191.126 327.427 190.816 328.205C190.509 328.979 190.067 329.57 189.489 329.979C188.914 330.387 188.223 330.591 187.417 330.591ZM187.417 329.057C188.044 329.057 188.538 328.749 188.901 328.131C189.267 327.51 189.45 326.597 189.45 325.392C189.45 324.595 189.366 323.924 189.2 323.383C189.033 322.84 188.798 322.432 188.494 322.157C188.191 321.88 187.832 321.741 187.417 321.741C186.793 321.741 186.3 322.051 185.938 322.672C185.575 323.29 185.392 324.196 185.389 325.392C185.386 326.192 185.466 326.865 185.629 327.411C185.796 327.956 186.031 328.368 186.334 328.645C186.638 328.92 186.999 329.057 187.417 329.057ZM193.906 330.508C193.609 330.508 193.354 330.404 193.142 330.194C192.929 329.985 192.825 329.731 192.828 329.429C192.825 329.136 192.929 328.884 193.142 328.675C193.354 328.466 193.609 328.361 193.906 328.361C194.193 328.361 194.443 328.466 194.655 328.675C194.871 328.884 194.98 329.136 194.983 329.429C194.98 329.63 194.928 329.81 194.826 329.973C194.728 330.137 194.598 330.268 194.435 330.366C194.275 330.461 194.098 330.508 193.906 330.508ZM200.387 330.591C199.581 330.591 198.888 330.387 198.31 329.979C197.736 329.567 197.293 328.974 196.983 328.2C196.676 327.423 196.523 326.487 196.523 325.392C196.526 324.297 196.681 323.367 196.988 322.598C197.298 321.827 197.741 321.239 198.315 320.834C198.893 320.43 199.584 320.226 200.387 320.226C201.19 320.226 201.881 320.43 202.459 320.834C203.037 321.239 203.479 321.827 203.786 322.598C204.096 323.369 204.252 324.3 204.252 325.392C204.252 326.489 204.096 327.427 203.786 328.205C203.479 328.979 203.037 329.57 202.459 329.979C201.884 330.387 201.194 330.591 200.387 330.591ZM200.387 329.057C201.014 329.057 201.509 328.749 201.871 328.131C202.237 327.51 202.42 326.597 202.42 325.392C202.42 324.595 202.336 323.924 202.17 323.383C202.003 322.84 201.768 322.432 201.465 322.157C201.161 321.88 200.802 321.741 200.387 321.741C199.763 321.741 199.27 322.051 198.908 322.672C198.546 323.29 198.363 324.196 198.359 325.392C198.356 326.192 198.436 326.865 198.599 327.411C198.766 327.956 199.001 328.368 199.305 328.645C199.608 328.92 199.969 329.057 200.387 329.057ZM209.862 330.591C209.056 330.591 208.364 330.387 207.786 329.979C207.211 329.567 206.769 328.974 206.458 328.2C206.151 327.423 205.998 326.487 205.998 325.392C206.001 324.297 206.156 323.367 206.463 322.598C206.773 321.827 207.216 321.239 207.791 320.834C208.369 320.43 209.059 320.226 209.862 320.226C210.666 320.226 211.356 320.43 211.934 320.834C212.512 321.239 212.955 321.827 213.262 322.598C213.572 323.369 213.727 324.3 213.727 325.392C213.727 326.489 213.572 327.427 213.262 328.205C212.955 328.979 212.512 329.57 211.934 329.979C211.359 330.387 210.669 330.591 209.862 330.591ZM209.862 329.057C210.489 329.057 210.984 328.749 211.346 328.131C211.712 327.51 211.895 326.597 211.895 325.392C211.895 324.595 211.812 323.924 211.645 323.383C211.479 322.84 211.244 322.432 210.94 322.157C210.636 321.88 210.277 321.741 209.862 321.741C209.239 321.741 208.746 322.051 208.383 322.672C208.021 323.29 207.838 324.196 207.835 325.392C207.831 326.192 207.911 326.865 208.075 327.411C208.241 327.956 208.476 328.368 208.78 328.645C209.084 328.92 209.444 329.057 209.862 329.057Z" fill="white"/>
<path d="M177.709 239.655V227.109H178.512V239.655H177.709ZM180.026 231.123C179.98 230.695 179.787 230.362 179.448 230.124C179.111 229.884 178.674 229.765 178.135 229.765C177.756 229.765 177.431 229.822 177.16 229.937C176.889 230.051 176.682 230.206 176.538 230.402C176.395 230.598 176.321 230.823 176.318 231.073C176.318 231.283 176.365 231.464 176.46 231.617C176.558 231.771 176.69 231.901 176.857 232.01C177.023 232.114 177.208 232.203 177.41 232.274C177.613 232.346 177.817 232.406 178.022 232.456L178.963 232.691C179.342 232.779 179.706 232.898 180.055 233.049C180.408 233.199 180.723 233.388 181 233.617C181.281 233.846 181.503 234.122 181.666 234.445C181.83 234.768 181.911 235.148 181.911 235.583C181.911 236.17 181.761 236.688 181.461 237.136C181.16 237.58 180.726 237.927 180.158 238.179C179.593 238.428 178.909 238.552 178.106 238.552C177.325 238.552 176.648 238.431 176.073 238.19C175.502 237.948 175.054 237.595 174.731 237.13C174.411 236.667 174.238 236.101 174.212 235.435H176C176.026 235.785 176.133 236.076 176.323 236.307C176.512 236.539 176.759 236.713 177.062 236.827C177.369 236.942 177.712 236.998 178.091 236.998C178.486 236.998 178.832 236.94 179.129 236.822C179.43 236.702 179.665 236.535 179.835 236.322C180.004 236.107 180.091 235.855 180.094 235.568C180.091 235.307 180.014 235.09 179.864 234.92C179.714 234.748 179.503 234.604 179.232 234.489C178.964 234.372 178.651 234.267 178.292 234.176L177.151 233.882C176.324 233.669 175.671 233.348 175.191 232.917C174.715 232.482 174.476 231.905 174.476 231.186C174.476 230.595 174.636 230.078 174.956 229.632C175.28 229.189 175.719 228.844 176.274 228.599C176.829 228.35 177.457 228.226 178.16 228.226C178.871 228.226 179.495 228.35 180.031 228.599C180.569 228.844 180.992 229.185 181.299 229.623C181.606 230.058 181.764 230.557 181.774 231.123H180.026ZM187.406 238.4V237.087L190.889 233.671C191.222 233.334 191.499 233.035 191.721 232.774C191.943 232.513 192.11 232.26 192.221 232.014C192.332 231.769 192.387 231.508 192.387 231.231C192.387 230.914 192.315 230.642 192.172 230.417C192.028 230.188 191.831 230.012 191.579 229.888C191.328 229.764 191.042 229.701 190.722 229.701C190.392 229.701 190.103 229.77 189.855 229.907C189.607 230.042 189.414 230.233 189.277 230.481C189.143 230.73 189.076 231.025 189.076 231.368H187.347C187.347 230.731 187.493 230.176 187.783 229.706C188.074 229.236 188.474 228.871 188.983 228.614C189.496 228.356 190.084 228.226 190.746 228.226C191.419 228.226 192.01 228.353 192.52 228.604C193.029 228.855 193.424 229.2 193.705 229.638C193.989 230.075 194.131 230.575 194.131 231.138C194.131 231.513 194.059 231.882 193.916 232.245C193.772 232.608 193.519 233.009 193.156 233.45C192.797 233.892 192.293 234.426 191.643 235.052L189.914 236.812V236.881H194.283V238.4H187.406ZM199.736 238.537C199.083 238.537 198.498 238.415 197.982 238.17C197.466 237.922 197.057 237.581 196.753 237.15C196.453 236.719 196.293 236.225 196.273 235.67H198.036C198.069 236.082 198.247 236.419 198.57 236.68C198.893 236.938 199.282 237.067 199.736 237.067C200.092 237.067 200.408 236.986 200.686 236.822C200.963 236.659 201.182 236.431 201.342 236.141C201.502 235.851 201.581 235.518 201.577 235.146C201.581 234.767 201.501 234.43 201.337 234.137C201.174 233.843 200.95 233.613 200.666 233.446C200.382 233.276 200.056 233.191 199.687 233.191C199.386 233.187 199.091 233.243 198.8 233.357C198.51 233.471 198.279 233.622 198.11 233.808L196.469 233.539L196.993 228.364H202.812V229.883H198.497L198.208 232.544H198.266C198.452 232.325 198.715 232.144 199.055 232C199.394 231.853 199.767 231.78 200.172 231.78C200.779 231.78 201.321 231.923 201.798 232.211C202.274 232.495 202.65 232.887 202.924 233.387C203.198 233.886 203.336 234.458 203.336 235.102C203.336 235.765 203.182 236.357 202.875 236.876C202.572 237.393 202.149 237.799 201.607 238.096C201.068 238.39 200.444 238.537 199.736 238.537ZM208.96 238.591C208.153 238.591 207.461 238.387 206.883 237.979C206.309 237.567 205.866 236.974 205.556 236.2C205.249 235.423 205.096 234.487 205.096 233.392C205.099 232.297 205.254 231.367 205.561 230.598C205.871 229.827 206.314 229.239 206.888 228.834C207.466 228.43 208.157 228.226 208.96 228.226C209.763 228.226 210.454 228.43 211.032 228.834C211.61 229.239 212.052 229.827 212.359 230.598C212.669 231.369 212.824 232.3 212.824 233.392C212.824 234.489 212.669 235.427 212.359 236.205C212.052 236.979 211.61 237.57 211.032 237.979C210.457 238.387 209.766 238.591 208.96 238.591ZM208.96 237.057C209.587 237.057 210.082 236.749 210.444 236.131C210.81 235.51 210.993 234.597 210.993 233.392C210.993 232.595 210.909 231.924 210.743 231.383C210.576 230.84 210.341 230.432 210.037 230.157C209.734 229.88 209.375 229.741 208.96 229.741C208.336 229.741 207.843 230.051 207.481 230.672C207.118 231.29 206.936 232.196 206.932 233.392C206.929 234.192 207.009 234.865 207.172 235.411C207.339 235.956 207.574 236.368 207.878 236.645C208.181 236.92 208.542 237.057 208.96 237.057Z" fill="white"/>
<path d="M177.709 147.655V135.109H178.512V147.655H177.709ZM180.026 139.123C179.98 138.695 179.787 138.362 179.448 138.124C179.111 137.884 178.674 137.765 178.135 137.765C177.756 137.765 177.431 137.822 177.16 137.937C176.889 138.051 176.682 138.206 176.538 138.402C176.395 138.598 176.321 138.823 176.318 139.073C176.318 139.283 176.365 139.464 176.46 139.617C176.558 139.771 176.69 139.901 176.857 140.01C177.023 140.114 177.208 140.203 177.41 140.274C177.613 140.346 177.817 140.406 178.022 140.456L178.963 140.691C179.342 140.779 179.706 140.898 180.055 141.049C180.408 141.199 180.723 141.388 181 141.617C181.281 141.846 181.503 142.122 181.666 142.445C181.83 142.768 181.911 143.148 181.911 143.583C181.911 144.17 181.761 144.688 181.461 145.136C181.16 145.58 180.726 145.927 180.158 146.179C179.593 146.428 178.909 146.552 178.106 146.552C177.325 146.552 176.648 146.431 176.073 146.19C175.502 145.948 175.054 145.595 174.731 145.13C174.411 144.667 174.238 144.101 174.212 143.435H176C176.026 143.785 176.133 144.076 176.323 144.307C176.512 144.539 176.759 144.713 177.062 144.827C177.369 144.942 177.712 144.998 178.091 144.998C178.486 144.998 178.832 144.94 179.129 144.822C179.43 144.702 179.665 144.535 179.835 144.322C180.004 144.107 180.091 143.855 180.094 143.568C180.091 143.307 180.014 143.09 179.864 142.92C179.714 142.748 179.503 142.604 179.232 142.489C178.964 142.372 178.651 142.267 178.292 142.176L177.151 141.882C176.324 141.669 175.671 141.348 175.191 140.917C174.715 140.482 174.476 139.905 174.476 139.186C174.476 138.595 174.636 138.078 174.956 137.632C175.28 137.189 175.719 136.844 176.274 136.599C176.829 136.35 177.457 136.226 178.16 136.226C178.871 136.226 179.495 136.35 180.031 136.599C180.569 136.844 180.992 137.185 181.299 137.623C181.606 138.058 181.764 138.557 181.774 139.123H180.026ZM190.893 146.537C190.24 146.537 189.656 146.415 189.14 146.17C188.624 145.922 188.214 145.581 187.911 145.15C187.61 144.719 187.45 144.225 187.431 143.67H189.194C189.227 144.082 189.404 144.419 189.728 144.68C190.051 144.938 190.44 145.067 190.893 145.067C191.249 145.067 191.566 144.986 191.844 144.822C192.121 144.659 192.34 144.431 192.5 144.141C192.66 143.851 192.738 143.518 192.735 143.146C192.738 142.767 192.658 142.43 192.495 142.137C192.332 141.843 192.108 141.613 191.824 141.446C191.54 141.276 191.213 141.191 190.845 141.191C190.544 141.187 190.249 141.243 189.958 141.357C189.667 141.471 189.437 141.622 189.267 141.808L187.627 141.539L188.151 136.364H193.969V137.883H189.654L189.365 140.544H189.424C189.61 140.325 189.873 140.144 190.213 140C190.552 139.853 190.925 139.78 191.329 139.78C191.937 139.78 192.479 139.923 192.955 140.211C193.432 140.495 193.808 140.887 194.082 141.387C194.356 141.886 194.493 142.458 194.493 143.102C194.493 143.765 194.34 144.357 194.033 144.876C193.729 145.393 193.306 145.799 192.764 146.096C192.226 146.39 191.602 146.537 190.893 146.537ZM200.118 146.591C199.311 146.591 198.619 146.387 198.041 145.979C197.466 145.567 197.024 144.974 196.714 144.2C196.407 143.423 196.253 142.487 196.253 141.392C196.257 140.297 196.412 139.367 196.719 138.598C197.029 137.827 197.471 137.239 198.046 136.834C198.624 136.43 199.314 136.226 200.118 136.226C200.921 136.226 201.612 136.43 202.19 136.834C202.767 137.239 203.21 137.827 203.517 138.598C203.827 139.369 203.982 140.3 203.982 141.392C203.982 142.489 203.827 143.427 203.517 144.205C203.21 144.979 202.767 145.57 202.19 145.979C201.615 146.387 200.924 146.591 200.118 146.591ZM200.118 145.057C200.745 145.057 201.239 144.749 201.602 144.131C201.968 143.51 202.15 142.597 202.15 141.392C202.15 140.595 202.067 139.924 201.901 139.383C201.734 138.84 201.499 138.432 201.195 138.157C200.892 137.88 200.532 137.741 200.118 137.741C199.494 137.741 199.001 138.051 198.639 138.672C198.276 139.29 198.093 140.196 198.09 141.392C198.087 142.192 198.167 142.865 198.33 143.411C198.497 143.956 198.732 144.368 199.035 144.645C199.339 144.92 199.7 145.057 200.118 145.057ZM209.593 146.591C208.786 146.591 208.094 146.387 207.516 145.979C206.942 145.567 206.499 144.974 206.189 144.2C205.882 143.423 205.729 142.487 205.729 141.392C205.732 140.297 205.887 139.367 206.194 138.598C206.504 137.827 206.947 137.239 207.521 136.834C208.099 136.43 208.79 136.226 209.593 136.226C210.396 136.226 211.087 136.43 211.665 136.834C212.243 137.239 212.685 137.827 212.992 138.598C213.302 139.369 213.457 140.3 213.457 141.392C213.457 142.489 213.302 143.427 212.992 144.205C212.685 144.979 212.243 145.57 211.665 145.979C211.09 146.387 210.4 146.591 209.593 146.591ZM209.593 145.057C210.22 145.057 210.715 144.749 211.077 144.131C211.443 143.51 211.626 142.597 211.626 141.392C211.626 140.595 211.542 139.924 211.376 139.383C211.209 138.84 210.974 138.432 210.671 138.157C210.367 137.88 210.008 137.741 209.593 137.741C208.969 137.741 208.476 138.051 208.114 138.672C207.751 139.29 207.569 140.196 207.565 141.392C207.562 142.192 207.642 142.865 207.805 143.411C207.972 143.956 208.207 144.368 208.511 144.645C208.814 144.92 209.175 145.057 209.593 145.057Z" fill="white"/>
<path d="M177.709 55.6543V43.1089H178.512V55.6543H177.709ZM180.026 47.1225C179.98 46.6945 179.787 46.3612 179.448 46.1228C179.111 45.8843 178.674 45.765 178.135 45.765C177.756 45.765 177.431 45.8222 177.16 45.9365C176.889 46.0509 176.682 46.2061 176.538 46.4021C176.395 46.5981 176.321 46.8219 176.318 47.0735C176.318 47.2826 176.365 47.4638 176.46 47.6175C176.558 47.771 176.69 47.9016 176.857 48.0095C177.023 48.114 177.208 48.2022 177.41 48.2741C177.613 48.346 177.817 48.4065 178.022 48.4555L178.963 48.6906C179.342 48.7788 179.706 48.8981 180.055 49.0484C180.408 49.1987 180.723 49.3881 181 49.6168C181.281 49.8456 181.503 50.1216 181.666 50.4451C181.83 50.7685 181.911 51.1475 181.911 51.582C181.911 52.1701 181.761 52.6879 181.461 53.1355C181.16 53.5797 180.726 53.9277 180.158 54.1792C179.593 54.4275 178.909 54.5517 178.106 54.5517C177.325 54.5517 176.648 54.4309 176.073 54.1891C175.502 53.9473 175.054 53.5945 174.731 53.1306C174.411 52.6667 174.238 52.1014 174.212 51.435H176C176.026 51.7846 176.133 52.0753 176.323 52.3073C176.512 52.5392 176.759 52.7124 177.062 52.8267C177.369 52.941 177.712 52.9982 178.091 52.9982C178.486 52.9982 178.832 52.9394 179.129 52.8218C179.43 52.7009 179.665 52.5343 179.835 52.322C180.004 52.1064 180.091 51.8548 180.094 51.5673C180.091 51.306 180.014 51.0903 179.864 50.9204C179.714 50.7473 179.503 50.6036 179.232 50.4891C178.964 50.3716 178.651 50.2669 178.292 50.1755L177.151 49.8815C176.324 49.6692 175.671 49.3473 175.191 48.916C174.715 48.4816 174.476 47.905 174.476 47.1862C174.476 46.5949 174.636 46.077 174.956 45.6327C175.28 45.1884 175.719 44.8437 176.274 44.5987C176.829 44.3504 177.457 44.2262 178.16 44.2262C178.871 44.2262 179.495 44.3504 180.031 44.5987C180.569 44.8437 180.992 45.1851 181.299 45.6229C181.606 46.0574 181.764 46.5573 181.774 47.1225H180.026ZM191.08 54.537C190.6 54.5338 190.131 54.4504 189.674 54.2871C189.217 54.1205 188.805 53.8509 188.44 53.4785C188.074 53.1028 187.783 52.6046 187.568 51.9838C187.352 51.3598 187.246 50.5872 187.249 49.6658C187.249 48.8067 187.341 48.0405 187.524 47.3675C187.707 46.6945 187.969 46.126 188.312 45.6621C188.655 45.1949 189.068 44.8388 189.551 44.5938C190.038 44.3487 190.582 44.2262 191.182 44.2262C191.813 44.2262 192.371 44.3504 192.858 44.5987C193.347 44.847 193.742 45.1867 194.043 45.618C194.343 46.046 194.529 46.5294 194.601 47.0686H192.813C192.722 46.6831 192.534 46.3759 192.25 46.1473C191.969 45.9153 191.613 45.7993 191.182 45.7993C190.487 45.7993 189.951 46.1015 189.576 46.706C189.204 47.3103 189.016 48.1401 189.013 49.1954H189.081C189.241 48.9079 189.449 48.6612 189.703 48.4555C189.958 48.2496 190.245 48.0911 190.565 47.9801C190.889 47.8657 191.23 47.8086 191.589 47.8086C192.177 47.8086 192.704 47.949 193.171 48.23C193.641 48.511 194.013 48.8981 194.288 49.3914C194.562 49.8815 194.697 50.4435 194.694 51.0772C194.697 51.7372 194.547 52.3302 194.244 52.8562C193.94 53.3788 193.517 53.7905 192.975 54.091C192.433 54.3916 191.801 54.5403 191.08 54.537ZM191.07 53.0668C191.426 53.0668 191.744 52.9803 192.025 52.8072C192.306 52.634 192.528 52.4004 192.691 52.1064C192.854 51.8123 192.934 51.4824 192.931 51.1164C192.934 50.7571 192.856 50.432 192.696 50.1412C192.539 49.8504 192.322 49.6201 192.044 49.4502C191.767 49.2804 191.45 49.1954 191.094 49.1954C190.83 49.1954 190.583 49.2461 190.355 49.3473C190.126 49.4486 189.927 49.5891 189.757 49.7688C189.587 49.9452 189.453 50.151 189.356 50.3862C189.261 50.6182 189.212 50.8666 189.209 51.1312C189.212 51.4807 189.293 51.8025 189.453 52.0966C189.614 52.3905 189.834 52.6258 190.115 52.8022C190.396 52.9786 190.714 53.0668 191.07 53.0668ZM200.333 54.5909C199.527 54.5909 198.834 54.3867 198.257 53.9783C197.682 53.5668 197.239 52.9737 196.929 52.1994C196.622 51.4219 196.469 50.4859 196.469 49.3914C196.472 48.297 196.627 47.3658 196.934 46.5981C197.244 45.8271 197.687 45.239 198.261 44.8339C198.839 44.4287 199.53 44.2262 200.333 44.2262C201.137 44.2262 201.827 44.4287 202.405 44.8339C202.983 45.239 203.425 45.8271 203.732 46.5981C204.043 47.3692 204.198 48.3002 204.198 49.3914C204.198 50.4891 204.043 51.4268 203.732 52.2043C203.425 52.9786 202.983 53.57 202.405 53.9783C201.83 54.3867 201.14 54.5909 200.333 54.5909ZM200.333 53.0571C200.96 53.0571 201.455 52.7483 201.817 52.1309C202.183 51.5101 202.366 50.597 202.366 49.3914C202.366 48.5943 202.283 47.9245 202.116 47.3822C201.95 46.8398 201.714 46.4315 201.411 46.1571C201.107 45.8793 200.748 45.7405 200.333 45.7405C199.71 45.7405 199.217 46.0509 198.854 46.6716C198.492 47.2891 198.309 48.1957 198.306 49.3914C198.302 50.1918 198.382 50.8648 198.546 51.4105C198.712 51.9561 198.947 52.3678 199.251 52.6454C199.554 52.9199 199.915 53.0571 200.333 53.0571ZM209.809 54.5909C209.002 54.5909 208.31 54.3867 207.732 53.9783C207.157 53.5668 206.715 52.9737 206.405 52.1994C206.098 51.4219 205.944 50.4859 205.944 49.3914C205.947 48.297 206.102 47.3658 206.409 46.5981C206.72 45.8271 207.162 45.239 207.737 44.8339C208.315 44.4287 209.005 44.2262 209.809 44.2262C210.612 44.2262 211.302 44.4287 211.88 44.8339C212.458 45.239 212.901 45.8271 213.208 46.5981C213.518 47.3692 213.673 48.3002 213.673 49.3914C213.673 50.4891 213.518 51.4268 213.208 52.2043C212.901 52.9786 212.458 53.57 211.88 53.9783C211.306 54.3867 210.615 54.5909 209.809 54.5909ZM209.809 53.0571C210.435 53.0571 210.93 52.7483 211.293 52.1309C211.658 51.5101 211.841 50.597 211.841 49.3914C211.841 48.5943 211.758 47.9245 211.591 47.3822C211.425 46.8398 211.19 46.4315 210.886 46.1571C210.582 45.8793 210.223 45.7405 209.809 45.7405C209.185 45.7405 208.692 46.0509 208.329 46.6716C207.967 47.2891 207.784 48.1957 207.781 49.3914C207.778 50.1918 207.858 50.8648 208.021 51.4105C208.187 51.9561 208.422 52.3678 208.726 52.6454C209.03 52.9199 209.391 53.0571 209.809 53.0571Z" fill="white"/>
</g>
</g>
<defs>
<linearGradient id="paint0_linear_1773_1216" x1="633.331" y1="57.8501" x2="633.331" y2="325.8" gradientUnits="userSpaceOnUse">
<stop stop-color="#7B46E5" stop-opacity="0.32"/>
<stop offset="1" stop-color="#7B46E5" stop-opacity="0"/>
</linearGradient>
<clipPath id="clip0_1773_1216">
<rect width="600" height="450" rx="20" fill="white"/>
</clipPath>
<clipPath id="clip1_1773_1216">
<rect width="908" height="460" fill="white" transform="translate(146 -56)"/>
</clipPath>
</defs>
</svg>
