<svg width="600" height="450" viewBox="0 0 600 450" fill="none" xmlns="http://www.w3.org/2000/svg">
<circle cx="451.561" cy="203.018" r="59.8472" fill="#101010" stroke="#FB52A5" stroke-width="4"/>
<circle cx="451.561" cy="203.018" r="50.9055" fill="#1E1E1E"/>
<circle cx="354.377" cy="203.018" r="59.8472" fill="#101010" stroke="#FF53F9" stroke-width="4"/>
<circle cx="354.377" cy="203.018" r="50.9055" fill="#1E1E1E"/>
<circle cx="257.195" cy="203.018" r="59.8472" fill="#101010" stroke="#4193FF" stroke-width="4"/>
<circle cx="257.195" cy="203.018" r="50.9055" fill="#1E1E1E"/>
<circle cx="160.011" cy="203.018" r="59.8472" fill="#101010" stroke="#6E52FC" stroke-width="4"/>
<circle cx="160.011" cy="203.018" r="50.9055" fill="#1E1E1E"/>
<path fill-rule="evenodd" clip-rule="evenodd" d="M356.692 221.529C366.915 221.529 375.203 213.241 375.203 203.018C375.203 192.795 366.915 184.507 356.692 184.507C346.468 184.507 338.181 192.795 338.181 203.018C338.181 213.241 346.468 221.529 356.692 221.529ZM349.661 210.329V212.764H352.473V210.329H355.285V195.715H352.473V193.279H349.661V195.715H346.849V210.329H349.661ZM360.91 206.675V212.764H363.722V206.675H366.534V198.15H363.722V193.279H360.91V198.15H358.098V206.675H360.91Z" fill="white"/>
<path d="M273.968 204.406H267.084C266.191 204.406 265.334 204.761 264.702 205.393C264.07 206.025 263.715 206.882 263.715 207.775C263.715 208.669 264.07 209.526 264.702 210.158C265.334 210.79 266.191 211.145 267.084 211.145H273.968C274.428 211.144 274.869 210.96 275.194 210.635C275.519 210.31 275.702 209.869 275.704 209.41V206.141C275.703 205.681 275.52 205.24 275.195 204.914C274.87 204.589 274.428 204.406 273.968 204.406ZM268.085 209.658C267.589 209.653 267.115 209.451 266.766 209.098C266.416 208.745 266.221 208.269 266.221 207.772C266.221 207.276 266.416 206.8 266.766 206.446C267.115 206.093 267.589 205.892 268.085 205.887C268.582 205.892 269.056 206.093 269.405 206.447C269.754 206.8 269.95 207.276 269.95 207.772C269.95 208.269 269.754 208.745 269.405 209.098C269.056 209.452 268.582 209.653 268.085 209.658Z" fill="white"/>
<path d="M269.295 194.89L266.929 191.089C266.551 190.486 265.954 190.051 265.263 189.877C264.573 189.702 263.841 189.801 263.221 190.152C263.175 190.175 255.626 194.89 255.626 194.89H269.295Z" fill="white"/>
<path d="M267.086 212.591C260.702 212.35 260.702 203.196 267.086 202.96H272.928V199.229C272.927 198.462 272.622 197.727 272.08 197.185C271.538 196.643 270.803 196.338 270.036 196.336H246.203C245.436 196.338 244.701 196.643 244.159 197.185C243.617 197.727 243.312 198.462 243.311 199.229V216.282C243.311 217.049 243.616 217.785 244.158 218.327C244.7 218.869 245.436 219.174 246.203 219.175H270.036C270.803 219.174 271.538 218.869 272.081 218.327C272.623 217.785 272.928 217.049 272.928 216.282V212.591C272.221 212.587 267.897 212.595 267.086 212.591Z" fill="white"/>
<path d="M252.901 194.89C252.901 194.89 262.414 188.927 262.631 188.828C261.825 187.816 260.847 186.852 259.461 186.861C259.002 186.846 258.545 186.927 258.119 187.098C257.693 187.27 257.307 187.528 256.985 187.856L250.026 194.89C250.744 194.883 252.195 194.895 252.901 194.89Z" fill="white"/>
<path d="M268.089 207.045C267.897 207.048 267.715 207.126 267.581 207.262C267.446 207.399 267.371 207.582 267.371 207.774C267.371 207.965 267.446 208.149 267.581 208.285C267.715 208.422 267.897 208.5 268.089 208.503C268.28 208.5 268.463 208.422 268.597 208.285C268.731 208.149 268.807 207.965 268.807 207.774C268.807 207.582 268.731 207.399 268.597 207.262C268.463 207.126 268.28 207.048 268.089 207.045Z" fill="white"/>
<g clip-path="url(#clip0_1773_1171)">
<path d="M151.475 208.909H145.188C144.589 208.909 144.104 209.394 144.104 209.993V220.445C144.104 221.044 144.589 221.529 145.188 221.529H151.475C152.074 221.529 152.56 221.044 152.56 220.445V209.993C152.56 209.394 152.074 208.909 151.475 208.909Z" fill="white"/>
<path d="M163.144 203.068H156.857C156.258 203.068 155.772 203.553 155.772 204.153V220.445C155.772 221.045 156.258 221.53 156.857 221.53H163.144C163.743 221.53 164.229 221.045 164.229 220.445V204.153C164.229 203.553 163.743 203.068 163.144 203.068Z" fill="white"/>
<path d="M174.808 194.244H168.521C167.922 194.244 167.437 194.729 167.437 195.328V220.444C167.437 221.043 167.922 221.529 168.521 221.529H174.808C175.407 221.529 175.893 221.043 175.893 220.444V195.328C175.893 194.729 175.407 194.244 174.808 194.244Z" fill="white"/>
<path d="M145.262 198.143C145.432 198.143 145.604 198.103 145.765 198.018L157.094 192.061L161.603 194.399C161.926 194.567 162.312 194.561 162.63 194.383L172.676 188.778L172.29 189.797C172.077 190.357 172.359 190.984 172.919 191.196C173.046 191.244 173.176 191.267 173.303 191.267C173.741 191.267 174.154 191 174.318 190.566L175.754 186.777C175.789 186.686 175.809 186.591 175.818 186.494C175.825 186.433 175.826 186.37 175.821 186.309C175.81 186.154 175.767 186 175.687 185.855C175.502 185.524 175.169 185.328 174.816 185.303L170.93 184.528C170.343 184.411 169.772 184.792 169.655 185.38C169.538 185.967 169.919 186.538 170.506 186.655L171.627 186.879L162.083 192.205L157.589 189.875C157.274 189.712 156.899 189.713 156.586 189.878L144.756 196.098C144.226 196.377 144.022 197.033 144.301 197.563C144.495 197.932 144.872 198.143 145.262 198.143Z" fill="white"/>
</g>
<mask id="mask0_1773_1171" style="mask-type:alpha" maskUnits="userSpaceOnUse" x="435" y="184" width="38" height="38">
<rect x="435.364" y="184.507" width="37.0222" height="37.0222" fill="#CCCCCC"/>
</mask>
<g mask="url(#mask0_1773_1171)">
<path d="M467.762 210.731V200.087L453.879 207.646L436.91 198.39L453.879 189.135L470.847 198.39V210.731H467.762ZM453.879 216.901L443.081 211.04V203.327L453.879 209.188L464.677 203.327V211.04L453.879 216.901Z" fill="white"/>
</g>
<rect x="63" y="312" width="162" height="33" rx="16.5" fill="#6E52FC"/>
<path d="M82.6129 334V322.364H87.2038C88.0826 322.364 88.8326 322.521 89.4538 322.835C90.0788 323.146 90.5542 323.587 90.88 324.159C91.2095 324.727 91.3743 325.396 91.3743 326.165C91.3743 326.937 91.2076 327.602 90.8743 328.159C90.541 328.712 90.058 329.136 89.4254 329.432C88.7966 329.727 88.0353 329.875 87.1413 329.875H84.0675V327.898H86.7436C87.2133 327.898 87.6035 327.833 87.9141 327.705C88.2247 327.576 88.4557 327.383 88.6072 327.125C88.7625 326.867 88.8402 326.547 88.8402 326.165C88.8402 325.778 88.7625 325.453 88.6072 325.188C88.4557 324.922 88.2228 324.722 87.9084 324.585C87.5978 324.445 87.2057 324.375 86.7322 324.375H85.0732V334H82.6129ZM88.897 328.705L91.7891 334H89.0732L86.2436 328.705H88.897ZM96.87 334.17C95.9875 334.17 95.2242 333.983 94.5803 333.608C93.9401 333.229 93.4458 332.703 93.0973 332.028C92.7488 331.35 92.5746 330.564 92.5746 329.67C92.5746 328.769 92.7488 327.981 93.0973 327.307C93.4458 326.629 93.9401 326.102 94.5803 325.727C95.2242 325.348 95.9875 325.159 96.87 325.159C97.7526 325.159 98.514 325.348 99.1541 325.727C99.7981 326.102 100.294 326.629 100.643 327.307C100.991 327.981 101.165 328.769 101.165 329.67C101.165 330.564 100.991 331.35 100.643 332.028C100.294 332.703 99.7981 333.229 99.1541 333.608C98.514 333.983 97.7526 334.17 96.87 334.17ZM96.8814 332.295C97.2829 332.295 97.6181 332.182 97.8871 331.955C98.156 331.723 98.3587 331.409 98.495 331.011C98.6352 330.614 98.7053 330.161 98.7053 329.653C98.7053 329.146 98.6352 328.693 98.495 328.295C98.3587 327.898 98.156 327.583 97.8871 327.352C97.6181 327.121 97.2829 327.006 96.8814 327.006C96.4761 327.006 96.1352 327.121 95.8587 327.352C95.5859 327.583 95.3795 327.898 95.2393 328.295C95.103 328.693 95.0348 329.146 95.0348 329.653C95.0348 330.161 95.103 330.614 95.2393 331.011C95.3795 331.409 95.5859 331.723 95.8587 331.955C96.1352 332.182 96.4761 332.295 96.8814 332.295ZM102.785 334V322.364H105.205V326.739H105.279C105.385 326.504 105.539 326.265 105.739 326.023C105.944 325.777 106.209 325.572 106.535 325.409C106.864 325.242 107.273 325.159 107.762 325.159C108.398 325.159 108.986 325.326 109.523 325.659C110.061 325.989 110.491 326.487 110.813 327.153C111.135 327.816 111.296 328.648 111.296 329.648C111.296 330.621 111.139 331.443 110.825 332.114C110.514 332.78 110.09 333.286 109.552 333.631C109.018 333.972 108.419 334.142 107.756 334.142C107.287 334.142 106.887 334.064 106.558 333.909C106.232 333.754 105.965 333.559 105.756 333.324C105.548 333.085 105.389 332.845 105.279 332.602H105.171V334H102.785ZM105.154 329.636C105.154 330.155 105.226 330.608 105.37 330.994C105.514 331.381 105.722 331.682 105.995 331.898C106.268 332.11 106.599 332.216 106.989 332.216C107.383 332.216 107.717 332.108 107.989 331.892C108.262 331.672 108.469 331.369 108.609 330.983C108.753 330.593 108.825 330.144 108.825 329.636C108.825 329.133 108.754 328.689 108.614 328.307C108.474 327.924 108.268 327.625 107.995 327.409C107.722 327.193 107.387 327.085 106.989 327.085C106.595 327.085 106.262 327.189 105.989 327.398C105.72 327.606 105.514 327.902 105.37 328.284C105.226 328.667 105.154 329.117 105.154 329.636ZM116.854 334.17C115.972 334.17 115.209 333.983 114.565 333.608C113.924 333.229 113.43 332.703 113.082 332.028C112.733 331.35 112.559 330.564 112.559 329.67C112.559 328.769 112.733 327.981 113.082 327.307C113.43 326.629 113.924 326.102 114.565 325.727C115.209 325.348 115.972 325.159 116.854 325.159C117.737 325.159 118.498 325.348 119.138 325.727C119.782 326.102 120.279 326.629 120.627 327.307C120.976 327.981 121.15 328.769 121.15 329.67C121.15 330.564 120.976 331.35 120.627 332.028C120.279 332.703 119.782 333.229 119.138 333.608C118.498 333.983 117.737 334.17 116.854 334.17ZM116.866 332.295C117.267 332.295 117.603 332.182 117.871 331.955C118.14 331.723 118.343 331.409 118.479 331.011C118.62 330.614 118.69 330.161 118.69 329.653C118.69 329.146 118.62 328.693 118.479 328.295C118.343 327.898 118.14 327.583 117.871 327.352C117.603 327.121 117.267 327.006 116.866 327.006C116.46 327.006 116.12 327.121 115.843 327.352C115.57 327.583 115.364 327.898 115.224 328.295C115.087 328.693 115.019 329.146 115.019 329.653C115.019 330.161 115.087 330.614 115.224 331.011C115.364 331.409 115.57 331.723 115.843 331.955C116.12 332.182 116.46 332.295 116.866 332.295ZM127.366 325.273V327.091H122.11V325.273H127.366ZM123.303 323.182H125.724V331.318C125.724 331.542 125.758 331.716 125.826 331.841C125.894 331.962 125.989 332.047 126.11 332.097C126.235 332.146 126.379 332.17 126.542 332.17C126.656 332.17 126.769 332.161 126.883 332.142C126.996 332.119 127.084 332.102 127.144 332.091L127.525 333.892C127.404 333.93 127.233 333.973 127.013 334.023C126.794 334.076 126.527 334.108 126.212 334.119C125.629 334.142 125.118 334.064 124.678 333.886C124.243 333.708 123.904 333.432 123.661 333.057C123.419 332.682 123.299 332.208 123.303 331.636V323.182ZM128.942 334V325.273H131.363V334H128.942ZM130.158 324.148C129.799 324.148 129.49 324.028 129.232 323.79C128.978 323.547 128.852 323.258 128.852 322.92C128.852 322.587 128.978 322.301 129.232 322.062C129.49 321.82 129.799 321.699 130.158 321.699C130.518 321.699 130.825 321.82 131.079 322.062C131.336 322.301 131.465 322.587 131.465 322.92C131.465 323.258 131.336 323.547 131.079 323.79C130.825 324.028 130.518 324.148 130.158 324.148ZM137.245 334.17C136.351 334.17 135.582 333.981 134.938 333.602C134.298 333.22 133.806 332.689 133.461 332.011C133.12 331.333 132.95 330.553 132.95 329.67C132.95 328.777 133.122 327.992 133.467 327.318C133.815 326.64 134.309 326.112 134.95 325.733C135.59 325.35 136.351 325.159 137.234 325.159C137.995 325.159 138.662 325.297 139.234 325.574C139.806 325.85 140.258 326.239 140.592 326.739C140.925 327.239 141.109 327.826 141.143 328.5H138.859C138.794 328.064 138.624 327.714 138.347 327.449C138.075 327.18 137.717 327.045 137.273 327.045C136.898 327.045 136.571 327.148 136.29 327.352C136.014 327.553 135.798 327.847 135.643 328.233C135.487 328.619 135.41 329.087 135.41 329.636C135.41 330.193 135.486 330.667 135.637 331.057C135.792 331.447 136.01 331.744 136.29 331.949C136.571 332.153 136.898 332.256 137.273 332.256C137.55 332.256 137.798 332.199 138.018 332.085C138.241 331.972 138.425 331.807 138.569 331.591C138.717 331.371 138.813 331.108 138.859 330.801H141.143C141.105 331.468 140.923 332.055 140.597 332.562C140.275 333.066 139.83 333.46 139.262 333.744C138.694 334.028 138.022 334.17 137.245 334.17ZM145.998 324.392V322.364H155.555V324.392H151.992V334H149.56V324.392H145.998ZM156.177 334V325.273H158.523V326.795H158.614C158.773 326.254 159.04 325.845 159.415 325.568C159.79 325.288 160.222 325.148 160.711 325.148C160.832 325.148 160.963 325.155 161.103 325.17C161.243 325.186 161.366 325.206 161.472 325.233V327.381C161.359 327.347 161.201 327.316 161.001 327.29C160.8 327.263 160.616 327.25 160.45 327.25C160.094 327.25 159.775 327.328 159.495 327.483C159.219 327.634 158.999 327.847 158.836 328.119C158.677 328.392 158.597 328.706 158.597 329.062V334H156.177ZM164.962 334.165C164.406 334.165 163.909 334.068 163.474 333.875C163.038 333.678 162.693 333.388 162.44 333.006C162.19 332.619 162.065 332.138 162.065 331.562C162.065 331.078 162.154 330.67 162.332 330.341C162.51 330.011 162.752 329.746 163.059 329.545C163.366 329.345 163.714 329.193 164.104 329.091C164.498 328.989 164.911 328.917 165.343 328.875C165.851 328.822 166.26 328.773 166.57 328.727C166.881 328.678 167.106 328.606 167.246 328.511C167.387 328.417 167.457 328.277 167.457 328.091V328.057C167.457 327.697 167.343 327.419 167.116 327.222C166.892 327.025 166.574 326.926 166.161 326.926C165.726 326.926 165.379 327.023 165.121 327.216C164.864 327.405 164.693 327.644 164.61 327.932L162.371 327.75C162.485 327.22 162.709 326.761 163.042 326.375C163.375 325.985 163.805 325.686 164.332 325.477C164.862 325.265 165.476 325.159 166.173 325.159C166.657 325.159 167.121 325.216 167.565 325.33C168.012 325.443 168.407 325.619 168.752 325.858C169.101 326.097 169.375 326.403 169.576 326.778C169.777 327.15 169.877 327.595 169.877 328.114V334H167.582V332.79H167.513C167.373 333.062 167.186 333.303 166.951 333.511C166.716 333.716 166.434 333.877 166.104 333.994C165.775 334.108 165.394 334.165 164.962 334.165ZM165.656 332.494C166.012 332.494 166.326 332.424 166.599 332.284C166.871 332.14 167.085 331.947 167.241 331.705C167.396 331.462 167.474 331.187 167.474 330.881V329.955C167.398 330.004 167.294 330.049 167.161 330.091C167.032 330.129 166.887 330.165 166.724 330.199C166.561 330.229 166.398 330.258 166.235 330.284C166.072 330.307 165.924 330.328 165.792 330.347C165.508 330.388 165.26 330.455 165.048 330.545C164.835 330.636 164.671 330.759 164.553 330.915C164.436 331.066 164.377 331.256 164.377 331.483C164.377 331.812 164.496 332.064 164.735 332.239C164.978 332.409 165.284 332.494 165.656 332.494ZM174.971 334.142C174.308 334.142 173.708 333.972 173.17 333.631C172.636 333.286 172.211 332.78 171.897 332.114C171.586 331.443 171.431 330.621 171.431 329.648C171.431 328.648 171.592 327.816 171.914 327.153C172.236 326.487 172.664 325.989 173.198 325.659C173.736 325.326 174.325 325.159 174.965 325.159C175.454 325.159 175.861 325.242 176.187 325.409C176.516 325.572 176.781 325.777 176.982 326.023C177.187 326.265 177.342 326.504 177.448 326.739H177.522V322.364H179.937V334H177.55V332.602H177.448C177.335 332.845 177.174 333.085 176.965 333.324C176.761 333.559 176.494 333.754 176.164 333.909C175.838 334.064 175.441 334.142 174.971 334.142ZM175.738 332.216C176.128 332.216 176.458 332.11 176.727 331.898C176.999 331.682 177.208 331.381 177.352 330.994C177.499 330.608 177.573 330.155 177.573 329.636C177.573 329.117 177.501 328.667 177.357 328.284C177.213 327.902 177.005 327.606 176.732 327.398C176.46 327.189 176.128 327.085 175.738 327.085C175.34 327.085 175.005 327.193 174.732 327.409C174.46 327.625 174.253 327.924 174.113 328.307C173.973 328.689 173.903 329.133 173.903 329.636C173.903 330.144 173.973 330.593 174.113 330.983C174.257 331.369 174.463 331.672 174.732 331.892C175.005 332.108 175.34 332.216 175.738 332.216ZM181.927 334V325.273H184.347V334H181.927ZM183.143 324.148C182.783 324.148 182.474 324.028 182.217 323.79C181.963 323.547 181.836 323.258 181.836 322.92C181.836 322.587 181.963 322.301 182.217 322.062C182.474 321.82 182.783 321.699 183.143 321.699C183.503 321.699 183.809 321.82 184.063 322.062C184.321 322.301 184.45 322.587 184.45 322.92C184.45 323.258 184.321 323.547 184.063 323.79C183.809 324.028 183.503 324.148 183.143 324.148ZM188.707 328.955V334H186.286V325.273H188.593V326.812H188.695C188.888 326.305 189.212 325.903 189.667 325.608C190.121 325.309 190.673 325.159 191.32 325.159C191.926 325.159 192.455 325.292 192.906 325.557C193.356 325.822 193.707 326.201 193.957 326.693C194.207 327.182 194.332 327.765 194.332 328.443V334H191.911V328.875C191.915 328.341 191.779 327.924 191.502 327.625C191.226 327.322 190.845 327.17 190.36 327.17C190.034 327.17 189.746 327.241 189.496 327.381C189.25 327.521 189.057 327.725 188.917 327.994C188.781 328.259 188.71 328.58 188.707 328.955ZM200.171 337.455C199.387 337.455 198.715 337.347 198.154 337.131C197.597 336.919 197.154 336.629 196.825 336.261C196.495 335.894 196.281 335.481 196.183 335.023L198.421 334.722C198.489 334.896 198.597 335.059 198.745 335.21C198.893 335.362 199.088 335.483 199.33 335.574C199.576 335.669 199.876 335.716 200.228 335.716C200.754 335.716 201.188 335.587 201.529 335.33C201.874 335.076 202.046 334.65 202.046 334.051V332.455H201.944C201.838 332.697 201.679 332.926 201.467 333.142C201.254 333.358 200.982 333.534 200.648 333.67C200.315 333.807 199.917 333.875 199.455 333.875C198.8 333.875 198.203 333.723 197.665 333.42C197.131 333.114 196.705 332.646 196.387 332.017C196.073 331.384 195.915 330.585 195.915 329.619C195.915 328.631 196.076 327.805 196.398 327.142C196.72 326.479 197.148 325.983 197.683 325.653C198.22 325.324 198.809 325.159 199.45 325.159C199.938 325.159 200.347 325.242 200.677 325.409C201.006 325.572 201.272 325.777 201.472 326.023C201.677 326.265 201.834 326.504 201.944 326.739H202.035V325.273H204.438V334.085C204.438 334.828 204.256 335.449 203.893 335.949C203.529 336.449 203.025 336.824 202.381 337.074C201.741 337.328 201.004 337.455 200.171 337.455ZM200.222 332.057C200.612 332.057 200.942 331.96 201.211 331.767C201.484 331.57 201.692 331.29 201.836 330.926C201.984 330.559 202.058 330.119 202.058 329.608C202.058 329.097 201.986 328.653 201.842 328.278C201.698 327.9 201.489 327.606 201.217 327.398C200.944 327.189 200.612 327.085 200.222 327.085C199.825 327.085 199.489 327.193 199.217 327.409C198.944 327.621 198.737 327.917 198.597 328.295C198.457 328.674 198.387 329.112 198.387 329.608C198.387 330.112 198.457 330.547 198.597 330.915C198.741 331.278 198.948 331.561 199.217 331.761C199.489 331.958 199.825 332.057 200.222 332.057Z" fill="white"/>
<rect x="52" y="42.6152" width="192.053" height="32.3944" rx="16.1972" fill="#4193FF"/>
<path d="M74.4152 55.2627V53.2342H83.972V55.2627H80.4095V64.8706H77.9777V55.2627H74.4152ZM84.5941 64.8706V56.1433H86.9407V57.6661H87.0316C87.1907 57.1244 87.4578 56.7153 87.8328 56.4388C88.2078 56.1585 88.6396 56.0183 89.1282 56.0183C89.2494 56.0183 89.3801 56.0259 89.5203 56.0411C89.6604 56.0562 89.7835 56.077 89.8896 56.1036V58.2513C89.776 58.2172 89.6188 58.1869 89.418 58.1604C89.2173 58.1339 89.0335 58.1206 88.8669 58.1206C88.5108 58.1206 88.1926 58.1983 87.9123 58.3536C87.6358 58.5051 87.4161 58.7172 87.2532 58.9899C87.0941 59.2627 87.0146 59.577 87.0146 59.9331V64.8706H84.5941ZM96.7376 61.1547V56.1433H99.1581V64.8706H96.8342V63.2854H96.7433C96.5463 63.7967 96.2187 64.2077 95.7603 64.5183C95.3058 64.8289 94.7509 64.9842 94.0956 64.9842C93.5122 64.9842 92.999 64.8517 92.5558 64.5865C92.1126 64.3214 91.766 63.9445 91.516 63.4558C91.2698 62.9672 91.1448 62.382 91.141 61.7002V56.1433H93.5615V61.2683C93.5653 61.7835 93.7035 62.1907 93.9762 62.4899C94.249 62.7892 94.6145 62.9388 95.0728 62.9388C95.3645 62.9388 95.6372 62.8725 95.891 62.7399C96.1448 62.6036 96.3494 62.4028 96.5047 62.1377C96.6637 61.8725 96.7414 61.5448 96.7376 61.1547ZM108.356 58.632L106.14 58.7683C106.102 58.5789 106.02 58.4085 105.895 58.257C105.77 58.1017 105.606 57.9786 105.401 57.8877C105.2 57.793 104.96 57.7456 104.679 57.7456C104.304 57.7456 103.988 57.8252 103.731 57.9842C103.473 58.1395 103.344 58.3479 103.344 58.6092C103.344 58.8176 103.427 58.9937 103.594 59.1377C103.761 59.2816 104.047 59.3971 104.452 59.4842L106.032 59.8024C106.88 59.9767 107.513 60.257 107.929 60.6433C108.346 61.0297 108.554 61.5373 108.554 62.1661C108.554 62.738 108.386 63.2399 108.049 63.6717C107.715 64.1036 107.257 64.4407 106.674 64.6831C106.094 64.9217 105.426 65.0411 104.668 65.0411C103.513 65.0411 102.592 64.8005 101.907 64.3195C101.225 63.8346 100.825 63.1755 100.708 62.3422L103.088 62.2172C103.16 62.5695 103.335 62.8384 103.611 63.024C103.888 63.2058 104.242 63.2967 104.674 63.2967C105.098 63.2967 105.439 63.2153 105.696 63.0524C105.958 62.8858 106.09 62.6717 106.094 62.4104C106.09 62.1907 105.998 62.0108 105.816 61.8706C105.634 61.7267 105.354 61.6168 104.975 61.5411L103.463 61.2399C102.611 61.0695 101.977 60.774 101.56 60.3536C101.147 59.9331 100.941 59.3971 100.941 58.7456C100.941 58.185 101.092 57.702 101.395 57.2967C101.702 56.8914 102.132 56.5789 102.685 56.3592C103.242 56.1395 103.893 56.0297 104.64 56.0297C105.742 56.0297 106.609 56.2627 107.242 56.7286C107.878 57.1945 108.249 57.8289 108.356 58.632ZM114.721 56.1433V57.9615H109.465V56.1433H114.721ZM110.658 54.0524H113.079V62.1888C113.079 62.4123 113.113 62.5865 113.181 62.7115C113.249 62.8327 113.344 62.918 113.465 62.9672C113.59 63.0164 113.734 63.0411 113.897 63.0411C114.01 63.0411 114.124 63.0316 114.238 63.0127C114.351 62.9899 114.438 62.9729 114.499 62.9615L114.88 64.7627C114.758 64.8005 114.588 64.8441 114.368 64.8933C114.149 64.9464 113.882 64.9786 113.567 64.9899C112.984 65.0127 112.472 64.935 112.033 64.757C111.597 64.5789 111.258 64.3024 111.016 63.9274C110.774 63.5524 110.654 63.0789 110.658 62.507V54.0524ZM120.046 53.2342H123.08L126.284 61.0524H126.421L129.625 53.2342H132.659V64.8706H130.273V57.2967H130.177L127.165 64.8138H125.54L122.529 57.2683H122.432V64.8706H120.046V53.2342ZM137.13 65.0354C136.573 65.0354 136.077 64.9388 135.641 64.7456C135.205 64.5486 134.861 64.2589 134.607 63.8763C134.357 63.4899 134.232 63.0089 134.232 62.4331C134.232 61.9483 134.321 61.5411 134.499 61.2115C134.677 60.882 134.919 60.6168 135.226 60.4161C135.533 60.2153 135.882 60.0638 136.272 59.9615C136.666 59.8592 137.079 59.7873 137.51 59.7456C138.018 59.6926 138.427 59.6433 138.738 59.5979C139.048 59.5486 139.274 59.4767 139.414 59.382C139.554 59.2873 139.624 59.1471 139.624 58.9615V58.9274C139.624 58.5676 139.51 58.2892 139.283 58.0922C139.06 57.8952 138.741 57.7967 138.329 57.7967C137.893 57.7967 137.546 57.8933 137.289 58.0865C137.031 58.2759 136.861 58.5145 136.777 58.8024L134.539 58.6206C134.652 58.0903 134.876 57.632 135.209 57.2456C135.543 56.8555 135.972 56.5562 136.499 56.3479C137.029 56.1358 137.643 56.0297 138.34 56.0297C138.825 56.0297 139.289 56.0865 139.732 56.2002C140.179 56.3138 140.575 56.4899 140.919 56.7286C141.268 56.9672 141.543 57.274 141.743 57.649C141.944 58.0202 142.044 58.4653 142.044 58.9842V64.8706H139.749V63.6604H139.681C139.541 63.9331 139.353 64.1736 139.118 64.382C138.883 64.5865 138.601 64.7475 138.272 64.8649C137.942 64.9786 137.561 65.0354 137.13 65.0354ZM137.823 63.3649C138.179 63.3649 138.493 63.2948 138.766 63.1547C139.039 63.0108 139.253 62.8176 139.408 62.5752C139.563 62.3327 139.641 62.0581 139.641 61.7513V60.8252C139.565 60.8744 139.461 60.9198 139.329 60.9615C139.2 60.9994 139.054 61.0354 138.891 61.0695C138.728 61.0998 138.565 61.1282 138.402 61.1547C138.24 61.1774 138.092 61.1983 137.959 61.2172C137.675 61.2589 137.427 61.3252 137.215 61.4161C137.003 61.507 136.838 61.6301 136.721 61.7854C136.603 61.9369 136.544 62.1263 136.544 62.3536C136.544 62.6831 136.664 62.935 136.902 63.1092C137.145 63.2797 137.452 63.3649 137.823 63.3649ZM146.343 59.8252V64.8706H143.922V56.1433H146.229V57.6831H146.331C146.525 57.1755 146.848 56.774 147.303 56.4786C147.757 56.1793 148.309 56.0297 148.956 56.0297C149.562 56.0297 150.091 56.1623 150.542 56.4274C150.992 56.6926 151.343 57.0714 151.593 57.5638C151.843 58.0524 151.968 58.6358 151.968 59.3138V64.8706H149.547V59.7456C149.551 59.2115 149.415 58.7948 149.138 58.4956C148.862 58.1926 148.481 58.0411 147.996 58.0411C147.67 58.0411 147.382 58.1111 147.132 58.2513C146.886 58.3914 146.693 58.596 146.553 58.8649C146.417 59.1301 146.347 59.4502 146.343 59.8252ZM156.364 65.0354C155.807 65.0354 155.311 64.9388 154.875 64.7456C154.44 64.5486 154.095 64.2589 153.841 63.8763C153.591 63.4899 153.466 63.0089 153.466 62.4331C153.466 61.9483 153.555 61.5411 153.733 61.2115C153.911 60.882 154.154 60.6168 154.461 60.4161C154.767 60.2153 155.116 60.0638 155.506 59.9615C155.9 59.8592 156.313 59.7873 156.745 59.7456C157.252 59.6926 157.661 59.6433 157.972 59.5979C158.283 59.5486 158.508 59.4767 158.648 59.382C158.788 59.2873 158.858 59.1471 158.858 58.9615V58.9274C158.858 58.5676 158.745 58.2892 158.517 58.0922C158.294 57.8952 157.976 57.7967 157.563 57.7967C157.127 57.7967 156.781 57.8933 156.523 58.0865C156.266 58.2759 156.095 58.5145 156.012 58.8024L153.773 58.6206C153.887 58.0903 154.11 57.632 154.444 57.2456C154.777 56.8555 155.207 56.5562 155.733 56.3479C156.264 56.1358 156.877 56.0297 157.574 56.0297C158.059 56.0297 158.523 56.0865 158.966 56.2002C159.413 56.3138 159.809 56.4899 160.154 56.7286C160.502 56.9672 160.777 57.274 160.978 57.649C161.178 58.0202 161.279 58.4653 161.279 58.9842V64.8706H158.983V63.6604H158.915C158.775 63.9331 158.588 64.1736 158.353 64.382C158.118 64.5865 157.836 64.7475 157.506 64.8649C157.177 64.9786 156.796 65.0354 156.364 65.0354ZM157.057 63.3649C157.413 63.3649 157.728 63.2948 158 63.1547C158.273 63.0108 158.487 62.8176 158.642 62.5752C158.798 62.3327 158.875 62.0581 158.875 61.7513V60.8252C158.8 60.8744 158.695 60.9198 158.563 60.9615C158.434 60.9994 158.288 61.0354 158.125 61.0695C157.963 61.0998 157.8 61.1282 157.637 61.1547C157.474 61.1774 157.326 61.1983 157.194 61.2172C156.909 61.2589 156.661 61.3252 156.449 61.4161C156.237 61.507 156.072 61.6301 155.955 61.7854C155.838 61.9369 155.779 62.1263 155.779 62.3536C155.779 62.6831 155.898 62.935 156.137 63.1092C156.379 63.2797 156.686 63.3649 157.057 63.3649ZM167.088 68.3252C166.304 68.3252 165.632 68.2172 165.071 68.0013C164.515 67.7892 164.071 67.4994 163.742 67.132C163.412 66.7645 163.198 66.3517 163.1 65.8933L165.338 65.5922C165.407 65.7664 165.515 65.9293 165.662 66.0808C165.81 66.2323 166.005 66.3536 166.248 66.4445C166.494 66.5392 166.793 66.5865 167.145 66.5865C167.672 66.5865 168.106 66.4577 168.446 66.2002C168.791 65.9464 168.963 65.5202 168.963 64.9217V63.3252H168.861C168.755 63.5676 168.596 63.7967 168.384 64.0127C168.172 64.2286 167.899 64.4047 167.566 64.5411C167.232 64.6774 166.835 64.7456 166.373 64.7456C165.717 64.7456 165.121 64.5941 164.583 64.2911C164.049 63.9842 163.623 63.5164 163.304 62.8877C162.99 62.2551 162.833 61.4558 162.833 60.4899C162.833 59.5013 162.994 58.6755 163.316 58.0127C163.638 57.3498 164.066 56.8536 164.6 56.524C165.138 56.1945 165.727 56.0297 166.367 56.0297C166.856 56.0297 167.265 56.113 167.594 56.2797C167.924 56.4426 168.189 56.6471 168.39 56.8933C168.594 57.1358 168.751 57.3744 168.861 57.6092H168.952V56.1433H171.356V64.9558C171.356 65.6983 171.174 66.3195 170.81 66.8195C170.446 67.3195 169.943 67.6945 169.299 67.9445C168.659 68.1983 167.922 68.3252 167.088 68.3252ZM167.14 62.9274C167.53 62.9274 167.859 62.8308 168.128 62.6377C168.401 62.4407 168.609 62.1604 168.753 61.7967C168.901 61.4293 168.975 60.9899 168.975 60.4786C168.975 59.9672 168.903 59.524 168.759 59.149C168.615 58.7702 168.407 58.4767 168.134 58.2683C167.861 58.06 167.53 57.9558 167.14 57.9558C166.742 57.9558 166.407 58.0638 166.134 58.2797C165.861 58.4918 165.655 58.7873 165.515 59.1661C165.374 59.5448 165.304 59.9823 165.304 60.4786C165.304 60.9823 165.374 61.418 165.515 61.7854C165.659 62.149 165.865 62.4312 166.134 62.632C166.407 62.8289 166.742 62.9274 167.14 62.9274ZM177.259 65.0411C176.361 65.0411 175.588 64.8592 174.941 64.4956C174.297 64.1282 173.801 63.6092 173.452 62.9388C173.104 62.2645 172.929 61.4672 172.929 60.5467C172.929 59.649 173.104 58.8611 173.452 58.1831C173.801 57.5051 174.291 56.9767 174.924 56.5979C175.56 56.2191 176.306 56.0297 177.162 56.0297C177.738 56.0297 178.274 56.1225 178.77 56.3081C179.27 56.4899 179.706 56.7645 180.077 57.132C180.452 57.4994 180.744 57.9615 180.952 58.5183C181.16 59.0714 181.265 59.7191 181.265 60.4615V61.1263H173.895V59.6263H178.986C178.986 59.2778 178.91 58.9691 178.759 58.7002C178.607 58.4312 178.397 58.221 178.128 58.0695C177.863 57.9142 177.554 57.8365 177.202 57.8365C176.835 57.8365 176.509 57.9217 176.225 58.0922C175.945 58.2589 175.725 58.4842 175.566 58.7683C175.407 59.0486 175.325 59.3611 175.321 59.7058V61.132C175.321 61.5638 175.401 61.9369 175.56 62.2513C175.723 62.5657 175.952 62.8081 176.248 62.9786C176.543 63.149 176.893 63.2342 177.299 63.2342C177.568 63.2342 177.814 63.1964 178.037 63.1206C178.261 63.0448 178.452 62.9312 178.611 62.7797C178.77 62.6282 178.891 62.4426 178.975 62.2229L181.213 62.3706C181.1 62.9085 180.867 63.3782 180.515 63.7797C180.166 64.1774 179.715 64.488 179.162 64.7115C178.613 64.9312 177.979 65.0411 177.259 65.0411ZM182.844 64.8706V56.1433H185.151V57.6831H185.253C185.435 57.1717 185.738 56.7683 186.162 56.4729C186.587 56.1774 187.094 56.0297 187.685 56.0297C188.284 56.0297 188.793 56.1793 189.213 56.4786C189.634 56.774 189.914 57.1755 190.054 57.6831H190.145C190.323 57.1831 190.645 56.7835 191.111 56.4842C191.581 56.1812 192.136 56.0297 192.776 56.0297C193.59 56.0297 194.251 56.2892 194.759 56.8081C195.27 57.3233 195.526 58.0543 195.526 59.0013V64.8706H193.111V59.4786C193.111 58.9937 192.982 58.6301 192.725 58.3877C192.467 58.1452 192.145 58.024 191.759 58.024C191.32 58.024 190.977 58.1642 190.731 58.4445C190.484 58.721 190.361 59.0865 190.361 59.5411V64.8706H188.015V59.4274C188.015 58.9994 187.891 58.6585 187.645 58.4047C187.403 58.1509 187.083 58.024 186.685 58.024C186.416 58.024 186.174 58.0922 185.958 58.2286C185.746 58.3611 185.577 58.5486 185.452 58.7911C185.327 59.0297 185.265 59.31 185.265 59.632V64.8706H182.844ZM201.415 65.0411C200.517 65.0411 199.745 64.8592 199.097 64.4956C198.453 64.1282 197.957 63.6092 197.608 62.9388C197.26 62.2645 197.086 61.4672 197.086 60.5467C197.086 59.649 197.26 58.8611 197.608 58.1831C197.957 57.5051 198.447 56.9767 199.08 56.5979C199.716 56.2191 200.463 56.0297 201.319 56.0297C201.894 56.0297 202.43 56.1225 202.927 56.3081C203.427 56.4899 203.862 56.7645 204.233 57.132C204.608 57.4994 204.9 57.9615 205.108 58.5183C205.317 59.0714 205.421 59.7191 205.421 60.4615V61.1263H198.052V59.6263H203.142C203.142 59.2778 203.067 58.9691 202.915 58.7002C202.764 58.4312 202.553 58.221 202.284 58.0695C202.019 57.9142 201.711 57.8365 201.358 57.8365C200.991 57.8365 200.665 57.9217 200.381 58.0922C200.101 58.2589 199.881 58.4842 199.722 58.7683C199.563 59.0486 199.481 59.3611 199.478 59.7058V61.132C199.478 61.5638 199.557 61.9369 199.716 62.2513C199.879 62.5657 200.108 62.8081 200.404 62.9786C200.699 63.149 201.05 63.2342 201.455 63.2342C201.724 63.2342 201.97 63.1964 202.194 63.1206C202.417 63.0448 202.608 62.9312 202.767 62.7797C202.927 62.6282 203.048 62.4426 203.131 62.2229L205.37 62.3706C205.256 62.9085 205.023 63.3782 204.671 63.7797C204.322 64.1774 203.872 64.488 203.319 64.7115C202.769 64.9312 202.135 65.0411 201.415 65.0411ZM209.421 59.8252V64.8706H207V56.1433H209.307V57.6831H209.409C209.603 57.1755 209.927 56.774 210.381 56.4786C210.836 56.1793 211.387 56.0297 212.034 56.0297C212.641 56.0297 213.169 56.1623 213.62 56.4274C214.07 56.6926 214.421 57.0714 214.671 57.5638C214.921 58.0524 215.046 58.6358 215.046 59.3138V64.8706H212.625V59.7456C212.629 59.2115 212.493 58.7948 212.216 58.4956C211.94 58.1926 211.559 58.0411 211.074 58.0411C210.749 58.0411 210.461 58.1111 210.211 58.2513C209.964 58.3914 209.771 58.596 209.631 58.8649C209.495 59.1301 209.425 59.4502 209.421 59.8252ZM221.596 56.1433V57.9615H216.34V56.1433H221.596ZM217.533 54.0524H219.954V62.1888C219.954 62.4123 219.988 62.5865 220.056 62.7115C220.124 62.8327 220.219 62.918 220.34 62.9672C220.465 63.0164 220.609 63.0411 220.772 63.0411C220.885 63.0411 220.999 63.0316 221.113 63.0127C221.226 62.9899 221.313 62.9729 221.374 62.9615L221.755 64.7627C221.633 64.8005 221.463 64.8441 221.243 64.8933C221.024 64.9464 220.757 64.9786 220.442 64.9899C219.859 65.0127 219.347 64.935 218.908 64.757C218.472 64.5789 218.133 64.3024 217.891 63.9274C217.649 63.5524 217.529 63.0789 217.533 62.507V54.0524Z" fill="white"/>
<rect x="438.503" y="66.4985" width="99.4972" height="32.3944" rx="16.1972" fill="#FF53F9"/>
<path d="M458.599 88.7539H454.474V77.1175H458.633C459.804 77.1175 460.811 77.3505 461.656 77.8164C462.501 78.2785 463.15 78.9433 463.605 79.8107C464.063 80.6781 464.292 81.716 464.292 82.9244C464.292 84.1365 464.063 85.1781 463.605 86.0494C463.15 86.9206 462.497 87.5891 461.645 88.055C460.796 88.521 459.781 88.7539 458.599 88.7539ZM456.934 86.646H458.497C459.224 86.646 459.836 86.5172 460.332 86.2596C460.832 85.9982 461.207 85.5948 461.457 85.0494C461.711 84.5001 461.838 83.7918 461.838 82.9244C461.838 82.0645 461.711 81.3619 461.457 80.8164C461.207 80.271 460.834 79.8694 460.338 79.6119C459.842 79.3543 459.23 79.2255 458.503 79.2255H456.934V86.646ZM470.047 88.9244C469.149 88.9244 468.376 88.7425 467.728 88.3789C467.084 88.0115 466.588 87.4925 466.24 86.8221C465.891 86.1478 465.717 85.3505 465.717 84.43C465.717 83.5323 465.891 82.7444 466.24 82.0664C466.588 81.3884 467.079 80.86 467.711 80.4812C468.348 80.1024 469.094 79.913 469.95 79.913C470.526 79.913 471.062 80.0058 471.558 80.1914C472.058 80.3732 472.494 80.6478 472.865 81.0153C473.24 81.3827 473.531 81.8448 473.74 82.4016C473.948 82.9547 474.052 83.6024 474.052 84.3448V85.0096H466.683V83.5096H471.774C471.774 83.1611 471.698 82.8524 471.547 82.5835C471.395 82.3145 471.185 82.1043 470.916 81.9528C470.651 81.7975 470.342 81.7198 469.99 81.7198C469.622 81.7198 469.297 81.805 469.012 81.9755C468.732 82.1422 468.512 82.3675 468.353 82.6516C468.194 82.9319 468.113 83.2444 468.109 83.5891V85.0153C468.109 85.4471 468.189 85.8202 468.348 86.1346C468.511 86.449 468.74 86.6914 469.035 86.8619C469.331 87.0323 469.681 87.1175 470.086 87.1175C470.355 87.1175 470.601 87.0797 470.825 87.0039C471.048 86.9281 471.24 86.8145 471.399 86.663C471.558 86.5115 471.679 86.3259 471.762 86.1062L474.001 86.2539C473.887 86.7918 473.655 87.2615 473.302 87.663C472.954 88.0607 472.503 88.3713 471.95 88.5948C471.401 88.8145 470.766 88.9244 470.047 88.9244ZM475.632 92.0266V80.0266H478.018V81.4925H478.126C478.232 81.2577 478.386 81.0191 478.586 80.7766C478.791 80.5304 479.056 80.3259 479.382 80.163C479.711 79.9963 480.12 79.913 480.609 79.913C481.245 79.913 481.833 80.0797 482.37 80.413C482.908 80.7425 483.338 81.2406 483.66 81.9073C483.982 82.5702 484.143 83.4016 484.143 84.4016C484.143 85.3751 483.986 86.1971 483.672 86.8675C483.361 87.5342 482.937 88.0399 482.399 88.3846C481.865 88.7255 481.266 88.896 480.603 88.896C480.134 88.896 479.734 88.8183 479.405 88.663C479.079 88.5077 478.812 88.3126 478.603 88.0778C478.395 87.8391 478.236 87.5986 478.126 87.3562H478.052V92.0266H475.632ZM478.001 84.3903C478.001 84.9092 478.073 85.3619 478.217 85.7482C478.361 86.1346 478.569 86.4357 478.842 86.6516C479.115 86.8638 479.446 86.9698 479.836 86.9698C480.23 86.9698 480.564 86.8619 480.836 86.646C481.109 86.4263 481.316 86.1232 481.456 85.7369C481.6 85.3467 481.672 84.8978 481.672 84.3903C481.672 83.8865 481.601 83.4433 481.461 83.0607C481.321 82.6781 481.115 82.3789 480.842 82.163C480.569 81.9471 480.234 81.8391 479.836 81.8391C479.442 81.8391 479.109 81.9433 478.836 82.1516C478.567 82.36 478.361 82.6554 478.217 83.038C478.073 83.4206 478.001 83.8713 478.001 84.3903ZM489.7 88.9244C488.817 88.9244 488.054 88.7369 487.41 88.3619C486.77 87.9831 486.276 87.4566 485.927 86.7823C485.579 86.1043 485.405 85.3183 485.405 84.4244C485.405 83.5228 485.579 82.735 485.927 82.0607C486.276 81.3827 486.77 80.8562 487.41 80.4812C488.054 80.1024 488.817 79.913 489.7 79.913C490.583 79.913 491.344 80.1024 491.984 80.4812C492.628 80.8562 493.124 81.3827 493.473 82.0607C493.821 82.735 493.995 83.5228 493.995 84.4244C493.995 85.3183 493.821 86.1043 493.473 86.7823C493.124 87.4566 492.628 87.9831 491.984 88.3619C491.344 88.7369 490.583 88.9244 489.7 88.9244ZM489.711 87.0494C490.113 87.0494 490.448 86.9357 490.717 86.7085C490.986 86.4774 491.189 86.163 491.325 85.7653C491.465 85.3675 491.535 84.9149 491.535 84.4073C491.535 83.8997 491.465 83.4471 491.325 83.0494C491.189 82.6516 490.986 82.3372 490.717 82.1062C490.448 81.8751 490.113 81.7596 489.711 81.7596C489.306 81.7596 488.965 81.8751 488.689 82.1062C488.416 82.3372 488.209 82.6516 488.069 83.0494C487.933 83.4471 487.865 83.8997 487.865 84.4073C487.865 84.9149 487.933 85.3675 488.069 85.7653C488.209 86.163 488.416 86.4774 488.689 86.7085C488.965 86.9357 489.306 87.0494 489.711 87.0494ZM502.831 82.5153L500.615 82.6516C500.577 82.4622 500.495 82.2918 500.37 82.1403C500.245 81.985 500.081 81.8619 499.876 81.771C499.675 81.6763 499.435 81.6289 499.155 81.6289C498.78 81.6289 498.463 81.7085 498.206 81.8675C497.948 82.0228 497.819 82.2312 497.819 82.4925C497.819 82.7009 497.903 82.877 498.069 83.021C498.236 83.1649 498.522 83.2804 498.927 83.3675L500.507 83.6857C501.355 83.86 501.988 84.1403 502.405 84.5266C502.821 84.913 503.03 85.4206 503.03 86.0494C503.03 86.6213 502.861 87.1232 502.524 87.555C502.191 87.9869 501.732 88.324 501.149 88.5664C500.569 88.805 499.901 88.9244 499.143 88.9244C497.988 88.9244 497.067 88.6838 496.382 88.2028C495.7 87.7179 495.3 87.0588 495.183 86.2255L497.564 86.1005C497.636 86.4528 497.81 86.7217 498.086 86.9073C498.363 87.0891 498.717 87.18 499.149 87.18C499.573 87.18 499.914 87.0986 500.172 86.9357C500.433 86.7691 500.566 86.555 500.569 86.2937C500.566 86.074 500.473 85.8941 500.291 85.7539C500.109 85.61 499.829 85.5001 499.45 85.4244L497.939 85.1232C497.086 84.9528 496.452 84.6573 496.035 84.2369C495.622 83.8164 495.416 83.2804 495.416 82.6289C495.416 82.0683 495.567 81.5853 495.87 81.18C496.177 80.7747 496.607 80.4622 497.16 80.2425C497.717 80.0228 498.369 79.913 499.115 79.913C500.217 79.913 501.084 80.146 501.717 80.6119C502.353 81.0778 502.725 81.7122 502.831 82.5153ZM504.554 88.7539V80.0266H506.974V88.7539H504.554ZM505.77 78.9016C505.41 78.9016 505.101 78.7823 504.843 78.5437C504.59 78.3013 504.463 78.0115 504.463 77.6744C504.463 77.341 504.59 77.055 504.843 76.8164C505.101 76.574 505.41 76.4528 505.77 76.4528C506.129 76.4528 506.436 76.574 506.69 76.8164C506.948 77.055 507.076 77.341 507.076 77.6744C507.076 78.0115 506.948 78.3013 506.69 78.5437C506.436 78.7823 506.129 78.9016 505.77 78.9016ZM513.555 80.0266V81.8448H508.299V80.0266H513.555ZM509.493 77.9357H511.913V86.0721C511.913 86.2956 511.947 86.4698 512.015 86.5948C512.084 86.716 512.178 86.8013 512.299 86.8505C512.424 86.8997 512.568 86.9244 512.731 86.9244C512.845 86.9244 512.959 86.9149 513.072 86.896C513.186 86.8732 513.273 86.8562 513.334 86.8448L513.714 88.646C513.593 88.6838 513.423 88.7274 513.203 88.7766C512.983 88.8297 512.716 88.8619 512.402 88.8732C511.818 88.896 511.307 88.8183 510.868 88.6403C510.432 88.4622 510.093 88.1857 509.851 87.8107C509.608 87.4357 509.489 86.9622 509.493 86.3903V77.9357ZM522.284 82.5153L520.068 82.6516C520.03 82.4622 519.949 82.2918 519.824 82.1403C519.699 81.985 519.534 81.8619 519.329 81.771C519.128 81.6763 518.888 81.6289 518.608 81.6289C518.233 81.6289 517.916 81.7085 517.659 81.8675C517.401 82.0228 517.272 82.2312 517.272 82.4925C517.272 82.7009 517.356 82.877 517.522 83.021C517.689 83.1649 517.975 83.2804 518.38 83.3675L519.96 83.6857C520.808 83.86 521.441 84.1403 521.858 84.5266C522.274 84.913 522.483 85.4206 522.483 86.0494C522.483 86.6213 522.314 87.1232 521.977 87.555C521.644 87.9869 521.185 88.324 520.602 88.5664C520.022 88.805 519.354 88.9244 518.596 88.9244C517.441 88.9244 516.521 88.6838 515.835 88.2028C515.153 87.7179 514.753 87.0588 514.636 86.2255L517.017 86.1005C517.089 86.4528 517.263 86.7217 517.539 86.9073C517.816 87.0891 518.17 87.18 518.602 87.18C519.026 87.18 519.367 87.0986 519.625 86.9357C519.886 86.7691 520.019 86.555 520.022 86.2937C520.019 86.074 519.926 85.8941 519.744 85.7539C519.562 85.61 519.282 85.5001 518.903 85.4244L517.392 85.1232C516.539 84.9528 515.905 84.6573 515.488 84.2369C515.075 83.8164 514.869 83.2804 514.869 82.6289C514.869 82.0683 515.021 81.5853 515.324 81.18C515.63 80.7747 516.06 80.4622 516.613 80.2425C517.17 80.0228 517.822 79.913 518.568 79.913C519.67 79.913 520.538 80.146 521.17 80.6119C521.807 81.0778 522.178 81.7122 522.284 82.5153Z" fill="white"/>
<rect x="398" y="366" width="104" height="32" rx="16" fill="#FB52A5"/>
<path d="M415.205 388H412.568L416.585 376.364H419.756L423.767 388H421.131L418.216 379.023H418.125L415.205 388ZM415.04 383.426H421.267V385.347H415.04V383.426ZM428.659 388.17C427.765 388.17 426.996 387.981 426.352 387.602C425.712 387.22 425.22 386.689 424.875 386.011C424.534 385.333 424.364 384.553 424.364 383.67C424.364 382.777 424.536 381.992 424.881 381.318C425.229 380.64 425.723 380.112 426.364 379.733C427.004 379.35 427.765 379.159 428.648 379.159C429.409 379.159 430.076 379.297 430.648 379.574C431.22 379.85 431.672 380.239 432.006 380.739C432.339 381.239 432.523 381.826 432.557 382.5H430.273C430.208 382.064 430.038 381.714 429.761 381.449C429.489 381.18 429.131 381.045 428.688 381.045C428.312 381.045 427.985 381.148 427.705 381.352C427.428 381.553 427.212 381.847 427.057 382.233C426.902 382.619 426.824 383.087 426.824 383.636C426.824 384.193 426.9 384.667 427.051 385.057C427.206 385.447 427.424 385.744 427.705 385.949C427.985 386.153 428.312 386.256 428.688 386.256C428.964 386.256 429.212 386.199 429.432 386.085C429.655 385.972 429.839 385.807 429.983 385.591C430.131 385.371 430.227 385.108 430.273 384.801H432.557C432.519 385.468 432.337 386.055 432.011 386.562C431.689 387.066 431.244 387.46 430.676 387.744C430.108 388.028 429.436 388.17 428.659 388.17ZM436.595 388.165C436.038 388.165 435.542 388.068 435.107 387.875C434.671 387.678 434.326 387.388 434.072 387.006C433.822 386.619 433.697 386.138 433.697 385.562C433.697 385.078 433.786 384.67 433.964 384.341C434.143 384.011 434.385 383.746 434.692 383.545C434.999 383.345 435.347 383.193 435.737 383.091C436.131 382.989 436.544 382.917 436.976 382.875C437.483 382.822 437.893 382.773 438.203 382.727C438.514 382.678 438.739 382.606 438.879 382.511C439.019 382.417 439.089 382.277 439.089 382.091V382.057C439.089 381.697 438.976 381.419 438.749 381.222C438.525 381.025 438.207 380.926 437.794 380.926C437.358 380.926 437.012 381.023 436.754 381.216C436.497 381.405 436.326 381.644 436.243 381.932L434.004 381.75C434.118 381.22 434.341 380.761 434.675 380.375C435.008 379.985 435.438 379.686 435.964 379.477C436.495 379.265 437.108 379.159 437.805 379.159C438.29 379.159 438.754 379.216 439.197 379.33C439.644 379.443 440.04 379.619 440.385 379.858C440.733 380.097 441.008 380.403 441.209 380.778C441.41 381.15 441.51 381.595 441.51 382.114V388H439.214V386.79H439.146C439.006 387.062 438.819 387.303 438.584 387.511C438.349 387.716 438.067 387.877 437.737 387.994C437.408 388.108 437.027 388.165 436.595 388.165ZM437.288 386.494C437.644 386.494 437.959 386.424 438.232 386.284C438.504 386.14 438.718 385.947 438.874 385.705C439.029 385.462 439.107 385.187 439.107 384.881V383.955C439.031 384.004 438.927 384.049 438.794 384.091C438.665 384.129 438.519 384.165 438.357 384.199C438.194 384.229 438.031 384.258 437.868 384.284C437.705 384.307 437.557 384.328 437.425 384.347C437.141 384.388 436.893 384.455 436.68 384.545C436.468 384.636 436.304 384.759 436.186 384.915C436.069 385.066 436.01 385.256 436.01 385.483C436.01 385.812 436.129 386.064 436.368 386.239C436.61 386.409 436.917 386.494 437.288 386.494ZM446.604 388.142C445.941 388.142 445.34 387.972 444.803 387.631C444.268 387.286 443.844 386.78 443.53 386.114C443.219 385.443 443.064 384.621 443.064 383.648C443.064 382.648 443.225 381.816 443.547 381.153C443.869 380.487 444.297 379.989 444.831 379.659C445.369 379.326 445.958 379.159 446.598 379.159C447.087 379.159 447.494 379.242 447.82 379.409C448.149 379.572 448.414 379.777 448.615 380.023C448.82 380.265 448.975 380.504 449.081 380.739H449.155V376.364H451.57V388H449.183V386.602H449.081C448.967 386.845 448.806 387.085 448.598 387.324C448.393 387.559 448.126 387.754 447.797 387.909C447.471 388.064 447.073 388.142 446.604 388.142ZM447.371 386.216C447.761 386.216 448.09 386.11 448.359 385.898C448.632 385.682 448.84 385.381 448.984 384.994C449.132 384.608 449.206 384.155 449.206 383.636C449.206 383.117 449.134 382.667 448.99 382.284C448.846 381.902 448.638 381.606 448.365 381.398C448.092 381.189 447.761 381.085 447.371 381.085C446.973 381.085 446.638 381.193 446.365 381.409C446.092 381.625 445.886 381.924 445.746 382.307C445.606 382.689 445.536 383.133 445.536 383.636C445.536 384.144 445.606 384.593 445.746 384.983C445.89 385.369 446.096 385.672 446.365 385.892C446.638 386.108 446.973 386.216 447.371 386.216ZM457.537 388.17C456.639 388.17 455.866 387.989 455.219 387.625C454.575 387.258 454.079 386.739 453.73 386.068C453.382 385.394 453.207 384.597 453.207 383.676C453.207 382.778 453.382 381.991 453.73 381.312C454.079 380.634 454.569 380.106 455.202 379.727C455.838 379.348 456.584 379.159 457.44 379.159C458.016 379.159 458.552 379.252 459.048 379.438C459.548 379.619 459.984 379.894 460.355 380.261C460.73 380.629 461.022 381.091 461.23 381.648C461.438 382.201 461.543 382.848 461.543 383.591V384.256H454.173V382.756H459.264C459.264 382.407 459.188 382.098 459.037 381.83C458.885 381.561 458.675 381.35 458.406 381.199C458.141 381.044 457.832 380.966 457.48 380.966C457.113 380.966 456.787 381.051 456.503 381.222C456.223 381.388 456.003 381.614 455.844 381.898C455.685 382.178 455.603 382.491 455.599 382.835V384.261C455.599 384.693 455.679 385.066 455.838 385.381C456.001 385.695 456.23 385.938 456.526 386.108C456.821 386.278 457.171 386.364 457.577 386.364C457.846 386.364 458.092 386.326 458.315 386.25C458.539 386.174 458.73 386.061 458.889 385.909C459.048 385.758 459.17 385.572 459.253 385.352L461.491 385.5C461.378 386.038 461.145 386.508 460.793 386.909C460.444 387.307 459.993 387.617 459.44 387.841C458.891 388.061 458.257 388.17 457.537 388.17ZM463.122 388V379.273H465.429V380.812H465.531C465.713 380.301 466.016 379.898 466.44 379.602C466.865 379.307 467.372 379.159 467.963 379.159C468.562 379.159 469.071 379.309 469.491 379.608C469.912 379.903 470.192 380.305 470.332 380.812H470.423C470.601 380.312 470.923 379.913 471.389 379.614C471.859 379.311 472.414 379.159 473.054 379.159C473.868 379.159 474.529 379.419 475.037 379.938C475.548 380.453 475.804 381.184 475.804 382.131V388H473.389V382.608C473.389 382.123 473.26 381.759 473.003 381.517C472.745 381.275 472.423 381.153 472.037 381.153C471.598 381.153 471.255 381.294 471.009 381.574C470.762 381.85 470.639 382.216 470.639 382.67V388H468.293V382.557C468.293 382.129 468.17 381.788 467.923 381.534C467.681 381.28 467.361 381.153 466.963 381.153C466.694 381.153 466.452 381.222 466.236 381.358C466.024 381.491 465.855 381.678 465.73 381.92C465.605 382.159 465.543 382.439 465.543 382.761V388H463.122ZM478.898 391.273C478.591 391.273 478.303 391.248 478.034 391.199C477.769 391.153 477.549 391.095 477.375 391.023L477.92 389.216C478.205 389.303 478.46 389.35 478.688 389.358C478.919 389.366 479.117 389.313 479.284 389.199C479.455 389.085 479.593 388.892 479.699 388.619L479.841 388.25L476.71 379.273H479.256L481.062 385.682H481.153L482.977 379.273H485.54L482.148 388.943C481.985 389.413 481.763 389.822 481.483 390.17C481.206 390.523 480.856 390.794 480.432 390.983C480.008 391.176 479.496 391.273 478.898 391.273Z" fill="white"/>
<defs>
<clipPath id="clip0_1773_1171">
<rect width="37.0222" height="37.0222" fill="white" transform="translate(141.5 184.507)"/>
</clipPath>
</defs>
</svg>
