<svg width="600" height="450" viewBox="0 0 600 450" fill="none" xmlns="http://www.w3.org/2000/svg">
<g clip-path="url(#clip0_1773_1216)">
<g clip-path="url(#clip1_1773_1216)">
<path d="M973.621 -41.7598H134.38C123.256 -41.7598 114.238 -32.7338 114.238 -21.5998V381.6C114.238 392.734 123.256 401.76 134.38 401.76H973.621C984.745 401.76 993.762 392.734 993.762 381.6V-21.5998C993.762 -32.7338 984.745 -41.7598 973.621 -41.7598Z" fill="#0D0E12" stroke="#2B2B2B" stroke-width="4"/>
<path d="M969.145 58.48H199.281" stroke="#323232"/>
<path d="M969.145 148.08H199.281" stroke="#323232"/>
<path d="M969.145 237.68H199.281" stroke="#323232"/>
<path d="M969.145 327.28H199.281" stroke="#323232"/>
<path d="M337.482 175.605C288.629 175.605 219.293 311.6 199.281 311.6V327.84H969.028V116.279C922.53 116.279 857.786 184.001 812.466 184.001C767.145 184.001 702.401 122.435 702.401 122.435C702.401 122.435 657.08 80.4588 620 67.5862C582.919 54.7136 495.221 222.059 449.9 222.059C404.58 222.059 386.333 175.605 337.482 175.605Z" fill="url(#paint0_linear_1773_1216)"/>
<path d="M201.519 312.16C221.533 312.16 288.642 175.85 337.501 175.85C386.361 175.85 404.609 222.409 449.937 222.409C495.265 222.409 582.977 54.6862 620.062 67.5878C657.149 80.489 702.477 122.561 702.477 122.561C702.477 122.561 767.23 184.265 812.557 184.265C857.885 184.265 922.639 116.389 969.144 116.389" stroke="#7B46E5" stroke-width="4" stroke-linecap="round"/>
<path d="M557.106 364.8V363.521L560.495 360.194C560.82 359.866 561.091 359.575 561.307 359.321C561.523 359.067 561.685 358.82 561.792 358.581C561.901 358.342 561.955 358.088 561.955 357.818C561.955 357.509 561.885 357.244 561.745 357.025C561.605 356.802 561.413 356.631 561.168 356.51C560.924 356.389 560.645 356.328 560.334 356.328C560.013 356.328 559.731 356.395 559.489 356.529C559.248 356.66 559.061 356.846 558.927 357.088C558.797 357.33 558.732 357.617 558.732 357.951H557.048C557.048 357.331 557.19 356.791 557.473 356.333C557.756 355.875 558.146 355.52 558.641 355.269C559.14 355.018 559.712 354.891 560.358 354.891C561.012 354.891 561.588 355.014 562.083 355.26C562.58 355.504 562.964 355.84 563.238 356.267C563.514 356.692 563.652 357.179 563.652 357.727C563.652 358.092 563.583 358.452 563.443 358.806C563.303 359.158 563.057 359.549 562.703 359.979C562.354 360.41 561.863 360.929 561.231 361.54L559.547 363.253V363.32H563.801V364.8H557.106ZM569.324 364.986C568.539 364.986 567.865 364.788 567.302 364.39C566.743 363.989 566.312 363.411 566.01 362.657C565.711 361.9 565.561 360.989 565.561 359.922C565.564 358.856 565.716 357.95 566.014 357.202C566.316 356.45 566.747 355.878 567.307 355.484C567.87 355.09 568.542 354.891 569.324 354.891C570.105 354.891 570.778 355.09 571.341 355.484C571.904 355.878 572.334 356.45 572.633 357.202C572.935 357.952 573.086 358.859 573.086 359.922C573.086 360.991 572.935 361.905 572.633 362.662C572.334 363.416 571.904 363.991 571.341 364.39C570.781 364.788 570.109 364.986 569.324 364.986ZM569.324 363.492C569.934 363.492 570.415 363.192 570.769 362.59C571.125 361.985 571.303 361.096 571.303 359.922C571.303 359.146 571.222 358.493 571.06 357.966C570.898 357.437 570.668 357.039 570.373 356.772C570.077 356.502 569.727 356.366 569.324 356.366C568.717 356.366 568.237 356.669 567.884 357.273C567.531 357.875 567.353 358.757 567.349 359.922C567.346 360.702 567.424 361.357 567.583 361.889C567.745 362.42 567.975 362.821 568.27 363.091C568.566 363.358 568.917 363.492 569.324 363.492ZM578.911 355.026V364.8H577.142V356.748H577.084L574.801 358.209V356.586L577.228 355.026H578.911ZM585.049 354.891C585.517 354.895 585.971 354.977 586.413 355.14C586.859 355.299 587.258 355.56 587.615 355.923C587.971 356.282 588.254 356.764 588.463 357.369C588.674 357.973 588.778 358.721 588.778 359.612C588.781 360.452 588.693 361.202 588.512 361.864C588.334 362.523 588.077 363.08 587.744 363.535C587.409 363.99 587.008 364.337 586.538 364.576C586.067 364.814 585.537 364.933 584.95 364.933C584.332 364.933 583.786 364.812 583.309 364.57C582.835 364.33 582.452 363.998 582.16 363.578C581.867 363.158 581.688 362.678 581.621 362.137H583.362C583.45 362.525 583.632 362.833 583.905 363.063C584.181 363.289 584.53 363.401 584.95 363.401C585.627 363.401 586.148 363.108 586.513 362.518C586.879 361.929 587.061 361.112 587.061 360.066H586.995C586.839 360.346 586.637 360.588 586.389 360.79C586.142 360.991 585.86 361.145 585.545 361.254C585.234 361.362 584.903 361.416 584.554 361.416C583.982 361.416 583.466 361.28 583.008 361.005C582.554 360.732 582.193 360.357 581.926 359.88C581.662 359.401 581.529 358.856 581.526 358.242C581.526 357.606 581.672 357.035 581.964 356.529C582.26 356.02 582.672 355.619 583.2 355.326C583.727 355.03 584.343 354.886 585.049 354.891ZM585.054 356.324C584.71 356.324 584.401 356.408 584.124 356.577C583.851 356.741 583.635 356.968 583.476 357.254C583.321 357.538 583.242 357.854 583.242 358.204C583.246 358.55 583.323 358.866 583.476 359.149C583.632 359.432 583.843 359.657 584.111 359.821C584.38 359.987 584.689 360.07 585.035 360.07C585.292 360.07 585.533 360.021 585.755 359.922C585.978 359.824 586.172 359.687 586.337 359.511C586.505 359.333 586.636 359.132 586.728 358.905C586.823 358.68 586.869 358.441 586.867 358.19C586.867 357.856 586.787 357.547 586.628 357.263C586.472 356.98 586.258 356.753 585.984 356.581C585.714 356.41 585.404 356.324 585.054 356.324Z" fill="white"/>
<path d="M467.587 364.8V363.521L470.977 360.195C471.301 359.867 471.572 359.575 471.788 359.321C472.004 359.067 472.166 358.821 472.274 358.581C472.382 358.342 472.436 358.088 472.436 357.818C472.436 357.509 472.367 357.245 472.227 357.025C472.087 356.802 471.894 356.631 471.649 356.51C471.405 356.389 471.127 356.329 470.816 356.329C470.495 356.329 470.213 356.396 469.971 356.529C469.729 356.66 469.542 356.846 469.408 357.088C469.278 357.33 469.213 357.618 469.213 357.951H467.529C467.529 357.331 467.671 356.791 467.955 356.333C468.238 355.875 468.627 355.52 469.123 355.269C469.622 355.018 470.194 354.892 470.839 354.892C471.494 354.892 472.069 355.015 472.565 355.26C473.062 355.504 473.445 355.84 473.72 356.267C473.996 356.693 474.134 357.18 474.134 357.727C474.134 358.093 474.064 358.452 473.924 358.806C473.784 359.159 473.538 359.55 473.185 359.98C472.836 360.41 472.344 360.929 471.712 361.54L470.028 363.253V363.321H474.282V364.8H467.587ZM479.806 364.986C479.02 364.986 478.347 364.788 477.784 364.39C477.224 363.989 476.793 363.411 476.491 362.658C476.192 361.901 476.043 360.989 476.043 359.923C476.046 358.856 476.197 357.95 476.496 357.202C476.798 356.451 477.229 355.878 477.788 355.484C478.351 355.09 479.024 354.892 479.806 354.892C480.587 354.892 481.259 355.09 481.822 355.484C482.385 355.878 482.816 356.451 483.115 357.202C483.417 357.953 483.568 358.86 483.568 359.923C483.568 360.991 483.417 361.905 483.115 362.662C482.816 363.416 482.385 363.992 481.822 364.39C481.263 364.788 480.59 364.986 479.806 364.986ZM479.806 363.492C480.416 363.492 480.897 363.192 481.25 362.59C481.606 361.986 481.784 361.096 481.784 359.923C481.784 359.146 481.704 358.494 481.541 357.966C481.379 357.437 481.15 357.04 480.854 356.772C480.559 356.502 480.209 356.367 479.806 356.367C479.198 356.367 478.718 356.669 478.366 357.274C478.012 357.875 477.834 358.758 477.831 359.923C477.827 360.702 477.906 361.357 478.065 361.889C478.227 362.42 478.456 362.821 478.752 363.091C479.047 363.359 479.398 363.492 479.806 363.492ZM489.392 355.026V364.8H487.623V356.749H487.566L485.282 358.209V356.586L487.709 355.026H489.392ZM495.611 364.933C494.903 364.933 494.273 364.815 493.724 364.576C493.176 364.338 492.748 364.011 492.436 363.597C492.128 363.181 491.975 362.708 491.978 362.181C491.975 361.77 492.064 361.392 492.246 361.049C492.427 360.706 492.672 360.419 492.98 360.19C493.292 359.957 493.638 359.81 494.019 359.746V359.68C493.517 359.568 493.11 359.311 492.798 358.91C492.491 358.507 492.337 358.04 492.341 357.512C492.337 357.01 492.477 356.56 492.76 356.166C493.043 355.772 493.432 355.462 493.924 355.235C494.416 355.007 494.979 354.892 495.611 354.892C496.238 354.892 496.796 355.007 497.285 355.235C497.779 355.462 498.166 355.772 498.449 356.166C498.736 356.56 498.879 357.01 498.879 357.512C498.879 358.04 498.721 358.507 498.407 358.91C498.094 359.311 497.693 359.568 497.2 359.68V359.746C497.581 359.81 497.924 359.957 498.23 360.19C498.539 360.419 498.783 360.706 498.964 361.049C499.149 361.392 499.24 361.77 499.24 362.181C499.24 362.708 499.085 363.181 498.774 363.597C498.461 364.011 498.033 364.338 497.486 364.576C496.942 364.815 496.317 364.933 495.611 364.933ZM495.611 363.569C495.977 363.569 496.295 363.507 496.566 363.382C496.836 363.256 497.046 363.078 497.195 362.848C497.345 362.62 497.421 362.355 497.424 362.056C497.421 361.744 497.34 361.469 497.18 361.23C497.025 360.989 496.811 360.8 496.537 360.662C496.267 360.525 495.958 360.457 495.611 360.457C495.262 360.457 494.951 360.525 494.677 360.662C494.404 360.8 494.188 360.989 494.029 361.23C493.874 361.469 493.796 361.744 493.8 362.056C493.796 362.355 493.87 362.62 494.019 362.848C494.169 363.074 494.378 363.25 494.649 363.378C494.922 363.506 495.243 363.569 495.611 363.569ZM495.611 359.116C495.911 359.116 496.174 359.056 496.404 358.935C496.635 358.814 496.819 358.645 496.952 358.429C497.085 358.212 497.153 357.963 497.157 357.679C497.153 357.399 497.087 357.154 496.956 356.945C496.827 356.731 496.645 356.567 496.413 356.453C496.181 356.335 495.914 356.276 495.611 356.276C495.304 356.276 495.032 356.335 494.797 356.453C494.564 356.567 494.383 356.731 494.253 356.945C494.125 357.154 494.064 357.399 494.067 357.679C494.064 357.963 494.128 358.212 494.257 358.429C494.392 358.641 494.574 358.81 494.806 358.935C495.042 359.056 495.31 359.116 495.611 359.116Z" fill="white"/>
<path d="M379.187 364.8V363.521L382.576 360.195C382.901 359.867 383.172 359.575 383.388 359.321C383.604 359.067 383.766 358.821 383.873 358.581C383.982 358.342 384.036 358.088 384.036 357.818C384.036 357.509 383.966 357.245 383.826 357.025C383.687 356.802 383.494 356.631 383.249 356.51C383.005 356.389 382.726 356.329 382.415 356.329C382.094 356.329 381.812 356.396 381.571 356.529C381.329 356.66 381.142 356.846 381.008 357.088C380.878 357.33 380.813 357.618 380.813 357.951H379.129C379.129 357.331 379.271 356.791 379.554 356.333C379.837 355.875 380.227 355.52 380.722 355.269C381.221 355.018 381.793 354.892 382.439 354.892C383.093 354.892 383.669 355.015 384.164 355.26C384.661 355.504 385.045 355.84 385.319 356.267C385.596 356.693 385.733 357.18 385.733 357.727C385.733 358.093 385.664 358.452 385.524 358.806C385.384 359.159 385.138 359.55 384.784 359.98C384.435 360.41 383.944 360.929 383.312 361.54L381.628 363.253V363.321H385.882V364.8H379.187ZM391.405 364.986C390.62 364.986 389.946 364.788 389.383 364.39C388.824 363.989 388.393 363.411 388.091 362.658C387.792 361.901 387.642 360.989 387.642 359.923C387.646 358.856 387.797 357.95 388.095 357.202C388.397 356.451 388.828 355.878 389.388 355.484C389.951 355.09 390.623 354.892 391.405 354.892C392.186 354.892 392.859 355.09 393.422 355.484C393.985 355.878 394.415 356.451 394.714 357.202C395.016 357.953 395.167 358.86 395.167 359.923C395.167 360.991 395.016 361.905 394.714 362.662C394.415 363.416 393.985 363.992 393.422 364.39C392.862 364.788 392.19 364.986 391.405 364.986ZM391.405 363.492C392.015 363.492 392.496 363.192 392.85 362.59C393.206 361.986 393.384 361.096 393.384 359.923C393.384 359.146 393.303 358.494 393.141 357.966C392.979 357.437 392.749 357.04 392.454 356.772C392.158 356.502 391.808 356.367 391.405 356.367C390.798 356.367 390.318 356.669 389.965 357.274C389.612 357.875 389.434 358.758 389.43 359.923C389.427 360.702 389.505 361.357 389.664 361.889C389.826 362.42 390.056 362.821 390.351 363.091C390.647 363.359 390.998 363.492 391.405 363.492ZM400.992 355.026V364.8H399.223V356.749H399.165L396.882 358.209V356.586L399.309 355.026H400.992ZM404.098 364.8L408.251 356.572V356.505H403.43V355.026H410.082V356.539L405.933 364.8H404.098Z" fill="white"/>
<path d="M289.669 364.8V363.521L293.058 360.195C293.382 359.867 293.653 359.575 293.869 359.321C294.085 359.067 294.247 358.821 294.355 358.581C294.463 358.342 294.517 358.088 294.517 357.818C294.517 357.509 294.448 357.245 294.308 357.025C294.168 356.802 293.976 356.631 293.73 356.51C293.487 356.389 293.208 356.329 292.897 356.329C292.576 356.329 292.294 356.396 292.052 356.529C291.81 356.66 291.623 356.846 291.489 357.088C291.359 357.33 291.294 357.618 291.294 357.951H289.61C289.61 357.331 289.752 356.791 290.036 356.333C290.319 355.875 290.708 355.52 291.204 355.269C291.703 355.018 292.275 354.892 292.92 354.892C293.575 354.892 294.15 355.015 294.646 355.26C295.143 355.504 295.526 355.84 295.801 356.267C296.077 356.693 296.215 357.18 296.215 357.727C296.215 358.093 296.145 358.452 296.005 358.806C295.865 359.159 295.619 359.55 295.266 359.98C294.917 360.41 294.425 360.929 293.793 361.54L292.109 363.253V363.321H296.363V364.8H289.669ZM301.887 364.986C301.101 364.986 300.428 364.788 299.865 364.39C299.305 363.989 298.874 363.411 298.572 362.658C298.274 361.901 298.124 360.989 298.124 359.923C298.127 358.856 298.278 357.95 298.577 357.202C298.879 356.451 299.31 355.878 299.869 355.484C300.432 355.09 301.105 354.892 301.887 354.892C302.668 354.892 303.34 355.09 303.903 355.484C304.466 355.878 304.897 356.451 305.196 357.202C305.498 357.953 305.649 358.86 305.649 359.923C305.649 360.991 305.498 361.905 305.196 362.662C304.897 363.416 304.466 363.992 303.903 364.39C303.344 364.788 302.671 364.986 301.887 364.986ZM301.887 363.492C302.497 363.492 302.978 363.192 303.331 362.59C303.687 361.986 303.865 361.096 303.865 359.923C303.865 359.146 303.785 358.494 303.622 357.966C303.46 357.437 303.231 357.04 302.935 356.772C302.64 356.502 302.29 356.367 301.887 356.367C301.279 356.367 300.799 356.669 300.447 357.274C300.093 357.875 299.915 358.758 299.912 359.923C299.908 360.702 299.987 361.357 300.146 361.889C300.308 362.42 300.537 362.821 300.833 363.091C301.128 363.359 301.479 363.492 301.887 363.492ZM311.473 355.026V364.8H309.704V356.749H309.647L307.363 358.209V356.586L309.79 355.026H311.473ZM317.798 364.933C317.331 364.93 316.874 364.85 316.429 364.69C315.985 364.528 315.584 364.266 315.227 363.903C314.871 363.537 314.588 363.052 314.379 362.447C314.169 361.84 314.066 361.087 314.069 360.19C314.069 359.353 314.158 358.607 314.336 357.951C314.515 357.296 314.77 356.742 315.104 356.29C315.438 355.836 315.839 355.489 316.311 355.25C316.784 355.011 317.313 354.892 317.898 354.892C318.512 354.892 319.055 355.013 319.529 355.254C320.005 355.496 320.39 355.828 320.682 356.248C320.976 356.665 321.157 357.135 321.226 357.66H319.486C319.397 357.285 319.214 356.986 318.938 356.763C318.664 356.537 318.318 356.424 317.898 356.424C317.221 356.424 316.7 356.718 316.334 357.307C315.971 357.895 315.789 358.704 315.786 359.731H315.853C316.008 359.451 316.21 359.211 316.458 359.011C316.706 358.81 316.985 358.656 317.297 358.548C317.612 358.436 317.944 358.38 318.293 358.38C318.866 358.38 319.38 358.518 319.834 358.791C320.292 359.065 320.654 359.442 320.921 359.923C321.188 360.4 321.32 360.947 321.317 361.565C321.32 362.207 321.174 362.784 320.878 363.297C320.583 363.806 320.171 364.207 319.643 364.5C319.116 364.792 318.5 364.937 317.798 364.933ZM317.789 363.502C318.134 363.502 318.444 363.418 318.719 363.249C318.992 363.08 319.208 362.853 319.366 362.567C319.525 362.28 319.604 361.959 319.6 361.603C319.604 361.252 319.528 360.936 319.371 360.653C319.219 360.37 319.007 360.146 318.738 359.98C318.467 359.814 318.159 359.731 317.812 359.731C317.555 359.731 317.314 359.78 317.093 359.88C316.87 359.979 316.675 360.115 316.511 360.29C316.345 360.461 316.214 360.662 316.119 360.891C316.027 361.118 315.979 361.36 315.976 361.617C315.979 361.958 316.059 362.27 316.214 362.557C316.371 362.844 316.585 363.072 316.859 363.245C317.132 363.416 317.442 363.502 317.789 363.502Z" fill="white"/>
<path d="M200.149 364.8V363.521L203.539 360.195C203.864 359.867 204.134 359.575 204.35 359.321C204.566 359.067 204.728 358.821 204.836 358.581C204.945 358.342 204.999 358.088 204.999 357.818C204.999 357.509 204.929 357.245 204.789 357.025C204.649 356.802 204.457 356.631 204.212 356.51C203.967 356.389 203.689 356.329 203.377 356.329C203.056 356.329 202.775 356.396 202.533 356.529C202.292 356.66 202.104 356.846 201.971 357.088C201.84 357.33 201.775 357.618 201.775 357.951H200.092C200.092 357.331 200.233 356.791 200.516 356.333C200.799 355.875 201.189 355.52 201.684 355.269C202.184 355.018 202.756 354.892 203.401 354.892C204.056 354.892 204.631 355.015 205.127 355.26C205.623 355.504 206.008 355.84 206.281 356.267C206.558 356.693 206.696 357.18 206.696 357.727C206.696 358.093 206.626 358.452 206.486 358.806C206.346 359.159 206.1 359.55 205.747 359.98C205.397 360.41 204.906 360.929 204.274 361.54L202.59 363.253V363.321H206.844V364.8H200.149ZM212.367 364.986C211.582 364.986 210.908 364.788 210.345 364.39C209.786 363.989 209.355 363.411 209.053 362.658C208.754 361.901 208.605 360.989 208.605 359.923C208.608 358.856 208.759 357.95 209.058 357.202C209.36 356.451 209.791 355.878 210.35 355.484C210.913 355.09 211.585 354.892 212.367 354.892C213.149 354.892 213.822 355.09 214.384 355.484C214.947 355.878 215.378 356.451 215.676 357.202C215.979 357.953 216.13 358.86 216.13 359.923C216.13 360.991 215.979 361.905 215.676 362.662C215.378 363.416 214.947 363.992 214.384 364.39C213.825 364.788 213.152 364.986 212.367 364.986ZM212.367 363.492C212.978 363.492 213.459 363.192 213.812 362.59C214.168 361.986 214.346 361.096 214.346 359.923C214.346 359.146 214.265 358.494 214.103 357.966C213.941 357.437 213.712 357.04 213.416 356.772C213.121 356.502 212.771 356.367 212.367 356.367C211.76 356.367 211.28 356.669 210.927 357.274C210.574 357.875 210.396 358.758 210.393 359.923C210.39 360.702 210.468 361.357 210.627 361.889C210.789 362.42 211.018 362.821 211.313 363.091C211.609 363.359 211.96 363.492 212.367 363.492ZM221.954 355.026V364.8H220.185V356.749H220.128L217.844 358.209V356.586L220.271 355.026H221.954ZM228.097 364.933C227.462 364.933 226.893 364.815 226.391 364.576C225.888 364.334 225.489 364.003 225.194 363.583C224.902 363.163 224.746 362.682 224.727 362.141H226.443C226.475 362.542 226.648 362.87 226.963 363.125C227.277 363.377 227.655 363.502 228.097 363.502C228.444 363.502 228.753 363.423 229.023 363.264C229.292 363.105 229.506 362.883 229.662 362.601C229.817 362.317 229.893 361.994 229.891 361.631C229.893 361.262 229.816 360.934 229.657 360.648C229.498 360.362 229.28 360.138 229.004 359.975C228.727 359.809 228.41 359.727 228.05 359.727C227.757 359.723 227.47 359.778 227.187 359.889C226.905 360 226.68 360.147 226.515 360.328L224.917 360.066L225.427 355.026H231.092V356.505H226.891L226.61 359.097H226.667C226.849 358.883 227.105 358.707 227.435 358.567C227.765 358.424 228.128 358.352 228.523 358.352C229.113 358.352 229.642 358.492 230.105 358.772C230.569 359.049 230.935 359.431 231.201 359.918C231.469 360.404 231.602 360.961 231.602 361.588C231.602 362.234 231.453 362.81 231.154 363.316C230.859 363.819 230.447 364.214 229.919 364.505C229.394 364.79 228.788 364.933 228.097 364.933Z" fill="white"/>
<path d="M142.87 333.542V321.324H143.652V333.542H142.87ZM145.126 325.233C145.081 324.816 144.894 324.491 144.563 324.259C144.236 324.026 143.81 323.91 143.285 323.91C142.917 323.91 142.6 323.966 142.336 324.078C142.073 324.189 141.871 324.34 141.731 324.53C141.591 324.722 141.519 324.94 141.516 325.184C141.516 325.388 141.562 325.565 141.654 325.714C141.75 325.864 141.879 325.991 142.041 326.096C142.203 326.198 142.382 326.284 142.58 326.354C142.777 326.424 142.975 326.482 143.176 326.531L144.091 326.76C144.46 326.845 144.814 326.962 145.155 327.109C145.498 327.254 145.805 327.439 146.075 327.662C146.348 327.885 146.564 328.153 146.723 328.468C146.882 328.783 146.962 329.153 146.962 329.576C146.962 330.148 146.815 330.652 146.523 331.089C146.231 331.521 145.808 331.86 145.255 332.105C144.705 332.347 144.039 332.468 143.257 332.468C142.497 332.468 141.837 332.35 141.278 332.115C140.721 331.88 140.286 331.536 139.971 331.083C139.66 330.632 139.491 330.081 139.466 329.433H141.206C141.232 329.773 141.337 330.056 141.521 330.281C141.705 330.508 141.945 330.677 142.241 330.788C142.54 330.9 142.874 330.955 143.242 330.955C143.627 330.955 143.964 330.897 144.253 330.783C144.546 330.666 144.775 330.503 144.94 330.296C145.105 330.087 145.189 329.841 145.193 329.561C145.189 329.307 145.115 329.097 144.969 328.931C144.822 328.763 144.617 328.623 144.353 328.511C144.093 328.397 143.788 328.295 143.438 328.206L142.327 327.919C141.523 327.712 140.887 327.4 140.419 326.98C139.955 326.556 139.723 325.994 139.723 325.294C139.723 324.718 139.879 324.214 140.191 323.781C140.505 323.349 140.933 323.013 141.473 322.774C142.014 322.532 142.626 322.411 143.309 322.411C144.002 322.411 144.609 322.532 145.131 322.774C145.655 323.013 146.067 323.345 146.366 323.772C146.664 324.195 146.819 324.681 146.828 325.233H145.126ZM152.322 332.506C151.537 332.506 150.863 332.308 150.3 331.91C149.74 331.509 149.31 330.931 149.008 330.177C148.709 329.42 148.559 328.509 148.559 327.442C148.563 326.376 148.714 325.47 149.012 324.722C149.314 323.97 149.745 323.398 150.305 323.004C150.867 322.609 151.54 322.411 152.322 322.411C153.104 322.411 153.776 322.609 154.339 323.004C154.901 323.398 155.332 323.97 155.631 324.722C155.933 325.472 156.084 326.379 156.084 327.442C156.084 328.511 155.933 329.425 155.631 330.182C155.332 330.936 154.901 331.511 154.339 331.91C153.779 332.308 153.107 332.506 152.322 332.506ZM152.322 331.012C152.932 331.012 153.414 330.712 153.767 330.11C154.123 329.505 154.301 328.616 154.301 327.442C154.301 326.666 154.22 326.013 154.057 325.486C153.895 324.957 153.666 324.559 153.371 324.292C153.075 324.022 152.725 323.886 152.322 323.886C151.715 323.886 151.235 324.189 150.882 324.793C150.529 325.395 150.351 326.277 150.348 327.442C150.344 328.222 150.422 328.877 150.581 329.409C150.743 329.94 150.972 330.341 151.268 330.611C151.564 330.878 151.915 331.012 152.322 331.012ZM158.639 332.425C158.35 332.425 158.102 332.323 157.895 332.119C157.689 331.916 157.587 331.668 157.59 331.375C157.587 331.089 157.689 330.844 157.895 330.64C158.102 330.436 158.35 330.334 158.639 330.334C158.919 330.334 159.162 330.436 159.369 330.64C159.578 330.844 159.685 331.089 159.688 331.375C159.685 331.569 159.634 331.745 159.536 331.904C159.44 332.063 159.313 332.191 159.154 332.286C158.998 332.379 158.827 332.425 158.639 332.425ZM164.949 332.506C164.164 332.506 163.49 332.308 162.927 331.91C162.368 331.509 161.937 330.931 161.635 330.177C161.336 329.42 161.187 328.509 161.187 327.442C161.19 326.376 161.341 325.47 161.64 324.722C161.942 323.97 162.373 323.398 162.932 323.004C163.495 322.609 164.167 322.411 164.949 322.411C165.731 322.411 166.404 322.609 166.966 323.004C167.529 323.398 167.96 323.97 168.258 324.722C168.56 325.472 168.711 326.379 168.711 327.442C168.711 328.511 168.56 329.425 168.258 330.182C167.96 330.936 167.529 331.511 166.966 331.91C166.407 332.308 165.734 332.506 164.949 332.506ZM164.949 331.012C165.559 331.012 166.041 330.712 166.394 330.11C166.75 329.505 166.928 328.616 166.928 327.442C166.928 326.666 166.847 326.013 166.685 325.486C166.523 324.957 166.294 324.559 165.998 324.292C165.703 324.022 165.353 323.886 164.949 323.886C164.342 323.886 163.862 324.189 163.509 324.793C163.156 325.395 162.978 326.277 162.975 327.442C162.972 328.222 163.05 328.877 163.209 329.409C163.371 329.94 163.6 330.341 163.895 330.611C164.191 330.878 164.542 331.012 164.949 331.012ZM174.174 332.506C173.389 332.506 172.715 332.308 172.152 331.91C171.593 331.509 171.162 330.931 170.86 330.177C170.561 329.42 170.412 328.509 170.412 327.442C170.415 326.376 170.566 325.47 170.865 324.722C171.167 323.97 171.597 323.398 172.157 323.004C172.72 322.609 173.392 322.411 174.174 322.411C174.956 322.411 175.628 322.609 176.191 323.004C176.754 323.398 177.184 323.97 177.483 324.722C177.785 325.472 177.936 326.379 177.936 327.442C177.936 328.511 177.785 329.425 177.483 330.182C177.184 330.936 176.754 331.511 176.191 331.91C175.631 332.308 174.959 332.506 174.174 332.506ZM174.174 331.012C174.784 331.012 175.266 330.712 175.619 330.11C175.975 329.505 176.153 328.616 176.153 327.442C176.153 326.666 176.072 326.013 175.91 325.486C175.748 324.957 175.519 324.559 175.223 324.292C174.927 324.022 174.578 323.886 174.174 323.886C173.567 323.886 173.087 324.189 172.734 324.793C172.381 325.395 172.203 326.277 172.2 327.442C172.197 328.222 172.275 328.877 172.434 329.409C172.596 329.94 172.825 330.341 173.12 330.611C173.416 330.878 173.767 331.012 174.174 331.012Z" fill="white"/>
<path d="M142.87 243.942V231.724H143.652V243.942H142.87ZM145.126 235.632C145.081 235.216 144.894 234.891 144.563 234.659C144.236 234.426 143.81 234.31 143.285 234.31C142.917 234.31 142.6 234.366 142.336 234.478C142.073 234.589 141.871 234.74 141.731 234.93C141.591 235.122 141.519 235.34 141.516 235.584C141.516 235.788 141.562 235.965 141.654 236.114C141.75 236.264 141.879 236.391 142.041 236.496C142.203 236.598 142.382 236.684 142.58 236.754C142.777 236.824 142.975 236.882 143.176 236.93L144.091 237.16C144.46 237.245 144.814 237.362 145.155 237.508C145.498 237.654 145.805 237.839 146.075 238.062C146.348 238.285 146.564 238.553 146.723 238.868C146.882 239.183 146.962 239.552 146.962 239.976C146.962 240.548 146.815 241.052 146.523 241.489C146.231 241.921 145.808 242.259 145.255 242.505C144.705 242.747 144.039 242.868 143.257 242.868C142.497 242.868 141.837 242.75 141.278 242.515C140.721 242.28 140.286 241.936 139.971 241.483C139.66 241.032 139.491 240.481 139.466 239.832H141.206C141.232 240.173 141.337 240.456 141.521 240.681C141.705 240.908 141.945 241.077 142.241 241.188C142.54 241.3 142.874 241.355 143.242 241.355C143.627 241.355 143.964 241.297 144.253 241.183C144.546 241.066 144.775 240.903 144.94 240.696C145.105 240.486 145.189 240.241 145.193 239.961C145.189 239.707 145.115 239.496 144.969 239.331C144.822 239.163 144.617 239.023 144.353 238.911C144.093 238.796 143.788 238.695 143.438 238.606L142.327 238.319C141.523 238.112 140.887 237.8 140.419 237.38C139.955 236.956 139.723 236.394 139.723 235.694C139.723 235.118 139.879 234.614 140.191 234.181C140.505 233.749 140.933 233.413 141.473 233.174C142.014 232.932 142.626 232.811 143.309 232.811C144.002 232.811 144.609 232.932 145.131 233.174C145.655 233.413 146.067 233.745 146.366 234.172C146.664 234.595 146.819 235.081 146.828 235.632H145.126ZM152.311 242.72V241.441L155.702 238.114C156.026 237.786 156.296 237.495 156.512 237.241C156.728 236.987 156.891 236.74 156.999 236.5C157.107 236.262 157.161 236.008 157.161 235.738C157.161 235.429 157.091 235.164 156.951 234.945C156.811 234.722 156.619 234.551 156.374 234.43C156.129 234.309 155.851 234.248 155.54 234.248C155.218 234.248 154.937 234.315 154.696 234.449C154.454 234.58 154.266 234.766 154.133 235.007C154.003 235.249 153.937 235.537 153.937 235.871H152.254C152.254 235.25 152.396 234.711 152.678 234.253C152.961 233.795 153.351 233.439 153.847 233.189C154.346 232.938 154.918 232.811 155.563 232.811C156.218 232.811 156.794 232.934 157.29 233.18C157.785 233.424 158.17 233.76 158.444 234.187C158.72 234.612 158.858 235.099 158.858 235.647C158.858 236.012 158.788 236.372 158.649 236.726C158.509 237.078 158.262 237.469 157.909 237.899C157.56 238.329 157.069 238.849 156.436 239.459L154.753 241.173V241.24H159.006V242.72H152.311ZM164.315 242.853C163.679 242.853 163.11 242.734 162.608 242.496C162.106 242.254 161.707 241.922 161.411 241.502C161.119 241.082 160.963 240.602 160.944 240.061H162.66C162.692 240.462 162.865 240.79 163.18 241.044C163.495 241.296 163.873 241.422 164.315 241.422C164.661 241.422 164.97 241.342 165.24 241.183C165.51 241.024 165.723 240.802 165.879 240.52C166.035 240.237 166.111 239.913 166.108 239.55C166.111 239.182 166.033 238.854 165.874 238.568C165.715 238.281 165.497 238.057 165.221 237.895C164.944 237.729 164.626 237.646 164.267 237.646C163.975 237.643 163.687 237.698 163.404 237.809C163.121 237.919 162.897 238.066 162.732 238.248L161.134 237.986L161.645 232.946H167.31V234.425H163.109L162.827 237.017H162.884C163.066 236.803 163.322 236.627 163.652 236.487C163.983 236.344 164.345 236.272 164.739 236.272C165.331 236.272 165.858 236.412 166.322 236.692C166.787 236.969 167.152 237.351 167.419 237.838C167.686 238.324 167.82 238.88 167.82 239.508C167.82 240.154 167.67 240.73 167.371 241.236C167.076 241.739 166.664 242.134 166.137 242.424C165.612 242.71 165.005 242.853 164.315 242.853ZM173.295 242.906C172.51 242.906 171.836 242.707 171.274 242.31C170.714 241.909 170.283 241.331 169.981 240.577C169.683 239.82 169.533 238.908 169.533 237.842C169.536 236.776 169.687 235.87 169.986 235.122C170.288 234.37 170.719 233.798 171.278 233.404C171.841 233.009 172.513 232.811 173.295 232.811C174.077 232.811 174.75 233.009 175.312 233.404C175.875 233.798 176.306 234.37 176.605 235.122C176.907 235.872 177.058 236.779 177.058 237.842C177.058 238.911 176.907 239.825 176.605 240.582C176.306 241.335 175.875 241.911 175.312 242.31C174.753 242.707 174.081 242.906 173.295 242.906ZM173.295 241.412C173.906 241.412 174.387 241.111 174.74 240.51C175.096 239.905 175.274 239.016 175.274 237.842C175.274 237.066 175.193 236.413 175.031 235.886C174.869 235.357 174.64 234.959 174.344 234.692C174.049 234.422 173.699 234.286 173.295 234.286C172.688 234.286 172.208 234.589 171.855 235.193C171.503 235.795 171.325 236.677 171.321 237.842C171.318 238.622 171.396 239.277 171.555 239.809C171.717 240.34 171.946 240.741 172.242 241.011C172.537 241.278 172.889 241.412 173.295 241.412Z" fill="white"/>
<path d="M142.87 154.342V142.124H143.652V154.342H142.87ZM145.126 146.033C145.081 145.616 144.894 145.291 144.563 145.06C144.236 144.827 143.81 144.71 143.285 144.71C142.917 144.71 142.6 144.766 142.336 144.878C142.073 144.989 141.871 145.14 141.731 145.331C141.591 145.522 141.519 145.74 141.516 145.985C141.516 146.188 141.562 146.365 141.654 146.514C141.75 146.665 141.879 146.791 142.041 146.896C142.203 146.998 142.382 147.085 142.58 147.154C142.777 147.225 142.975 147.283 143.176 147.331L144.091 147.56C144.46 147.646 144.814 147.762 145.155 147.909C145.498 148.054 145.805 148.239 146.075 148.462C146.348 148.685 146.564 148.954 146.723 149.269C146.882 149.583 146.962 149.953 146.962 150.376C146.962 150.948 146.815 151.452 146.523 151.889C146.231 152.322 145.808 152.66 145.255 152.905C144.705 153.147 144.039 153.268 143.257 153.268C142.497 153.268 141.837 153.15 141.278 152.915C140.721 152.68 140.286 152.336 139.971 151.884C139.66 151.432 139.491 150.881 139.466 150.233H141.206C141.232 150.573 141.337 150.857 141.521 151.082C141.705 151.308 141.945 151.477 142.241 151.588C142.54 151.7 142.874 151.755 143.242 151.755C143.627 151.755 143.964 151.698 144.253 151.584C144.546 151.466 144.775 151.304 144.94 151.096C145.105 150.887 145.189 150.642 145.193 150.362C145.189 150.107 145.115 149.897 144.969 149.731C144.822 149.563 144.617 149.423 144.353 149.311C144.093 149.197 143.788 149.095 143.438 149.006L142.327 148.72C141.523 148.512 140.887 148.2 140.419 147.78C139.955 147.357 139.723 146.794 139.723 146.094C139.723 145.519 139.879 145.015 140.191 144.581C140.505 144.149 140.933 143.813 141.473 143.574C142.014 143.333 142.626 143.212 143.309 143.212C144.002 143.212 144.609 143.333 145.131 143.574C145.655 143.813 146.067 144.146 146.366 144.572C146.664 144.996 146.819 145.482 146.828 146.033H145.126ZM155.706 153.253C155.071 153.253 154.502 153.135 153.999 152.896C153.497 152.654 153.098 152.323 152.802 151.903C152.51 151.483 152.354 151.002 152.335 150.461H154.052C154.084 150.862 154.257 151.19 154.572 151.445C154.886 151.697 155.265 151.822 155.706 151.822C156.053 151.822 156.361 151.743 156.632 151.584C156.902 151.425 157.115 151.203 157.27 150.92C157.426 150.637 157.503 150.313 157.499 149.951C157.503 149.582 157.425 149.254 157.266 148.968C157.107 148.682 156.889 148.458 156.612 148.295C156.336 148.129 156.018 148.047 155.659 148.047C155.366 148.043 155.079 148.098 154.796 148.209C154.513 148.32 154.289 148.467 154.123 148.648L152.526 148.386L153.036 143.346H158.701V144.825H154.5L154.219 147.417H154.276C154.457 147.203 154.713 147.027 155.044 146.887C155.374 146.744 155.737 146.672 156.131 146.672C156.722 146.672 157.25 146.812 157.714 147.092C158.178 147.369 158.544 147.751 158.811 148.238C159.078 148.724 159.211 149.281 159.211 149.908C159.211 150.554 159.062 151.13 158.763 151.636C158.467 152.139 158.056 152.534 157.528 152.824C157.003 153.11 156.396 153.253 155.706 153.253ZM164.687 153.306C163.902 153.306 163.228 153.108 162.665 152.71C162.106 152.309 161.675 151.731 161.373 150.978C161.074 150.221 160.925 149.309 160.925 148.243C160.928 147.176 161.079 146.27 161.378 145.522C161.68 144.771 162.11 144.198 162.67 143.804C163.233 143.41 163.905 143.212 164.687 143.212C165.469 143.212 166.141 143.41 166.704 143.804C167.267 144.198 167.697 144.771 167.996 145.522C168.298 146.272 168.449 147.18 168.449 148.243C168.449 149.311 168.298 150.225 167.996 150.982C167.697 151.736 167.267 152.312 166.704 152.71C166.144 153.108 165.472 153.306 164.687 153.306ZM164.687 151.812C165.297 151.812 165.779 151.512 166.132 150.91C166.488 150.306 166.666 149.416 166.666 148.243C166.666 147.466 166.585 146.813 166.423 146.286C166.261 145.757 166.032 145.36 165.736 145.092C165.44 144.822 165.091 144.687 164.687 144.687C164.08 144.687 163.6 144.989 163.247 145.594C162.894 146.195 162.716 147.078 162.713 148.243C162.71 149.022 162.788 149.677 162.946 150.209C163.109 150.74 163.337 151.141 163.633 151.411C163.929 151.679 164.28 151.812 164.687 151.812ZM173.912 153.306C173.127 153.306 172.453 153.108 171.89 152.71C171.33 152.309 170.9 151.731 170.598 150.978C170.299 150.221 170.149 149.309 170.149 148.243C170.153 147.176 170.304 146.27 170.602 145.522C170.904 144.771 171.335 144.198 171.895 143.804C172.457 143.41 173.13 143.212 173.912 143.212C174.694 143.212 175.366 143.41 175.929 143.804C176.491 144.198 176.922 144.771 177.221 145.522C177.523 146.272 177.674 147.18 177.674 148.243C177.674 149.311 177.523 150.225 177.221 150.982C176.922 151.736 176.491 152.312 175.929 152.71C175.369 153.108 174.697 153.306 173.912 153.306ZM173.912 151.812C174.522 151.812 175.004 151.512 175.357 150.91C175.713 150.306 175.891 149.416 175.891 148.243C175.891 147.466 175.81 146.813 175.647 146.286C175.485 145.757 175.256 145.36 174.961 145.092C174.665 144.822 174.315 144.687 173.912 144.687C173.305 144.687 172.825 144.989 172.472 145.594C172.119 146.195 171.941 147.078 171.938 148.243C171.934 149.022 172.012 149.677 172.171 150.209C172.333 150.74 172.562 151.141 172.858 151.411C173.154 151.679 173.505 151.812 173.912 151.812Z" fill="white"/>
<path d="M142.87 64.7416V52.5234H143.652V64.7416H142.87ZM145.126 56.4323C145.081 56.0155 144.894 55.6909 144.563 55.4587C144.236 55.2264 143.81 55.1103 143.285 55.1103C142.917 55.1103 142.6 55.166 142.336 55.2773C142.073 55.3887 141.871 55.5398 141.731 55.7308C141.591 55.9216 141.519 56.1396 141.516 56.3846C141.516 56.5883 141.562 56.7648 141.654 56.9144C141.75 57.0639 141.879 57.1911 142.041 57.2962C142.203 57.398 142.382 57.4839 142.58 57.5539C142.777 57.6239 142.975 57.6828 143.176 57.7305L144.091 57.9596C144.46 58.0455 144.814 58.1616 145.155 58.308C145.498 58.4544 145.805 58.6389 146.075 58.8616C146.348 59.0844 146.564 59.3532 146.723 59.6682C146.882 59.9832 146.962 60.3523 146.962 60.7755C146.962 61.3483 146.815 61.8526 146.523 62.2885C146.231 62.7211 145.808 63.0601 145.255 63.305C144.705 63.5468 144.039 63.6678 143.257 63.6678C142.497 63.6678 141.837 63.5501 141.278 63.3146C140.721 63.0791 140.286 62.7355 139.971 62.2837C139.66 61.8319 139.491 61.2814 139.466 60.6323H141.206C141.232 60.9728 141.337 61.256 141.521 61.4819C141.705 61.7078 141.945 61.8764 142.241 61.9878C142.54 62.0991 142.874 62.1548 143.242 62.1548C143.627 62.1548 143.964 62.0975 144.253 61.983C144.546 61.8652 144.775 61.703 144.94 61.4962C145.105 61.2862 145.189 61.0412 145.193 60.7612C145.189 60.5067 145.115 60.2967 144.969 60.1312C144.822 59.9626 144.617 59.8226 144.353 59.7112C144.093 59.5967 143.788 59.4948 143.438 59.4057L142.327 59.1193C141.523 58.9126 140.887 58.5991 140.419 58.1791C139.955 57.756 139.723 57.1944 139.723 56.4944C139.723 55.9185 139.879 55.4142 140.191 54.9814C140.505 54.5487 140.933 54.213 141.473 53.9744C142.014 53.7326 142.626 53.6116 143.309 53.6116C144.002 53.6116 144.609 53.7326 145.131 53.9744C145.655 54.213 146.067 54.5455 146.366 54.9719C146.664 55.395 146.819 55.8819 146.828 56.4323H145.126ZM155.888 63.6534C155.42 63.6503 154.964 63.5691 154.519 63.4101C154.074 63.2478 153.673 62.9852 153.317 62.6226C152.961 62.2567 152.678 61.7714 152.469 61.1668C152.259 60.5591 152.156 59.8067 152.159 58.9093C152.159 58.0726 152.248 57.3264 152.426 56.6709C152.604 56.0155 152.86 55.4619 153.194 55.0101C153.527 54.555 153.929 54.2083 154.4 53.9696C154.874 53.7309 155.403 53.6116 155.988 53.6116C156.601 53.6116 157.145 53.7326 157.619 53.9744C158.095 54.2162 158.48 54.5471 158.772 54.9671C159.065 55.3839 159.246 55.8548 159.316 56.3798H157.576C157.487 56.0044 157.304 55.7052 157.027 55.4826C156.754 55.2567 156.407 55.1437 155.988 55.1437C155.311 55.1437 154.789 55.438 154.424 56.0267C154.061 56.6152 153.879 57.4234 153.875 58.4512H153.942C154.098 58.1712 154.3 57.9309 154.548 57.7305C154.796 57.5301 155.075 57.3757 155.387 57.2675C155.702 57.1562 156.034 57.1005 156.384 57.1005C156.956 57.1005 157.469 57.2373 157.924 57.5109C158.382 57.7846 158.744 58.1616 159.011 58.6421C159.278 59.1193 159.41 59.6667 159.407 60.2839C159.41 60.9267 159.264 61.5042 158.968 62.0164C158.672 62.5255 158.261 62.9264 157.733 63.2191C157.205 63.5119 156.59 63.6567 155.888 63.6534ZM155.878 62.2216C156.225 62.2216 156.535 62.1373 156.808 61.9687C157.081 61.8001 157.298 61.5726 157.456 61.2862C157.615 60.9998 157.693 60.6785 157.69 60.3221C157.693 59.9721 157.617 59.6555 157.461 59.3723C157.309 59.0891 157.097 58.8648 156.827 58.6993C156.557 58.5339 156.249 58.4512 155.902 58.4512C155.644 58.4512 155.404 58.5005 155.182 58.5991C154.959 58.6978 154.766 58.8346 154.6 59.0096C154.435 59.1814 154.304 59.3819 154.209 59.6109C154.117 59.8368 154.069 60.0787 154.066 60.3364C154.069 60.6768 154.149 60.9903 154.304 61.2767C154.46 61.563 154.675 61.7921 154.948 61.9639C155.222 62.1357 155.532 62.2216 155.878 62.2216ZM164.897 63.706C164.112 63.706 163.438 63.5071 162.875 63.1093C162.315 62.7085 161.885 62.1309 161.583 61.3768C161.284 60.6196 161.134 59.708 161.134 58.6421C161.138 57.5762 161.289 56.6693 161.587 55.9216C161.889 55.1708 162.32 54.598 162.88 54.2034C163.442 53.8089 164.115 53.6116 164.897 53.6116C165.679 53.6116 166.351 53.8089 166.914 54.2034C167.476 54.598 167.907 55.1708 168.206 55.9216C168.508 56.6726 168.659 57.5793 168.659 58.6421C168.659 59.7111 168.508 60.6244 168.206 61.3816C167.907 62.1357 167.476 62.7116 166.914 63.1093C166.354 63.5071 165.682 63.706 164.897 63.706ZM164.897 62.2121C165.507 62.2121 165.989 61.9114 166.342 61.3101C166.698 60.7055 166.876 59.8162 166.876 58.6421C166.876 57.8657 166.795 57.2134 166.632 56.6852C166.47 56.157 166.241 55.7593 165.946 55.4921C165.65 55.2216 165.3 55.0864 164.897 55.0864C164.29 55.0864 163.809 55.3887 163.457 55.9932C163.104 56.5946 162.926 57.4775 162.923 58.6421C162.919 59.4216 162.997 60.077 163.156 60.6085C163.318 61.1398 163.547 61.5408 163.843 61.8112C164.138 62.0785 164.49 62.2121 164.897 62.2121ZM174.122 63.706C173.336 63.706 172.662 63.5071 172.1 63.1093C171.54 62.7085 171.109 62.1309 170.808 61.3768C170.509 60.6196 170.359 59.708 170.359 58.6421C170.362 57.5762 170.513 56.6693 170.812 55.9216C171.114 55.1708 171.545 54.598 172.105 54.2034C172.667 53.8089 173.339 53.6116 174.122 53.6116C174.904 53.6116 175.576 53.8089 176.139 54.2034C176.701 54.598 177.132 55.1708 177.431 55.9216C177.733 56.6726 177.884 57.5793 177.884 58.6421C177.884 59.7111 177.733 60.6244 177.431 61.3816C177.132 62.1357 176.701 62.7116 176.139 63.1093C175.579 63.5071 174.907 63.706 174.122 63.706ZM174.122 62.2121C174.732 62.2121 175.214 61.9114 175.566 61.3101C175.922 60.7055 176.1 59.8162 176.1 58.6421C176.1 57.8657 176.019 57.2134 175.857 56.6852C175.695 56.157 175.466 55.7593 175.171 55.4921C174.875 55.2216 174.525 55.0864 174.122 55.0864C173.514 55.0864 173.034 55.3887 172.682 55.9932C172.329 56.5946 172.151 57.4775 172.147 58.6421C172.144 59.4216 172.222 60.077 172.381 60.6085C172.543 61.1398 172.772 61.5408 173.068 61.8112C173.363 62.0785 173.715 62.2121 174.122 62.2121Z" fill="white"/>
</g>
</g>
<defs>
<linearGradient id="paint0_linear_1773_1216" x1="586.451" y1="66.8799" x2="586.451" y2="327.84" gradientUnits="userSpaceOnUse">
<stop stop-color="#7B46E5" stop-opacity="0.32"/>
<stop offset="1" stop-color="#7B46E5" stop-opacity="0"/>
</linearGradient>
<clipPath id="clip0_1773_1216">
<rect width="600" height="450" rx="20" fill="white"/>
</clipPath>
<clipPath id="clip1_1773_1216">
<rect width="884" height="448" fill="white" transform="translate(112 -44)"/>
</clipPath>
</defs>
</svg>
