<svg width="80" height="80" viewBox="0 0 80 80" fill="none" xmlns="http://www.w3.org/2000/svg">
<circle cx="40" cy="40" r="40" fill="#725CFF" fill-opacity="0.32"/>
<circle cx="40" cy="40" r="30" fill="#725CFF"/>
<g clip-path="url(#clip0_1903_778)">
<path d="M48.7927 39.3024L35.9928 32.1024C35.7448 31.9632 35.4424 31.9664 35.1976 32.1088C34.9512 32.2528 34.8008 32.5152 34.8008 32.8V47.2C34.8008 47.4848 34.9512 47.7472 35.1976 47.8912C35.3224 47.9632 35.4616 48 35.6008 48C35.7352 48 35.8712 47.9664 35.9928 47.8976L48.7927 40.6976C49.0439 40.5552 49.2007 40.2896 49.2007 40C49.2007 39.7104 49.0439 39.4448 48.7927 39.3024Z" fill="#171717"/>
</g>
<defs>
<clipPath id="clip0_1903_778">
<rect width="16" height="16" fill="white" transform="translate(34 32)"/>
</clipPath>
</defs>
</svg>
