<svg width="1288" height="192" viewBox="0 0 1288 192" fill="none" xmlns="http://www.w3.org/2000/svg">
<path d="M156 103.667C154.386 103.667 152.869 103.36 151.45 102.747C150.031 102.135 148.796 101.304 147.746 100.254C146.696 99.2043 145.865 97.9696 145.253 96.5502C144.64 95.1307 144.333 93.6141 144.333 92.0002C144.333 90.3863 144.64 88.8696 145.253 87.4502C145.865 86.0307 146.696 84.796 147.746 83.746C148.796 82.696 150.031 81.8646 151.45 81.2517C152.869 80.6396 154.386 80.3335 156 80.3335C157.614 80.3335 159.131 80.6396 160.55 81.2517C161.969 81.8646 163.204 82.696 164.254 83.746C165.304 84.796 166.135 86.0307 166.747 87.4502C167.36 88.8696 167.667 90.3863 167.667 92.0002C167.667 93.6141 167.36 95.1307 166.747 96.5502C166.135 97.9696 165.304 99.2043 164.254 100.254C163.204 101.304 161.969 102.135 160.55 102.747C159.131 103.36 157.614 103.667 156 103.667ZM156 101.333C158.606 101.333 160.812 100.429 162.621 98.621C164.429 96.8127 165.333 94.6057 165.333 92.0002C165.333 89.3946 164.429 87.1877 162.621 85.3793C160.812 83.571 158.606 82.6668 156 82.6668C153.394 82.6668 151.187 83.571 149.379 85.3793C147.571 87.1877 146.667 89.3946 146.667 92.0002C146.667 94.6057 147.571 96.8127 149.379 98.621C151.187 100.429 153.394 101.333 156 101.333Z" fill="url(#paint0_linear_448_3)"/>
<circle cx="156" cy="92" r="4" fill="url(#paint1_linear_448_3)"/>
<path d="M481 103.667C479.386 103.667 477.869 103.36 476.45 102.747C475.031 102.135 473.796 101.304 472.746 100.254C471.696 99.2043 470.865 97.9696 470.253 96.5502C469.64 95.1307 469.333 93.6141 469.333 92.0002C469.333 90.3863 469.64 88.8696 470.253 87.4502C470.865 86.0307 471.696 84.796 472.746 83.746C473.796 82.696 475.031 81.8646 476.45 81.2517C477.869 80.6396 479.386 80.3335 481 80.3335C482.614 80.3335 484.131 80.6396 485.55 81.2517C486.969 81.8646 488.204 82.696 489.254 83.746C490.304 84.796 491.135 86.0307 491.747 87.4502C492.36 88.8696 492.667 90.3863 492.667 92.0002C492.667 93.6141 492.36 95.1307 491.747 96.5502C491.135 97.9696 490.304 99.2043 489.254 100.254C488.204 101.304 486.969 102.135 485.55 102.747C484.131 103.36 482.614 103.667 481 103.667ZM481 101.333C483.606 101.333 485.813 100.429 487.621 98.621C489.429 96.8127 490.333 94.6057 490.333 92.0002C490.333 89.3946 489.429 87.1877 487.621 85.3793C485.813 83.571 483.606 82.6668 481 82.6668C478.394 82.6668 476.188 83.571 474.379 85.3793C472.571 87.1877 471.667 89.3946 471.667 92.0002C471.667 94.6057 472.571 96.8127 474.379 98.621C476.188 100.429 478.394 101.333 481 101.333Z" fill="#D9D9D9"/>
<circle cx="481" cy="92" r="4" fill="#D9D9D9"/>
<path d="M806 103.667C804.386 103.667 802.869 103.36 801.45 102.747C800.031 102.135 798.796 101.304 797.746 100.254C796.696 99.2043 795.865 97.9696 795.253 96.5502C794.64 95.1307 794.333 93.6141 794.333 92.0002C794.333 90.3863 794.64 88.8696 795.253 87.4502C795.865 86.0307 796.696 84.796 797.746 83.746C798.796 82.696 800.031 81.8646 801.45 81.2517C802.869 80.6396 804.386 80.3335 806 80.3335C807.614 80.3335 809.131 80.6396 810.55 81.2517C811.969 81.8646 813.204 82.696 814.254 83.746C815.304 84.796 816.135 86.0307 816.747 87.4502C817.36 88.8696 817.667 90.3863 817.667 92.0002C817.667 93.6141 817.36 95.1307 816.747 96.5502C816.135 97.9696 815.304 99.2043 814.254 100.254C813.204 101.304 811.969 102.135 810.55 102.747C809.131 103.36 807.614 103.667 806 103.667ZM806 101.333C808.606 101.333 810.813 100.429 812.621 98.621C814.429 96.8127 815.333 94.6057 815.333 92.0002C815.333 89.3946 814.429 87.1877 812.621 85.3793C810.813 83.571 808.606 82.6668 806 82.6668C803.394 82.6668 801.188 83.571 799.379 85.3793C797.571 87.1877 796.667 89.3946 796.667 92.0002C796.667 94.6057 797.571 96.8127 799.379 98.621C801.188 100.429 803.394 101.333 806 101.333Z" fill="#E8F3FB"/>
<circle cx="806" cy="92" r="4" fill="#D9D9D9"/>
<path d="M1132 103.667C1130.39 103.667 1128.87 103.36 1127.45 102.747C1126.03 102.135 1124.8 101.304 1123.75 100.254C1122.7 99.2043 1121.86 97.9696 1121.25 96.5502C1120.64 95.1307 1120.33 93.6141 1120.33 92.0002C1120.33 90.3863 1120.64 88.8696 1121.25 87.4502C1121.86 86.0307 1122.7 84.796 1123.75 83.746C1124.8 82.696 1126.03 81.8646 1127.45 81.2517C1128.87 80.6396 1130.39 80.3335 1132 80.3335C1133.61 80.3335 1135.13 80.6396 1136.55 81.2517C1137.97 81.8646 1139.2 82.696 1140.25 83.746C1141.3 84.796 1142.14 86.0307 1142.75 87.4502C1143.36 88.8696 1143.67 90.3863 1143.67 92.0002C1143.67 93.6141 1143.36 95.1307 1142.75 96.5502C1142.14 97.9696 1141.3 99.2043 1140.25 100.254C1139.2 101.304 1137.97 102.135 1136.55 102.747C1135.13 103.36 1133.61 103.667 1132 103.667ZM1132 101.333C1134.61 101.333 1136.81 100.429 1138.62 98.621C1140.43 96.8127 1141.33 94.6057 1141.33 92.0002C1141.33 89.3946 1140.43 87.1877 1138.62 85.3793C1136.81 83.571 1134.61 82.6668 1132 82.6668C1129.39 82.6668 1127.19 83.571 1125.38 85.3793C1123.57 87.1877 1122.67 89.3946 1122.67 92.0002C1122.67 94.6057 1123.57 96.8127 1125.38 98.621C1127.19 100.429 1129.39 101.333 1132 101.333Z" fill="#A6A6A6"/>
<circle cx="1132" cy="92" r="4" fill="#A6A6A6"/>
<g filter="url(#filter0_d_448_3)">
<line x1="4" y1="91" x2="132" y2="91" stroke="url(#paint2_linear_448_3)" stroke-width="2"/>
</g>
<g filter="url(#filter1_d_448_3)">
<line x1="1156" y1="91" x2="1284" y2="91" stroke="#A6A6A6" stroke-width="2"/>
</g>
<g filter="url(#filter2_d_448_3)">
<line x1="156" x2="156" y2="68" stroke="url(#paint3_linear_448_3)" stroke-width="2"/>
</g>
<g filter="url(#filter3_d_448_3)">
<line x1="482" y1="116" x2="482" y2="184" stroke="#A6A6A6" stroke-width="2"/>
</g>
<g filter="url(#filter4_d_448_3)">
<line x1="807" x2="807" y2="68" stroke="#A6A6A6" stroke-width="2"/>
</g>
<g filter="url(#filter5_d_448_3)">
<line x1="1133" y1="116" x2="1133" y2="184" stroke="#A6A6A6" stroke-width="2"/>
</g>
<g filter="url(#filter6_d_448_3)">
<line x1="180" y1="91" x2="457" y2="91" stroke="url(#paint4_linear_448_3)" stroke-width="2"/>
</g>
<g filter="url(#filter7_d_448_3)">
<line x1="505" y1="91" x2="782" y2="91" stroke="#A6A6A6" stroke-width="2"/>
</g>
<g filter="url(#filter8_d_448_3)">
<line x1="830" y1="91" x2="1108" y2="91" stroke="#A6A6A6" stroke-width="2"/>
</g>
<defs>
<filter id="filter0_d_448_3" x="0" y="90" width="136" height="10" filterUnits="userSpaceOnUse" color-interpolation-filters="sRGB">
<feFlood flood-opacity="0" result="BackgroundImageFix"/>
<feColorMatrix in="SourceAlpha" type="matrix" values="0 0 0 0 0 0 0 0 0 0 0 0 0 0 0 0 0 0 127 0" result="hardAlpha"/>
<feOffset dy="4"/>
<feGaussianBlur stdDeviation="2"/>
<feComposite in2="hardAlpha" operator="out"/>
<feColorMatrix type="matrix" values="0 0 0 0 0 0 0 0 0 0 0 0 0 0 0 0 0 0 0.25 0"/>
<feBlend mode="normal" in2="BackgroundImageFix" result="effect1_dropShadow_448_3"/>
<feBlend mode="normal" in="SourceGraphic" in2="effect1_dropShadow_448_3" result="shape"/>
</filter>
<filter id="filter1_d_448_3" x="1152" y="90" width="136" height="10" filterUnits="userSpaceOnUse" color-interpolation-filters="sRGB">
<feFlood flood-opacity="0" result="BackgroundImageFix"/>
<feColorMatrix in="SourceAlpha" type="matrix" values="0 0 0 0 0 0 0 0 0 0 0 0 0 0 0 0 0 0 127 0" result="hardAlpha"/>
<feOffset dy="4"/>
<feGaussianBlur stdDeviation="2"/>
<feComposite in2="hardAlpha" operator="out"/>
<feColorMatrix type="matrix" values="0 0 0 0 0 0 0 0 0 0 0 0 0 0 0 0 0 0 0.25 0"/>
<feBlend mode="normal" in2="BackgroundImageFix" result="effect1_dropShadow_448_3"/>
<feBlend mode="normal" in="SourceGraphic" in2="effect1_dropShadow_448_3" result="shape"/>
</filter>
<filter id="filter2_d_448_3" x="151" y="0" width="10" height="76" filterUnits="userSpaceOnUse" color-interpolation-filters="sRGB">
<feFlood flood-opacity="0" result="BackgroundImageFix"/>
<feColorMatrix in="SourceAlpha" type="matrix" values="0 0 0 0 0 0 0 0 0 0 0 0 0 0 0 0 0 0 127 0" result="hardAlpha"/>
<feOffset dy="4"/>
<feGaussianBlur stdDeviation="2"/>
<feComposite in2="hardAlpha" operator="out"/>
<feColorMatrix type="matrix" values="0 0 0 0 0 0 0 0 0 0 0 0 0 0 0 0 0 0 0.25 0"/>
<feBlend mode="normal" in2="BackgroundImageFix" result="effect1_dropShadow_448_3"/>
<feBlend mode="normal" in="SourceGraphic" in2="effect1_dropShadow_448_3" result="shape"/>
</filter>
<filter id="filter3_d_448_3" x="477" y="116" width="10" height="76" filterUnits="userSpaceOnUse" color-interpolation-filters="sRGB">
<feFlood flood-opacity="0" result="BackgroundImageFix"/>
<feColorMatrix in="SourceAlpha" type="matrix" values="0 0 0 0 0 0 0 0 0 0 0 0 0 0 0 0 0 0 127 0" result="hardAlpha"/>
<feOffset dy="4"/>
<feGaussianBlur stdDeviation="2"/>
<feComposite in2="hardAlpha" operator="out"/>
<feColorMatrix type="matrix" values="0 0 0 0 0 0 0 0 0 0 0 0 0 0 0 0 0 0 0.25 0"/>
<feBlend mode="normal" in2="BackgroundImageFix" result="effect1_dropShadow_448_3"/>
<feBlend mode="normal" in="SourceGraphic" in2="effect1_dropShadow_448_3" result="shape"/>
</filter>
<filter id="filter4_d_448_3" x="802" y="0" width="10" height="76" filterUnits="userSpaceOnUse" color-interpolation-filters="sRGB">
<feFlood flood-opacity="0" result="BackgroundImageFix"/>
<feColorMatrix in="SourceAlpha" type="matrix" values="0 0 0 0 0 0 0 0 0 0 0 0 0 0 0 0 0 0 127 0" result="hardAlpha"/>
<feOffset dy="4"/>
<feGaussianBlur stdDeviation="2"/>
<feComposite in2="hardAlpha" operator="out"/>
<feColorMatrix type="matrix" values="0 0 0 0 0 0 0 0 0 0 0 0 0 0 0 0 0 0 0.25 0"/>
<feBlend mode="normal" in2="BackgroundImageFix" result="effect1_dropShadow_448_3"/>
<feBlend mode="normal" in="SourceGraphic" in2="effect1_dropShadow_448_3" result="shape"/>
</filter>
<filter id="filter5_d_448_3" x="1128" y="116" width="10" height="76" filterUnits="userSpaceOnUse" color-interpolation-filters="sRGB">
<feFlood flood-opacity="0" result="BackgroundImageFix"/>
<feColorMatrix in="SourceAlpha" type="matrix" values="0 0 0 0 0 0 0 0 0 0 0 0 0 0 0 0 0 0 127 0" result="hardAlpha"/>
<feOffset dy="4"/>
<feGaussianBlur stdDeviation="2"/>
<feComposite in2="hardAlpha" operator="out"/>
<feColorMatrix type="matrix" values="0 0 0 0 0 0 0 0 0 0 0 0 0 0 0 0 0 0 0.25 0"/>
<feBlend mode="normal" in2="BackgroundImageFix" result="effect1_dropShadow_448_3"/>
<feBlend mode="normal" in="SourceGraphic" in2="effect1_dropShadow_448_3" result="shape"/>
</filter>
<filter id="filter6_d_448_3" x="176" y="90" width="285" height="10" filterUnits="userSpaceOnUse" color-interpolation-filters="sRGB">
<feFlood flood-opacity="0" result="BackgroundImageFix"/>
<feColorMatrix in="SourceAlpha" type="matrix" values="0 0 0 0 0 0 0 0 0 0 0 0 0 0 0 0 0 0 127 0" result="hardAlpha"/>
<feOffset dy="4"/>
<feGaussianBlur stdDeviation="2"/>
<feComposite in2="hardAlpha" operator="out"/>
<feColorMatrix type="matrix" values="0 0 0 0 0 0 0 0 0 0 0 0 0 0 0 0 0 0 0.25 0"/>
<feBlend mode="normal" in2="BackgroundImageFix" result="effect1_dropShadow_448_3"/>
<feBlend mode="normal" in="SourceGraphic" in2="effect1_dropShadow_448_3" result="shape"/>
</filter>
<filter id="filter7_d_448_3" x="501" y="90" width="285" height="10" filterUnits="userSpaceOnUse" color-interpolation-filters="sRGB">
<feFlood flood-opacity="0" result="BackgroundImageFix"/>
<feColorMatrix in="SourceAlpha" type="matrix" values="0 0 0 0 0 0 0 0 0 0 0 0 0 0 0 0 0 0 127 0" result="hardAlpha"/>
<feOffset dy="4"/>
<feGaussianBlur stdDeviation="2"/>
<feComposite in2="hardAlpha" operator="out"/>
<feColorMatrix type="matrix" values="0 0 0 0 0 0 0 0 0 0 0 0 0 0 0 0 0 0 0.25 0"/>
<feBlend mode="normal" in2="BackgroundImageFix" result="effect1_dropShadow_448_3"/>
<feBlend mode="normal" in="SourceGraphic" in2="effect1_dropShadow_448_3" result="shape"/>
</filter>
<filter id="filter8_d_448_3" x="826" y="90" width="286" height="10" filterUnits="userSpaceOnUse" color-interpolation-filters="sRGB">
<feFlood flood-opacity="0" result="BackgroundImageFix"/>
<feColorMatrix in="SourceAlpha" type="matrix" values="0 0 0 0 0 0 0 0 0 0 0 0 0 0 0 0 0 0 127 0" result="hardAlpha"/>
<feOffset dy="4"/>
<feGaussianBlur stdDeviation="2"/>
<feComposite in2="hardAlpha" operator="out"/>
<feColorMatrix type="matrix" values="0 0 0 0 0 0 0 0 0 0 0 0 0 0 0 0 0 0 0.25 0"/>
<feBlend mode="normal" in2="BackgroundImageFix" result="effect1_dropShadow_448_3"/>
<feBlend mode="normal" in="SourceGraphic" in2="effect1_dropShadow_448_3" result="shape"/>
</filter>
<linearGradient id="paint0_linear_448_3" x1="144.333" y1="80.3335" x2="172.11" y2="90.4277" gradientUnits="userSpaceOnUse">
<stop stop-color="#0F135A"/>
<stop offset="0.322917" stop-color="#6530DA"/>
<stop offset="0.703125" stop-color="#763FBF"/>
<stop offset="1" stop-color="#7E49F3"/>
</linearGradient>
<linearGradient id="paint1_linear_448_3" x1="152" y1="88" x2="161.524" y2="91.4609" gradientUnits="userSpaceOnUse">
<stop stop-color="#0F135A"/>
<stop offset="0.322917" stop-color="#6530DA"/>
<stop offset="0.703125" stop-color="#763FBF"/>
<stop offset="1" stop-color="#7E49F3"/>
</linearGradient>
<linearGradient id="paint2_linear_448_3" x1="4" y1="92" x2="132" y2="92" gradientUnits="userSpaceOnUse">
<stop stop-color="#0F135A"/>
<stop offset="0.322917" stop-color="#6530DA"/>
<stop offset="0.703125" stop-color="#763FBF"/>
<stop offset="1" stop-color="#7E49F3"/>
</linearGradient>
<linearGradient id="paint3_linear_448_3" x1="155" y1="0" x2="155" y2="68" gradientUnits="userSpaceOnUse">
<stop stop-color="#0F135A"/>
<stop offset="0.322917" stop-color="#6530DA"/>
<stop offset="0.703125" stop-color="#763FBF"/>
<stop offset="1" stop-color="#7E49F3"/>
</linearGradient>
<linearGradient id="paint4_linear_448_3" x1="457" y1="92" x2="180" y2="92" gradientUnits="userSpaceOnUse">
<stop stop-color="#0F135A"/>
<stop offset="0.322917" stop-color="#6530DA"/>
<stop offset="0.703125" stop-color="#763FBF"/>
<stop offset="1" stop-color="#7E49F3"/>
</linearGradient>
</defs>
</svg>
