<svg width="60" height="41" viewBox="0 0 60 41" fill="none" xmlns="http://www.w3.org/2000/svg">
<path d="M28.081 1.03082C24.7363 1.89583 22.8044 4.0007 22.4873 7.23008C22.2854 9.04661 23.0351 12.8815 23.9578 14.9864C24.7075 16.6876 26.4375 18.7924 27.3313 19.0519C28.2828 19.3691 27.9368 19.6286 26.0338 20.0035C25.0246 20.1765 23.5829 20.609 22.8333 20.9261C21.5357 21.474 21.3627 21.5028 20.094 21.0703C19.3732 20.8396 18.191 20.5225 17.4702 20.4071L16.2015 20.2053L17.2395 19.5421C19.3444 18.2446 20.6707 15.3612 20.9014 11.5263C21.0744 8.5276 20.6996 7.40309 19.056 5.9614C16.9223 4.0872 13.5488 3.68353 10.9537 5.00988C7.98386 6.53807 7.06118 9.45029 8.12803 13.9484C8.7047 16.4281 9.45438 17.7833 11.0114 19.1384L12.3089 20.263L10.9249 20.4648C8.82004 20.7243 5.59065 22.4255 3.68762 24.242C0.112235 27.6444 -0.810446 32.2578 1.49626 35.0259C3.05328 36.8424 7.86852 38.1976 13.6064 38.3994C16.288 38.5147 17.5278 38.6877 19.1137 39.2356C25.3418 41.3693 34.6263 41.3693 41.1715 39.2068C42.9016 38.6589 44.1126 38.4571 46.7941 38.3994C50.4272 38.2841 53.2817 37.7651 55.9056 36.7847C59.0197 35.6314 60 34.305 60 31.2775C60 29.6916 59.827 29.0284 59.0773 27.4714C57.4338 24.1267 53.5701 21.3298 49.591 20.5513L47.8898 20.2341L49.0432 19.3691C50.7732 18.0716 52.0419 15.3612 52.4456 12.1318C52.7339 9.68096 52.7339 9.45029 52.0995 7.97976C50.8885 5.18289 47.7168 3.7412 44.3721 4.43321C40.3642 5.26939 38.6918 8.0086 39.3838 12.622C39.8164 15.4765 41.2004 18.1869 42.8151 19.3979C44.0838 20.3495 44.0838 20.3495 43.2476 20.3495C42.7862 20.3495 41.6329 20.609 40.6814 20.9261L38.9225 21.5316L36.3275 20.6378C34.8858 20.1765 33.2134 19.7728 32.6079 19.7728H31.4834L32.6944 19.1673C34.7704 18.1293 36.3563 15.7649 37.2501 12.3048C37.8557 9.91163 37.9133 6.36507 37.3367 5.06755C36.76 3.71236 35.2318 2.21301 33.7613 1.54983C32.2907 0.915485 29.5804 0.655981 28.081 1.03082ZM33.1846 4.14487C34.5686 4.95222 35.2318 6.33624 35.1453 8.38344C35.0588 11.6993 33.2999 15.8802 31.6276 16.7452C30.157 17.5237 29.0614 17.3219 27.8503 16.0532C26.1491 14.2367 24.6786 9.36378 25.1111 6.97058C25.3706 5.61539 26.5528 4.28904 28.0233 3.7412C29.4362 3.22219 31.9447 3.42402 33.1846 4.14487ZM15.8843 7.11475C17.6432 7.60492 18.364 8.58527 18.364 10.546C18.364 14.2655 16.3457 18.0428 14.385 18.0428C12.3954 18.0428 10.5212 14.6404 10.4636 10.9208C10.4347 9.10428 10.5212 8.78711 11.1267 8.12393C12.2513 6.91291 13.9236 6.56691 15.8843 7.11475ZM48.0052 7.37425C49.764 8.1816 50.2542 9.42145 49.8217 12.0742C49.245 15.5342 47.5726 18.0428 45.8426 18.0428C43.2476 18.0428 40.6814 10.719 42.4691 8.32577C43.5647 6.82641 45.9291 6.42274 48.0052 7.37425ZM33.4441 22.512C39.1532 23.723 44.0261 28.3941 44.0261 32.6903C44.0261 35.17 42.7574 36.1792 38.1152 37.3902C35.8085 37.9957 34.8858 38.0822 30.0417 38.0822C25.2553 38.0534 24.2461 37.9957 22.1124 37.3902C18.9407 36.5252 18.1045 36.1792 17.153 35.1989C16.461 34.5068 16.3457 34.1608 16.3457 32.7768C16.3457 29.8069 18.3064 26.7794 21.6222 24.6457C25.14 22.3678 29.2632 21.6181 33.4441 22.512ZM17.0953 22.9733C17.7873 23.1463 18.364 23.377 18.364 23.4635C18.364 23.55 17.7008 24.2997 16.9223 25.1359C14.2408 27.9616 13.1163 31.6811 13.866 35.0259L14.0966 35.9774L11.9918 35.7755C9.33905 35.516 6.08083 34.7087 4.5238 33.9013C2.62077 32.9498 2.3036 31.2486 3.51462 28.7978C4.3508 27.1254 6.4845 25.0205 8.24336 24.1267C10.8672 22.7715 14.4426 22.3102 17.0953 22.9733ZM48.899 22.9733C50.7155 23.377 52.9357 24.5015 54.3486 25.7125C56.5688 27.5867 57.8375 30.5566 57.2608 32.3731C56.7418 33.9878 53.2817 35.2565 47.9763 35.7755L46.0445 35.9774L46.3328 35.2277C46.477 34.7952 46.6211 33.5553 46.6211 32.5173C46.6211 30.9026 46.4481 30.2106 45.6696 28.5671C45.1218 27.4426 44.0261 25.799 43.1899 24.9052L41.6906 23.2617L42.9304 23.0022C44.6028 22.6273 47.342 22.5985 48.899 22.9733Z" fill="#D9D9D9"/>
</svg>
