<svg width="52" height="40" viewBox="0 0 52 40" fill="none" xmlns="http://www.w3.org/2000/svg">
<path d="M12.9383 5.95418C4.20544 10.1221 0.403912 12 0.205439 12.2748C-0.0541035 12.6107 -0.0541035 12.687 0.129103 12.9771C0.25124 13.1603 2.19017 14.1679 4.72453 15.374L9.10621 17.4504L9.15201 22.0458C9.19781 26.3817 9.22835 26.687 9.54896 27.4809C10.9383 30.9313 15.2741 33.5878 21.1826 34.6107C23.2436 34.9771 28.3581 34.9771 30.3429 34.6107C32.5108 34.2137 34.3734 33.6489 35.9765 32.8855C36.7551 32.5191 37.4268 32.2137 37.4574 32.2137C37.4879 32.2137 37.5184 32.8397 37.5184 33.5878C37.5184 34.8855 37.5032 34.9771 37.1673 35.0992C36.9688 35.1756 36.6024 35.4809 36.3276 35.7863C34.8772 37.4504 36.0528 40 38.2665 40C39.9307 40 41.1215 38.5191 40.8162 36.8702C40.694 36.2595 39.9307 35.313 39.3963 35.0992C39.0604 34.9771 39.0452 34.916 39.0452 33.084V31.2061L39.9612 30.3053C40.9841 29.2977 41.6406 28.3511 42.0528 27.3282C42.2818 26.7481 42.3276 25.9237 42.4039 22.0763L42.4803 17.5114L46.7551 15.4809C49.3352 14.2443 51.1368 13.2977 51.3047 13.084C51.9307 12.2901 52.2207 12.4427 38.6787 6.01525C31.7169 2.70227 25.8848 -2.2091e-05 25.7016 -2.2091e-05C25.5337 0.0152451 19.778 2.687 12.9383 5.95418ZM36.1139 6.5954C41.8085 9.28243 46.9841 11.7557 47.6406 12.0611L48.8314 12.6259L43.6558 15.084C40.8162 16.4427 38.4039 17.5572 38.3123 17.5572C38.2055 17.5572 35.4421 16.2137 32.1749 14.5801C28.4497 12.7175 26.0528 11.603 25.7627 11.603C25.4574 11.603 25.2589 11.7099 25.1368 11.9236C24.7551 12.6565 25.0146 12.8397 30.8619 15.7557L36.4345 18.5496L31.2436 20.9924C28.4039 22.3359 25.9764 23.4504 25.8543 23.4809C25.7474 23.5114 20.4803 21.0687 14.1596 18.0611C4.02224 13.2519 2.70926 12.5954 3.02987 12.4427C3.22834 12.3664 8.41918 9.90838 14.5413 6.99235C20.6787 4.07632 25.7169 1.69464 25.7322 1.67937C25.7627 1.67937 30.4345 3.89311 36.1139 6.5954ZM40.5719 23.5878C40.3887 24.229 39.6406 25.4962 39.2589 25.8015C39.0757 25.9695 39.0452 25.5267 39.0452 22.5343V19.0687L39.8543 18.7023L40.6482 18.3206L40.694 20.6565C40.7245 22.0763 40.6787 23.2061 40.5719 23.5878ZM18.4039 21.9237L25.7627 25.374L31.61 22.6259L37.4421 19.8626L37.4879 23.5572C37.5337 27.8473 37.7016 27.4198 35.61 28.4122C34.007 29.1603 32.465 29.6641 30.4955 30.0916C29.1368 30.3817 28.4192 30.4427 25.839 30.4427C22.3734 30.4427 20.7551 30.229 18.1902 29.3893C14.5566 28.1985 12.2207 26.4885 11.1978 24.2748C10.8314 23.4809 10.8009 23.2824 10.8009 20.9466C10.8009 19.5878 10.8467 18.4733 10.923 18.4733C10.9841 18.4733 14.3429 20.0305 18.4039 21.9237ZM40.0528 27.5878C39.9307 27.8321 39.6558 28.2137 39.4421 28.4733C39.0604 28.9313 39.0604 28.9313 39.0452 28.5649C39.0452 28.3359 39.2436 28.0153 39.6253 27.6946C40.3123 27.0687 40.3276 27.0687 40.0528 27.5878ZM14.9993 29.771C17.9764 31.2366 20.7245 31.8626 24.694 32.0153C29.1368 32.1832 33.1062 31.4351 36.3429 29.8473C36.9383 29.5572 37.4421 29.313 37.4879 29.313C37.5184 29.313 37.5184 29.5267 37.4879 29.8015C37.4421 30.2595 37.32 30.3511 36.0681 31.0229C33.1673 32.5496 29.7932 33.313 25.9154 33.313C24.6177 33.313 22.9688 33.2366 22.2665 33.145C19.5642 32.7481 16.6329 31.8168 14.7856 30.7328C13.6558 30.0763 11.9306 28.5191 11.5032 27.771C11.2283 27.2977 11.2741 27.3282 12.1902 28.0763C12.7245 28.5191 13.9917 29.2824 14.9993 29.771ZM38.923 36.7481C39.1978 36.9924 39.2894 37.6489 39.0757 37.9542C38.8467 38.3053 38.3123 38.4733 37.9001 38.3206C37.4879 38.1679 37.1368 37.4962 37.3047 37.2061C37.7322 36.458 38.4039 36.2748 38.923 36.7481Z" fill="#D9D9D9"/>
</svg>
