<svg width="41" height="34" viewBox="0 0 41 34" fill="none" xmlns="http://www.w3.org/2000/svg">
<path d="M6.56942 0.0692444C6.06789 0.16436 5.38478 0.389183 5.00431 0.579414C4.06179 1.055 3.09333 2.05805 2.58316 3.08704C2.44481 3.37239 2.06434 3.84797 1.62334 4.29762C0.85376 5.07585 0.48194 5.69843 0.187943 6.67554C0.049591 7.15977 0.032297 7.96394 0.00635609 17.7437C-0.0109379 24.6786 0.00635609 28.561 0.066885 29.0712C0.187943 30.1002 0.438705 30.8093 0.957524 31.5788C1.65793 32.6338 2.64369 33.3861 3.90615 33.8184L4.44226 34H19.0557H33.6691L34.3176 33.7925C35.139 33.5417 35.4417 33.3861 36.1248 32.8672C36.7214 32.4176 37.3181 31.6826 37.6899 30.9303C37.8283 30.645 38.2001 30.178 38.6065 29.763C39.3415 29.0193 39.7998 28.2671 40.0765 27.3418C40.2235 26.8576 40.2321 26.114 40.2667 16.2737C40.284 9.33016 40.2667 5.45631 40.2062 4.94614C40.0851 3.91715 39.8344 3.2081 39.3155 2.43852C38.6151 1.38358 37.6294 0.631298 36.3669 0.198948L35.8308 0.0173607L21.3903 6.86646e-05C13.3832 6.86646e-05 6.77694 0.0260086 6.56942 0.0692444ZM35.4503 1.61705C37.1538 1.94564 38.4335 3.3378 38.6497 5.09314C38.7016 5.55143 38.7275 9.58957 38.7102 16.1872L38.6843 26.5636L38.4681 27.1689L38.252 27.7742L38.2087 17.3546L38.1655 6.93495L37.9666 6.37289C37.638 5.47361 37.2748 4.90291 36.5744 4.21115C36.1075 3.75286 35.727 3.46751 35.2687 3.24269C34.0149 2.61146 35.165 2.65469 19.1854 2.65469H4.78814L5.04755 2.43852C5.41937 2.12723 6.28406 1.71217 6.73371 1.6257C7.30441 1.51329 34.871 1.50464 35.4503 1.61705ZM34.3349 4.53109C35.3552 5.00667 36.1594 5.9319 36.488 6.98683C36.6436 7.48835 36.6523 7.95529 36.6523 18.2884C36.6523 29.9273 36.6696 29.443 36.1853 30.3856C35.9 30.9476 35.1909 31.674 34.6116 31.9853C33.6431 32.5041 34.3522 32.4868 19.1767 32.4868C10.0887 32.4868 5.12537 32.4522 4.82272 32.4003C3.1625 32.0804 1.84816 30.6882 1.63199 29.0107C1.51958 28.146 1.51958 8.42223 1.63199 7.62671C1.85681 6.10484 2.87715 4.87696 4.35579 4.36679C4.7622 4.22844 5.70472 4.2198 19.2718 4.23709L33.7555 4.25438L34.3349 4.53109Z" fill="#D9D9D9"/>
<path d="M5.12535 6.83114C4.79676 7.1165 4.79676 7.70449 5.12535 7.98984L5.35881 8.18872H19.1508H32.9427L33.1502 7.97255C33.4183 7.71314 33.4442 7.17702 33.2021 6.88303L33.0378 6.6755L19.2026 6.64956L5.35881 6.63226L5.12535 6.83114Z" fill="#D9D9D9"/>
<path d="M5.28968 9.83153C4.81409 10.0218 4.82274 9.88342 4.84868 16.8702L4.87462 23.3035L5.08215 23.5284L5.28968 23.7532H12.4494H19.6004L19.8253 23.4851L20.0501 23.2171L20.0328 16.6972L20.0068 10.1861L19.808 9.98718L19.6091 9.7883L12.5445 9.771C8.54959 9.76236 5.39344 9.7883 5.28968 9.83153ZM18.4936 16.7491V22.1967H12.4407H6.38785V16.7491V11.3015H12.4407H18.4936V16.7491Z" fill="#D9D9D9"/>
<path d="M22.9468 9.84906C22.4971 10.1085 22.4107 10.7311 22.7738 11.0856L22.9814 11.3018H27.962H32.9427L33.1502 11.0856C33.3664 10.8781 33.4356 10.4544 33.3145 10.1344C33.1675 9.75395 33.0378 9.7453 27.9447 9.7453C24.4773 9.75395 23.0678 9.77989 22.9468 9.84906Z" fill="#D9D9D9"/>
<path d="M22.9468 12.9619C22.4971 13.2213 22.4107 13.8438 22.7738 14.1984L22.9814 14.4146H27.962H32.9427L33.1502 14.1984C33.3664 13.9908 33.4356 13.5671 33.3145 13.2472C33.1675 12.8667 33.0378 12.8581 27.9447 12.8581C24.4773 12.8667 23.0678 12.8927 22.9468 12.9619Z" fill="#D9D9D9"/>
<path d="M22.9468 16.0749C22.4971 16.3343 22.4107 16.9569 22.7738 17.3114L22.9814 17.5276H27.962H32.9427L33.1502 17.3114C33.3664 17.1039 33.4356 16.6802 33.3145 16.3602C33.1675 15.9798 33.0378 15.9711 27.9447 15.9711C24.4773 15.9798 23.0678 16.0057 22.9468 16.0749Z" fill="#D9D9D9"/>
<path d="M22.9468 19.1877C22.4971 19.4471 22.4107 20.0697 22.7738 20.4242L22.9814 20.6404H27.962H32.9427L33.1502 20.4242C33.3664 20.2167 33.4356 19.793 33.3145 19.473C33.1675 19.0926 33.0378 19.0839 27.9447 19.0839C24.4773 19.0926 23.0678 19.1185 22.9468 19.1877Z" fill="#D9D9D9"/>
<path d="M22.9382 22.3005C22.5231 22.4994 22.428 23.1998 22.7739 23.537L22.9814 23.7532H27.962H32.9427L33.1502 23.537C33.3664 23.3295 33.4356 22.9058 33.3145 22.5858C33.1675 22.2054 33.0378 22.1967 27.9448 22.2054C24.8145 22.2054 23.0592 22.24 22.9382 22.3005Z" fill="#D9D9D9"/>
<path d="M5.28104 25.3962C5.03893 25.5 4.82275 25.9842 4.89193 26.2696C4.91787 26.382 5.02163 26.5636 5.11675 26.6673L5.28969 26.8662H19.1162H32.9427L33.1503 26.65C33.3664 26.4425 33.4356 26.0188 33.3146 25.6989C33.1589 25.2925 33.6777 25.3098 19.1249 25.3184C11.0226 25.3184 5.4021 25.353 5.28104 25.3962Z" fill="#D9D9D9"/>
<path d="M5.28104 28.509C5.03893 28.6128 4.82275 29.097 4.89193 29.3824C4.91787 29.4948 5.02163 29.6764 5.11675 29.7801L5.28969 29.979H19.1508H33.0119L33.1849 29.7542C33.3837 29.4948 33.427 28.976 33.254 28.7598C33.1935 28.682 33.0638 28.5782 32.96 28.5263C32.7266 28.3966 5.59233 28.388 5.28104 28.509Z" fill="#D9D9D9"/>
</svg>
