<svg width="42" height="34" viewBox="0 0 42 34" fill="none" xmlns="http://www.w3.org/2000/svg">
<path d="M1.12821 0.258801C-0.285809 0.994473 -0.390905 3.03906 0.92757 3.95626C1.30974 4.21423 1.41483 4.24289 2.1314 4.24289C2.8384 4.24289 2.96261 4.21423 3.32567 3.97537C3.54541 3.82251 3.85115 3.51677 3.9849 3.28747L4.24287 2.86709L6.20147 2.85753H8.16008L9.77473 4.47219L11.3798 6.07729L10.4817 6.98494C9.44034 8.04545 8.676 9.0773 8.00721 10.3384L7.5295 11.2556L5.71421 11.2843C3.92758 11.313 3.88936 11.3225 3.70783 11.5423C3.45943 11.848 3.46898 12.3257 3.74605 12.5837C3.95624 12.7843 4.06134 12.7939 5.47536 12.7939C6.87982 12.7939 6.98491 12.8034 6.91804 12.9563C6.78428 13.2907 6.4881 14.8576 6.42122 15.5359L6.36389 16.2334H5.17918C4.05178 16.2334 3.9849 16.2429 3.76516 16.4722C3.61229 16.6155 3.5263 16.8162 3.5263 16.9977C3.5263 17.1792 3.61229 17.3799 3.76516 17.5232C3.9849 17.7525 4.05178 17.762 5.16962 17.762H6.35434L6.46899 18.7366C6.53587 19.2812 6.66963 20.0455 6.77472 20.4372C6.87982 20.8289 6.96581 21.1633 6.96581 21.1729C6.96581 21.192 6.28746 21.2015 5.45625 21.2015C3.99446 21.2015 3.93713 21.2111 3.7365 21.4213C3.47853 21.6984 3.46898 22.157 3.70783 22.4531C3.88936 22.6729 3.92758 22.6824 5.71421 22.7111L7.5295 22.7398L8.00721 23.657C8.676 24.9181 9.44034 25.95 10.4817 27.0105L11.3798 27.9181L9.77473 29.5232L8.16008 31.1379H6.20147L4.24287 31.1283L3.9849 30.7079C3.85115 30.4786 3.54541 30.1729 3.32567 30.02C2.96261 29.7812 2.8384 29.7525 2.1314 29.7525C1.41483 29.7525 1.30974 29.7812 0.92757 30.0391C-0.324026 30.9086 -0.295363 32.8672 0.975341 33.6602C1.50082 33.985 2.2556 34.0901 2.79063 33.9181C3.30656 33.7462 3.8607 33.3067 4.04223 32.915L4.20465 32.571H6.51676H8.82887L10.6919 30.7079C11.7142 29.6856 12.5837 28.8449 12.6219 28.8449C12.6601 28.8449 12.9372 28.9977 13.2429 29.1793C13.9117 29.5805 14.4085 29.6188 14.7047 29.3035C14.934 29.0551 14.9531 28.6825 14.7525 28.3958C14.676 28.2812 14.3703 28.0519 14.0837 27.8895C11.5805 26.4563 9.469 23.8385 8.51358 20.9627C7.88301 19.0423 7.70148 16.6155 8.05498 14.7716C9.01995 9.78431 12.7079 5.87665 17.5709 4.69193C21.8608 3.64098 26.3034 4.90213 29.4659 8.06456C32.6379 11.2174 33.8895 15.7366 32.8098 20.0646C32.1124 22.8544 30.4691 25.3385 28.1952 27.0582C25.5678 29.036 22.5487 29.8958 19.2716 29.5997L17.9244 29.485L17.6951 29.743C17.4181 30.0678 17.4181 30.3927 17.6951 30.6984C17.8576 30.8895 18.0582 30.9659 18.6219 31.0519C19.5869 31.1952 22.4627 31.1092 23.399 30.899C24.9468 30.5551 26.8385 29.8098 28.0136 29.0646C28.2143 28.9404 28.4054 28.8544 28.4245 28.8735C28.4531 28.9022 29.3035 29.743 30.3258 30.7462L32.1793 32.571H34.52H36.8608L37.0232 32.915C37.5869 34.1092 39.45 34.3576 40.4436 33.3736C41.3799 32.4372 41.2271 30.7939 40.1379 30.0391C39.7557 29.7812 39.6506 29.7525 38.9341 29.7525C38.2271 29.7525 38.1028 29.7812 37.7398 30.02C37.52 30.1729 37.2143 30.4786 37.0806 30.7079L36.8226 31.1283L34.864 31.1379H32.9054L31.2907 29.5232L29.6856 27.9181L30.5837 27.0105C31.6251 25.95 32.3895 24.9181 33.0582 23.657L33.536 22.7398L35.3512 22.7111C37.1379 22.6824 37.1761 22.6729 37.3576 22.4531C37.5965 22.1665 37.5869 21.7652 37.3385 21.4499L37.1474 21.2015H35.6188C34.2047 21.2015 34.0901 21.192 34.1379 21.0296C34.3194 20.4372 34.5774 19.1283 34.6347 18.4977L34.7016 17.762H35.8863C37.0137 17.762 37.0806 17.7525 37.3003 17.5232C37.6156 17.2175 37.6156 16.778 37.3003 16.4722C37.0806 16.2429 37.0137 16.2334 35.8958 16.2334H34.7111L34.5965 15.2493C34.5296 14.7143 34.3958 13.9499 34.2907 13.5582C34.1856 13.1665 34.0996 12.8321 34.0996 12.813C34.0996 12.8034 34.7684 12.7939 35.5805 12.7939C37.0328 12.7939 37.071 12.7843 37.3003 12.555C37.5869 12.2779 37.606 11.848 37.3576 11.5423C37.1761 11.3225 37.1379 11.313 35.3512 11.2843L33.536 11.2556L33.0582 10.3384C32.3895 9.0773 31.6251 8.04545 30.5837 6.98494L29.6952 6.08684L30.0869 5.66646C30.6506 5.05499 30.5646 4.3862 29.9054 4.24289C29.5614 4.16646 29.3321 4.28111 28.7875 4.78748L28.3767 5.16009L28.0136 4.93079C26.6665 4.08047 24.4977 3.26836 22.8448 3.00085C21.6123 2.79066 18.7843 2.84798 17.6665 3.09639C16.1187 3.44034 14.227 4.18556 13.0518 4.93079L12.6888 5.16009L10.8926 3.44034C9.89894 2.48492 9.03906 1.64415 8.97218 1.56772C8.87664 1.44352 8.47536 1.42441 6.52631 1.42441H4.20465L4.04223 1.08046C3.57408 0.105934 2.17917 -0.295341 1.12821 0.258801ZM2.55178 1.67282C2.69509 1.76836 2.76197 1.91167 2.76197 2.11231C2.76197 2.51358 2.52312 2.76199 2.1314 2.76199C1.58681 2.76199 1.31929 2.10275 1.71101 1.71103C1.94031 1.48174 2.2556 1.46262 2.55178 1.67282ZM2.59 31.3958C2.68554 31.4818 2.76197 31.6825 2.76197 31.864C2.76197 32.4086 2.10273 32.6761 1.71101 32.2844C1.13776 31.7111 1.98808 30.8513 2.59 31.3958ZM39.4404 31.5392C39.7557 32.1028 39.1729 32.6857 38.6092 32.3704C38.2844 32.1888 38.2079 31.692 38.4564 31.4149C38.7143 31.1283 39.2589 31.2048 39.4404 31.5392Z" fill="#D9D9D9"/>
<path d="M38.1124 0.134627C37.5965 0.373481 37.1952 0.717431 37.0232 1.08049L36.8608 1.42444H34.5391H32.227L31.3863 2.28432C30.5933 3.08687 30.5455 3.1633 30.6028 3.44992C30.6793 3.84164 30.9754 4.09961 31.3481 4.09961C31.5678 4.09961 31.778 3.95629 32.2748 3.47859L32.9245 2.85757H34.8735L36.8226 2.86712L37.0806 3.2875C37.2143 3.5168 37.52 3.82254 37.7398 3.9754C38.1029 4.21426 38.2271 4.24292 38.9341 4.24292C39.6506 4.24292 39.7557 4.21426 40.1379 3.95629C41.3895 3.08687 41.3608 1.12826 40.0806 0.335264C39.5169 -0.01824 38.6474 -0.104228 38.1124 0.134627ZM39.3544 1.71106C39.7366 2.09323 39.4882 2.76202 38.9532 2.76202C38.5519 2.76202 38.3035 2.52317 38.3035 2.13145C38.3035 1.58686 38.9627 1.31934 39.3544 1.71106Z" fill="#D9D9D9"/>
<path d="M14.59 9.92774C14.0645 10.0615 13.1855 10.5297 12.7365 10.9214C11.0931 12.3354 10.7492 14.9532 11.9435 16.8259C12.9849 18.4405 14.9817 19.1953 16.9212 18.708C17.246 18.622 17.3129 18.6507 18.1632 19.224C19.0231 19.8068 19.4053 19.9596 20.0741 19.9596C20.2174 19.9596 20.6187 20.1603 21.0104 20.4278C21.555 20.8004 21.7652 21.0106 22.0231 21.4596C22.5104 22.3291 22.5964 22.3864 23.3703 22.2908C23.7238 22.2431 24.0773 22.2049 24.1441 22.2049C24.2206 22.2049 24.4212 22.5584 24.6027 23.017C24.9754 23.9437 25.2142 24.2017 25.6441 24.1348C25.9308 24.087 29.4945 22.1666 29.8289 21.8896C30.02 21.7176 30.0486 21.1252 29.8766 20.8864C29.8098 20.8004 28.4626 19.845 26.8957 18.7654C24.4499 17.0934 23.9817 16.8067 23.6855 16.8067C23.3129 16.8067 23.0836 16.9787 22.9785 17.3418C22.8448 17.7813 23.0741 18.0106 24.9467 19.3004C25.9594 19.9978 27.0199 20.724 27.297 20.9246L27.8034 21.2781L26.9435 21.7654C26.4658 22.0329 26.0454 22.2526 25.9977 22.2526C25.9594 22.2526 25.8066 21.9278 25.6537 21.5265C25.2715 20.5424 25.1378 20.466 24.1537 20.6284C23.7333 20.6953 23.3798 20.7335 23.3607 20.7144C23.3416 20.6953 23.2365 20.4947 23.1314 20.2749C22.9785 19.9787 22.7015 19.7208 22.0136 19.2431C21.1823 18.6603 21.0295 18.5934 20.3607 18.4883C19.8543 18.4023 19.5008 18.2876 19.2142 18.0966C18.9944 17.9532 18.8129 17.8099 18.8129 17.7908C18.8129 17.7717 18.9849 17.552 19.1855 17.3036C19.3862 17.0552 19.6537 16.6634 19.7683 16.4246C19.883 16.1857 19.9976 15.9755 20.0167 15.9564C20.0358 15.9373 20.3894 16.1666 20.8193 16.4628C21.8034 17.1507 22.0518 17.208 22.4435 16.8259C22.9881 16.2717 22.8257 15.9755 21.4116 15.0106L20.2747 14.2271L20.2174 13.7207C20.055 12.173 18.8989 10.6921 17.4085 10.1093C16.7874 9.87042 15.2205 9.77488 14.59 9.92774ZM16.883 11.5615C17.4753 11.8099 18.0104 12.2685 18.297 12.7462C19.004 13.9596 18.8511 15.3641 17.9053 16.4055C17.0836 17.3227 15.6123 17.6093 14.504 17.0647C13.8639 16.759 13.2428 16.1188 12.9562 15.4883C12.6505 14.8099 12.6791 13.7781 13.0135 13.0615C13.711 11.6188 15.4498 10.9405 16.883 11.5615Z" fill="#D9D9D9"/>
<path d="M14.762 12.8033C13.9117 13.0517 13.6729 14.074 14.3225 14.7141C14.5518 14.9434 14.676 14.9912 15.0773 14.9912C15.7366 14.9912 16.1378 14.6473 16.1952 14.0358C16.2429 13.5485 16.1092 13.2237 15.7557 12.9753C15.4404 12.7651 15.106 12.6982 14.762 12.8033Z" fill="#D9D9D9"/>
<path d="M15.6888 29.0838C15.2684 29.38 15.3353 30.1443 15.813 30.364C16.176 30.5265 16.4149 30.4882 16.6633 30.2303C17.313 29.5902 16.4435 28.5583 15.6888 29.0838Z" fill="#D9D9D9"/>
</svg>
