<svg width="40" height="41" viewBox="0 0 40 41" fill="none" xmlns="http://www.w3.org/2000/svg">
<path d="M21.0959 0.165545C20.955 0.306444 20.9393 0.423862 20.9393 1.61369V2.90527H20.5558C20.0939 2.90527 19.7104 3.1401 19.5147 3.53149C19.3816 3.78198 19.3738 4.22817 19.3738 9.43365C19.3738 14.9992 19.3738 15.0618 19.5382 15.3515C19.7573 15.735 20.0548 15.8994 20.5401 15.8994H20.9393V17.5824C20.9393 19.2732 20.9393 19.2732 21.135 19.461C21.2524 19.5863 21.4168 19.6567 21.5656 19.6567C21.7143 19.6567 21.8787 19.5863 21.9961 19.461C22.1918 19.2732 22.1918 19.2732 22.1918 17.5824V15.8994H22.6223C22.9824 15.8994 23.0842 15.8681 23.3268 15.6567C23.4912 15.5158 23.6321 15.2967 23.6791 15.1088C23.7339 14.9131 23.7573 13.8877 23.7417 12.3299L23.7182 9.85635L23.5303 9.70762C23.2955 9.51192 22.9667 9.51975 22.7084 9.72327L22.5049 9.87983V12.3064V14.7252H21.5656H20.6262V9.44147V4.15772H21.5656H22.5049V6.0677V7.98551L22.7084 8.14206C22.9667 8.34558 23.2955 8.35341 23.5303 8.15772L23.7182 8.00899V5.82504C23.7182 3.67239 23.7182 3.64891 23.5382 3.39059C23.2955 3.06183 22.9902 2.90527 22.544 2.90527H22.1918V1.66065C22.1918 0.525623 22.1761 0.400379 22.0274 0.212511C21.8239 -0.045805 21.3386 -0.077116 21.0959 0.165545Z" fill="#D9D9D9"/>
<path d="M28.2505 2.67033C27.8748 2.81906 27.8278 3.00692 27.8278 4.32982V5.56661H26.544C25.3699 5.56661 25.2524 5.58227 25.0568 5.731C24.9002 5.85624 24.8532 5.958 24.8532 6.19283C24.8532 6.42767 24.9002 6.52943 25.0568 6.65467C25.2524 6.8034 25.3699 6.81906 26.544 6.81906H27.8278V8.03236V9.24567H27.4599C27.0059 9.24567 26.638 9.44919 26.4423 9.80927C26.3092 10.0441 26.3014 10.3572 26.3014 13.8641V17.6605L26.4814 17.9189C26.7241 18.2476 27.0294 18.4042 27.4755 18.4042H27.8278V20.823C27.8278 23.1478 27.8356 23.2418 27.9922 23.4453C28.1957 23.7036 28.681 23.7349 28.9237 23.4922C29.0724 23.3435 29.0802 23.2339 29.0802 20.8699V18.4042H29.4795C29.9726 18.4042 30.3405 18.2007 30.5205 17.8249C30.6301 17.5901 30.6458 17.0891 30.6458 13.8249C30.6458 9.80145 30.6536 9.88755 30.2231 9.48833C30.0665 9.33961 29.91 9.28481 29.5499 9.26133L29.0802 9.23001V8.02454V6.81906H32.8219C37.0568 6.81906 37.0881 6.81906 37.7926 7.39048C38.0744 7.62532 38.2779 7.88364 38.4736 8.25937L38.7476 8.79949L38.771 19.0774L38.7867 29.3631H20H1.21331L1.22896 19.0852L1.25245 8.81514L1.51076 8.29068C1.79256 7.71925 2.19178 7.32003 2.77104 7.03823L3.13112 6.8582L8.54795 6.83471L13.9726 6.81123V7.367V7.91495H13.6204C13.1742 7.91495 12.8376 8.08716 12.6419 8.4081C12.4932 8.65076 12.4853 8.8308 12.4853 12.4785C12.4853 16.6977 12.4775 16.6116 12.9785 16.9169C13.135 17.0187 13.3699 17.0735 13.6047 17.0735H13.9726V19.6488C13.9726 22.2946 14.0039 22.639 14.2857 22.7877C14.5205 22.913 14.8728 22.8739 15.0528 22.7095C15.225 22.5451 15.225 22.5216 15.225 19.8132V17.0735H15.6399C16.0939 17.0735 16.407 16.9169 16.6419 16.5568C16.7828 16.3455 16.7906 16.1185 16.7906 12.5099C16.7906 8.29068 16.7984 8.37679 16.2975 8.0715C16.1331 7.96974 15.9061 7.91495 15.6399 7.91495H15.225V7.367V6.81906H16.5558C17.8708 6.81906 17.8943 6.81906 18.0822 6.62336C18.3405 6.37287 18.3405 6.01279 18.0822 5.76231C17.8943 5.56661 17.8708 5.56661 16.5558 5.56661H15.225V5.29264C15.225 4.93256 14.998 4.70555 14.638 4.70555C14.3014 4.70555 14.0744 4.90908 14.0039 5.28481L13.9569 5.56661H8.67319C2.79452 5.56661 2.72407 5.57444 1.86301 6.08324C1.04892 6.5764 0.516634 7.2261 0.180039 8.15761L0 8.65859V19.6566C0 30.1928 0.00782779 30.6703 0.148728 31.0852C0.571429 32.3376 1.51859 33.277 2.69276 33.6214C3.06067 33.731 3.76517 33.7466 7.88258 33.7466H12.6419V35.2261V36.7056L11.6869 37.8093L10.7397 38.913H10.2466C9.83953 38.913 9.72211 38.9443 9.58904 39.0852C9.38552 39.3044 9.38552 39.6958 9.58904 39.9149L9.75342 40.0872H19.9609C30.0744 40.0872 30.1761 40.0872 30.3327 39.9306C30.544 39.7193 30.544 39.2809 30.3327 39.0695C30.2153 38.9521 30.0744 38.913 29.7221 38.913H29.2603L28.3131 37.8093L27.3581 36.7056V35.2261V33.7466H32.1252C36.5871 33.7466 36.9237 33.7388 37.3699 33.5979C38.5205 33.2378 39.4364 32.3063 39.8513 31.0852C39.9922 30.6703 40 30.1772 40 19.6566V8.65859L39.82 8.15761C39.4834 7.2261 38.9511 6.5764 38.137 6.08324C37.3151 5.5901 37.0568 5.56661 32.8454 5.56661H29.0802V4.28285C29.0802 3.17131 29.0646 2.98344 28.9472 2.84254C28.7828 2.65467 28.4775 2.58422 28.2505 2.67033ZM15.5382 12.4942V15.821H14.638H13.7378V12.4942V9.16739H14.638H15.5382V12.4942ZM29.3933 13.8641V17.23H28.454H27.5147V13.8641V10.4981H28.454H29.3933V13.8641ZM38.6301 30.6938C38.6301 31.1009 37.9413 31.9306 37.3386 32.2437L36.9472 32.4551L30.5049 32.4942L24.0548 32.5333L23.9061 32.7212C23.7104 32.9639 23.7104 33.3866 23.9139 33.5901C24.0548 33.731 24.1722 33.7466 25.0881 33.7466H26.1057V35.0382V36.3298H25.2446C24.4853 36.3298 24.3679 36.3455 24.227 36.4864C23.9843 36.729 24.0157 37.2144 24.274 37.4179C24.4618 37.5666 24.5949 37.5823 25.4716 37.5901L26.4579 37.5979L26.9667 38.185C27.2485 38.5138 27.4912 38.8112 27.499 38.8504C27.5147 38.8817 24.1409 38.913 20 38.913C15.8591 38.913 12.4853 38.8817 12.501 38.8504C12.5166 38.8112 12.7515 38.5138 13.0333 38.185L13.5421 37.5979L14.5284 37.5901C15.4051 37.5823 15.5382 37.5666 15.726 37.4179C15.9843 37.2144 16.0157 36.729 15.773 36.4864C15.6321 36.3455 15.5147 36.3298 14.7554 36.3298H13.8943V35.0382V33.7466H18.0352H22.184L22.3405 33.5431C22.5597 33.2692 22.544 33.0187 22.317 32.7525L22.1292 32.5333L12.5871 32.4942L3.05284 32.4551L2.66145 32.2437C2.05871 31.9306 1.36986 31.1009 1.36986 30.6938C1.36986 30.639 7.24853 30.6155 20 30.6155C32.7515 30.6155 38.6301 30.639 38.6301 30.6938Z" fill="#D9D9D9"/>
<path d="M7.27981 9.75461C7.1076 9.91899 7.08411 10.0129 7.08411 10.4826V11.0305L6.65358 11.0853C6.35613 11.1166 6.14478 11.2028 5.98039 11.3436C5.55769 11.6959 5.51855 11.8916 5.51855 13.7311C5.51855 15.3123 5.52638 15.4219 5.68294 15.6176C5.88646 15.8759 6.37178 15.9073 6.61445 15.6646C6.76317 15.5159 6.771 15.4063 6.771 13.9033V12.2986H7.71034H8.64967V15.6646V19.0305H7.71034H6.771V18.2556C6.771 17.3789 6.6849 17.191 6.24654 17.1049C6.03519 17.0658 5.95691 17.0971 5.75339 17.2928L5.51855 17.5276V18.4591C5.51855 19.1793 5.54987 19.4454 5.65945 19.6568C5.85515 20.0482 6.23871 20.283 6.70055 20.283H7.08411V21.8877C7.08411 23.6255 7.12325 23.829 7.48333 23.9542C7.7573 24.0482 8.14869 23.9307 8.25828 23.7272C8.30525 23.6411 8.33656 22.8583 8.33656 21.9346V20.283H8.72012C9.18196 20.283 9.56552 20.0482 9.76122 19.6568C9.88646 19.4063 9.90212 19.0462 9.90212 15.6724C9.90212 12.056 9.89429 11.962 9.73773 11.6724C9.53421 11.3123 9.26024 11.148 8.7436 11.0775L8.33656 11.0227V10.4826C8.33656 10.0129 8.31308 9.91899 8.14086 9.75461C8.02345 9.62936 7.85906 9.55891 7.71034 9.55891C7.56161 9.55891 7.39722 9.62936 7.27981 9.75461Z" fill="#D9D9D9"/>
<path d="M34.137 12.6978C33.9805 12.823 33.9335 12.9248 33.9335 13.1596C33.9335 13.4571 34.0274 13.5823 34.4423 13.825C34.5519 13.8954 34.3484 14.0285 33.2994 14.5999C32.5949 14.9756 31.9531 15.3592 31.8826 15.4453C31.5695 15.8054 31.867 16.4473 32.3366 16.4473C32.454 16.4473 33.1351 16.1342 33.863 15.7428C34.5832 15.3514 35.1938 15.0383 35.2173 15.0383C35.2486 15.0383 35.2329 15.1087 35.1859 15.187C34.9433 15.6488 35.2329 16.2124 35.7104 16.2124C36.094 16.2124 36.2505 16.0011 36.6263 14.9913C37.0176 13.9502 37.0646 13.6449 36.8376 13.4414C36.6654 13.2848 34.7476 12.5334 34.5128 12.5334C34.4188 12.5334 34.2544 12.6038 34.137 12.6978Z" fill="#D9D9D9"/>
<path d="M19.4207 22.0833C16.1487 23.8445 13.4481 25.2692 13.4246 25.2535C13.3933 25.23 13.2368 24.8543 13.0724 24.4159C12.728 23.4766 12.5636 23.2574 12.2113 23.2574C11.8826 23.2574 3.72601 26.733 3.53814 26.9443C3.23286 27.3201 3.53031 27.9541 4.00781 27.9541C4.12522 27.9463 5.93344 27.2183 8.02346 26.3181L11.8199 24.6899L12.18 25.6292C12.5479 26.5921 12.7358 26.8582 13.0646 26.8582C13.2368 26.8582 25.7847 20.142 26.0509 19.9071C26.1291 19.8367 26.1839 19.6723 26.1839 19.4844C26.1839 19.1087 25.9648 18.8739 25.6203 18.8739C25.4325 18.8739 23.7417 19.7506 19.4207 22.0833Z" fill="#D9D9D9"/>
</svg>
