<svg width="40" height="40" viewBox="0 0 40 40" fill="none" xmlns="http://www.w3.org/2000/svg">
<path d="M20 11.2501C18.2694 11.2501 16.5777 11.7633 15.1388 12.7247C13.6998 13.6862 12.5783 15.0527 11.9161 16.6516C11.2538 18.2504 11.0805 20.0098 11.4181 21.7071C11.7558 23.4044 12.5891 24.9635 13.8128 26.1873C15.0365 27.411 16.5956 28.2443 18.293 28.5819C19.9903 28.9196 21.7496 28.7463 23.3485 28.084C24.9473 27.4218 26.3139 26.3002 27.2754 24.8613C28.2368 23.4224 28.75 21.7307 28.75 20.0001C28.75 17.6794 27.8281 15.4538 26.1872 13.8129C24.5463 12.1719 22.3207 11.2501 20 11.2501ZM20 26.2501C18.7639 26.2501 17.5555 25.8835 16.5277 25.1968C15.4999 24.51 14.6988 23.5339 14.2258 22.3918C13.7527 21.2498 13.6289 19.9931 13.8701 18.7808C14.1113 17.5684 14.7065 16.4547 15.5806 15.5807C16.4547 14.7066 17.5683 14.1113 18.7807 13.8702C19.9931 13.629 21.2497 13.7528 22.3918 14.2258C23.5338 14.6989 24.5099 15.5 25.1967 16.5278C25.8835 17.5556 26.25 18.7639 26.25 20.0001C26.25 21.6577 25.5915 23.2474 24.4194 24.4195C23.2473 25.5916 21.6576 26.2501 20 26.2501ZM36.6875 23.5001L34.3594 20.4063C34.375 20.1251 34.3594 19.8282 34.3594 19.6094L36.6875 16.5001C36.8033 16.3488 36.882 16.1724 36.9172 15.9852C36.9525 15.7979 36.9434 15.605 36.8906 15.4219C36.4969 13.9814 35.9247 12.5957 35.1875 11.2969C35.0924 11.132 34.9617 10.9903 34.8049 10.8822C34.6482 10.774 34.4693 10.7022 34.2813 10.6719L30.4531 10.1251L29.875 9.54695L29.3281 5.71882C29.2979 5.53081 29.226 5.35192 29.1179 5.19515C29.0098 5.03838 28.8681 4.90769 28.7031 4.81257C27.4044 4.07536 26.0187 3.50323 24.5781 3.10945C24.3951 3.05668 24.2022 3.04756 24.0149 3.08284C23.8277 3.11812 23.6513 3.1968 23.5 3.31257L20.4063 5.62507H19.5938L16.5 3.31257C16.3487 3.1968 16.1723 3.11812 15.9851 3.08284C15.7979 3.04756 15.605 3.05668 15.4219 3.10945C13.9813 3.50323 12.5956 4.07536 11.2969 4.81257C11.1319 4.90769 10.9902 5.03838 10.8821 5.19515C10.774 5.35192 10.7022 5.53081 10.6719 5.71882L10.125 9.54695L9.54689 10.1251L5.71876 10.6719C5.53075 10.7022 5.35186 10.774 5.19509 10.8822C5.03832 10.9903 4.90763 11.132 4.81251 11.2969C4.0753 12.5957 3.50317 13.9814 3.10939 15.4219C3.05662 15.605 3.0475 15.7979 3.08278 15.9852C3.11805 16.1724 3.19674 16.3488 3.31251 16.5001L5.64064 19.5938V20.3907L3.31251 23.5001C3.19674 23.6514 3.11805 23.8278 3.08278 24.015C3.0475 24.2022 3.05662 24.3951 3.10939 24.5782C3.50317 26.0187 4.0753 27.4045 4.81251 28.7032C4.90763 28.8682 5.03832 29.0099 5.19509 29.118C5.35186 29.2261 5.53075 29.2979 5.71876 29.3282L9.54689 29.8751L10.125 30.4532L10.6719 34.2813C10.7022 34.4693 10.774 34.6482 10.8821 34.805C10.9902 34.9618 11.1319 35.0925 11.2969 35.1876C12.5956 35.9248 13.9813 36.4969 15.4219 36.8907C15.5285 36.9216 15.639 36.9374 15.75 36.9376C16.021 36.9411 16.2853 36.853 16.5 36.6876L19.5938 34.3751H20.4063L23.5 36.6876C23.6513 36.8033 23.8277 36.882 24.0149 36.9173C24.2022 36.9526 24.3951 36.9435 24.5781 36.8907C26.0187 36.4969 27.4044 35.9248 28.7031 35.1876C28.8681 35.0925 29.0098 34.9618 29.1179 34.805C29.226 34.6482 29.2979 34.4693 29.3281 34.2813L29.875 30.4376C30.0625 30.2501 30.2813 30.0469 30.4375 29.8751L34.2813 29.3282C34.4693 29.2979 34.6482 29.2261 34.8049 29.118C34.9617 29.0099 35.0924 28.8682 35.1875 28.7032C35.9247 27.4045 36.4969 26.0187 36.8906 24.5782C36.9434 24.3951 36.9525 24.2022 36.9172 24.015C36.882 23.8278 36.8033 23.6514 36.6875 23.5001ZM33.2969 26.9376L29.6563 27.4532C29.3752 27.4992 29.1171 27.6365 28.9219 27.8438C28.7344 28.0469 28.1563 28.6407 27.875 28.8907C27.6468 29.0868 27.497 29.3587 27.4531 29.6563L26.9375 33.2969C26.1592 33.7124 25.343 34.0525 24.5 34.3126L21.5469 32.0938C21.3092 31.9163 21.0143 31.8328 20.7188 31.8594H19.2813C18.9858 31.8328 18.6908 31.9163 18.4531 32.0938L15.5 34.3126C14.657 34.0525 13.8408 33.7124 13.0625 33.2969L12.5469 29.6563C12.503 29.3587 12.3532 29.0868 12.125 28.8907C11.7634 28.576 11.4241 28.2366 11.1094 27.8751C10.9133 27.6469 10.6414 27.4971 10.3438 27.4532L6.70314 26.9376C6.29425 26.1562 5.95442 25.3406 5.68751 24.5001L7.90626 21.5469C8.06714 21.318 8.15436 21.0455 8.15626 20.7657C8.14064 20.4844 8.12501 19.6719 8.14064 19.2813C8.16729 18.9858 8.08382 18.6909 7.90626 18.4532L5.68751 15.5001C5.95442 14.6595 6.29425 13.8439 6.70314 13.0626L10.3438 12.5469C10.6414 12.5031 10.9133 12.3533 11.1094 12.1251C11.4241 11.7635 11.7634 11.4242 12.125 11.1094C12.3532 10.9133 12.503 10.6415 12.5469 10.3438L13.0625 6.7032C13.8439 6.29431 14.6595 5.95448 15.5 5.68757L18.4531 7.90632C18.6908 8.08389 18.9858 8.16736 19.2813 8.1407C19.75 8.12507 20.25 8.12507 20.7188 8.1407C21.0143 8.16736 21.3092 8.08389 21.5469 7.90632L24.5 5.68757C25.343 5.94767 26.1592 6.28776 26.9375 6.7032L27.4531 10.3438C27.497 10.6415 27.6468 10.9133 27.875 11.1094C28.2366 11.4242 28.5759 11.7635 28.8906 12.1251C29.0868 12.3533 29.3586 12.5031 29.6563 12.5469L33.2969 13.0626C33.7123 13.8409 34.0524 14.6571 34.3125 15.5001L32.0938 18.4532C31.9329 18.6821 31.8457 18.9547 31.8438 19.2344C31.8594 19.5157 31.875 20.3282 31.8594 20.7188C31.8327 21.0143 31.9162 21.3092 32.0938 21.5469L34.3125 24.5001C34.0524 25.3431 33.7123 26.1593 33.2969 26.9376Z" fill="#D9D9D9"/>
</svg>
