<svg width="38" height="40" viewBox="0 0 38 40" fill="none" xmlns="http://www.w3.org/2000/svg">
<path d="M15.5802 0.151581C13.7576 0.543427 12.2723 2.06526 11.9442 3.86959C11.8075 4.62595 11.8075 28.3738 11.9442 29.1302C12.172 30.406 13.138 31.7273 14.2862 32.3379C15.407 32.9393 15.3159 32.9302 19.9087 32.9666L24.1006 33.0122L24.538 32.2194C24.775 31.7911 24.9663 31.3992 24.9663 31.3537C24.9663 31.299 23.0982 31.2626 20.3462 31.2443L15.7169 31.217L15.2612 30.9709C14.6416 30.6429 14.0948 30.0506 13.785 29.3944L13.5298 28.8477V16.5454C13.5298 6.48495 13.548 4.17942 13.6483 3.8787C13.949 3.00387 14.7145 2.20195 15.5984 1.84655C15.9538 1.70075 16.7011 1.69164 24.6383 1.6643C34.2431 1.63696 33.9333 1.61873 34.8719 2.2384C35.1544 2.42977 35.4825 2.75783 35.6738 3.04033C36.2935 3.97894 36.2662 3.33193 36.2662 16.2721V27.9364L36.822 28.8477C37.6148 30.1417 37.5875 30.1235 37.7607 29.3671C37.8882 28.793 37.9065 27.3896 37.9065 16.4817C37.9065 5.88351 37.8882 4.1612 37.7698 3.65999C37.3506 1.90123 35.929 0.525204 34.1247 0.142467C33.2043 -0.0489006 16.4823 -0.0489006 15.5802 0.151581Z" fill="#D9D9D9"/>
<path d="M16.054 5.56448C15.6804 5.91077 15.6895 6.40286 16.0631 6.74914C16.2454 6.92228 16.4094 6.9314 21.8224 6.9314H27.3994L27.5908 6.7218C27.8733 6.42108 27.8642 5.84698 27.5817 5.58271L27.3721 5.38223H21.8133C16.3547 5.38223 16.2454 5.38223 16.054 5.56448Z" fill="#D9D9D9"/>
<path d="M30.4795 5.61005C30.3246 5.75585 30.2517 5.92899 30.2517 6.15681C30.2517 6.38463 30.3246 6.55777 30.4795 6.70358C30.6891 6.92228 30.7347 6.9314 32.056 6.9314C33.2863 6.9314 33.423 6.91317 33.6052 6.74914C33.7146 6.6489 33.833 6.45753 33.8604 6.33907C33.9333 6.05657 33.751 5.59182 33.5232 5.47335C33.4321 5.41868 32.7668 5.38223 32.0287 5.38223C30.7347 5.38223 30.6891 5.39134 30.4795 5.61005Z" fill="#D9D9D9"/>
<path d="M5.87505 8.79042C2.4851 10.7497 1.97478 11.0686 1.40068 11.6336C0.698996 12.3171 0.270696 13.0734 0.0793279 13.9482C-0.0847018 14.6955 0.0155386 15.9804 0.288922 16.6365C0.407387 16.9463 3.21412 21.8855 6.51294 27.6174C11.8621 36.8851 12.5912 38.1062 13.0832 38.5983C14.3226 39.8558 16.2454 40.3206 17.9403 39.7738C18.2046 39.6827 19.9634 38.7259 21.8588 37.6323C25.1303 35.746 25.2852 35.6457 25.3126 35.3724L25.3399 35.0899H24.1188H22.8977L20.3006 36.5935C17.3389 38.3067 16.8742 38.4889 15.9811 38.2976C15.2703 38.1517 14.7327 37.8693 14.2952 37.4227C13.8305 36.958 1.88366 16.3085 1.73785 15.7161C1.46447 14.6226 1.85632 13.3833 2.71292 12.6633C2.90428 12.4993 4.59926 11.4787 6.47649 10.4034L9.88466 8.43502L9.912 7.49641C9.93023 6.78561 9.912 6.56691 9.82087 6.57602C9.75708 6.57602 7.98009 7.56931 5.87505 8.79042Z" fill="#D9D9D9"/>
<path d="M16.054 8.2073C15.6804 8.55359 15.6895 9.04568 16.0631 9.39196C16.2454 9.56511 16.4003 9.57422 20.7927 9.57422H25.3399L25.5586 9.3464C25.7136 9.2006 25.7865 9.02745 25.7865 8.79963C25.7865 8.57181 25.7136 8.39867 25.5586 8.25287L25.3399 8.02505H20.7927C16.3547 8.02505 16.2454 8.02505 16.054 8.2073Z" fill="#D9D9D9"/>
<path d="M30.4795 8.25287C30.3246 8.39867 30.2517 8.57181 30.2517 8.79963C30.2517 9.02745 30.3246 9.2006 30.4795 9.3464C30.6891 9.56511 30.7347 9.57422 32.056 9.57422C33.2863 9.57422 33.423 9.55599 33.6052 9.39196C33.7146 9.29172 33.833 9.10036 33.8604 8.98189C33.9333 8.69939 33.751 8.23464 33.5232 8.11618C33.4321 8.0615 32.7668 8.02505 32.0287 8.02505C30.7347 8.02505 30.6891 8.03416 30.4795 8.25287Z" fill="#D9D9D9"/>
<path d="M16.3364 11.5879C16.0266 11.679 15.7623 12.0526 15.7623 12.3989C15.7623 12.5083 15.8808 12.7179 16.0266 12.8637L16.2909 13.1279H21.8041C27.2353 13.1279 27.3173 13.1279 27.5542 12.9366C27.8914 12.6723 27.8914 12.0708 27.5542 11.7519L27.3173 11.5332L21.9772 11.515C18.8151 11.5059 16.5096 11.5332 16.3364 11.5879Z" fill="#D9D9D9"/>
<path d="M30.8258 11.5514C30.2881 11.6517 30.0694 12.4991 30.4795 12.9001C30.6891 13.1188 30.7346 13.1279 32.0286 13.1279H33.3682L33.6325 12.8637C33.9241 12.5629 33.9606 12.3351 33.7601 11.9433C33.6689 11.761 33.514 11.6517 33.2771 11.5879C32.949 11.4967 31.2449 11.4694 30.8258 11.5514Z" fill="#D9D9D9"/>
<path d="M7.42419 14.0486C6.12107 14.8049 4.96374 15.5066 4.85439 15.616C4.54456 15.8984 4.56278 16.509 4.88173 16.7642C5.32825 17.1104 5.55607 17.0284 7.7887 15.7435L9.88464 14.5315L9.91197 13.602C9.92109 13.0917 9.90286 12.6725 9.86641 12.6725C9.82996 12.6816 8.72732 13.2922 7.42419 14.0486Z" fill="#D9D9D9"/>
<path d="M16.2545 14.258C15.7168 14.495 15.6348 15.224 16.0996 15.5885C16.3274 15.7616 16.4823 15.7708 20.8382 15.7708H25.3399L25.5586 15.5429C25.8776 15.2331 25.8685 14.6954 25.5495 14.3947L25.3126 14.176L20.9293 14.1578C17.3936 14.1396 16.4823 14.1578 16.2545 14.258Z" fill="#D9D9D9"/>
<path d="M30.7438 14.2216C30.2335 14.4221 30.0877 15.1602 30.4795 15.5429C30.6891 15.7616 30.7347 15.7708 32.0287 15.7708H33.3683L33.6325 15.5065C34.0517 15.0782 33.9424 14.4859 33.3956 14.2671C33.0493 14.1122 31.081 14.0849 30.7438 14.2216Z" fill="#D9D9D9"/>
<path d="M8.06217 16.7368C7.05977 17.3109 6.16672 17.8667 6.0847 17.9761C5.84777 18.2495 5.87511 18.7416 6.14849 19.0058C6.54945 19.4159 6.85929 19.3339 8.48136 18.3953L9.93029 17.5569V16.6183C9.93029 16.0989 9.92118 15.6797 9.91206 15.6797C9.89384 15.6797 9.06458 16.1535 8.06217 16.7368Z" fill="#D9D9D9"/>
<path d="M16.0996 18.049C15.6166 18.4317 15.7442 19.2063 16.3183 19.4068C16.7102 19.5435 26.9438 19.5435 27.2992 19.4159C27.6455 19.2792 27.7822 19.0696 27.7913 18.6596C27.7913 18.4135 27.7275 18.2495 27.5635 18.0946L27.3448 17.8668H21.8406C16.4641 17.8668 16.3274 17.8668 16.0996 18.049Z" fill="#D9D9D9"/>
<path d="M30.4795 18.0945C30.1788 18.3861 30.1788 18.86 30.4704 19.2063C30.6891 19.4523 30.7164 19.4615 31.81 19.4979C33.1313 19.5344 33.5596 19.4341 33.7601 19.0514C33.9606 18.6595 33.9332 18.4317 33.6325 18.131L33.3682 17.8667H32.0287C30.7347 17.8667 30.6891 17.8758 30.4795 18.0945Z" fill="#D9D9D9"/>
<path d="M8.89143 20.3546C8.09862 20.8011 7.8708 20.9834 7.77056 21.2203C7.61564 21.5848 7.69765 21.9129 7.98926 22.1498C8.32643 22.4141 8.5907 22.3776 9.3015 21.9949L9.93028 21.6577V20.7191C9.93028 20.1997 9.92117 19.7805 9.91206 19.7805C9.89383 19.7805 9.43819 20.0357 8.89143 20.3546Z" fill="#D9D9D9"/>
<path d="M17.2113 22.8151C16.4185 23.1158 15.9082 23.7993 15.7989 24.7105C15.7077 25.5216 16.2272 27.3897 16.6099 27.6357C16.8104 27.7633 17.1931 27.7086 17.3389 27.5446C17.5485 27.3168 17.5303 27.0434 17.2751 26.3964C16.8195 25.2573 16.8833 24.3916 17.4392 24.0544C17.995 23.7172 18.4142 23.8904 18.5236 24.5009C18.6056 24.911 18.4325 26.0592 18.1682 26.8885C17.9039 27.7177 17.9039 27.8453 18.1317 28.0731C18.4233 28.3647 18.7605 28.301 19.1979 27.8727C19.5169 27.5537 19.5898 27.5173 19.5898 27.6722C19.5898 27.7724 19.6536 27.9456 19.7356 28.0549C19.9452 28.3647 20.337 28.3192 20.7653 27.9364C21.1663 27.5719 21.2301 27.5537 21.2301 27.7815C21.2301 27.8818 21.303 28.0185 21.3941 28.1005C21.5399 28.2281 21.786 28.2554 22.8886 28.2554C24.3649 28.2554 24.5107 28.2007 24.5107 27.6357C24.5107 27.1983 24.2464 27.0707 23.3533 27.0707C22.6152 27.0707 22.597 27.0707 22.597 26.8429C22.597 26.3417 22.2416 25.9772 21.7495 25.9772C21.6401 25.9772 21.3668 26.0592 21.1481 26.1595L20.7562 26.3417L20.5648 26.1048C20.4099 25.8952 20.3279 25.8679 20.009 25.9043L19.6353 25.9499V24.8928C19.6353 23.699 19.5442 23.4256 18.9974 23.0064C18.6147 22.7148 17.7399 22.6237 17.2113 22.8151Z" fill="#D9D9D9"/>
<path d="M9.34698 23.1885C9.08271 23.4254 9.01892 23.5621 9.01892 23.8264C9.01892 24.2183 9.36521 24.6101 9.71149 24.6101C9.9302 24.6101 9.9302 24.5919 9.9302 23.7444C9.9302 22.7511 9.86641 22.6873 9.34698 23.1885Z" fill="#D9D9D9"/>
<path d="M30.8076 23.0156C30.1788 23.1887 29.8143 23.4165 29.386 23.8904C28.8484 24.4918 28.6661 24.9839 28.657 25.8861C28.657 26.5422 28.6934 26.7427 28.8939 27.171C29.3951 28.2281 30.2608 28.8113 31.4273 28.8751C32.3659 28.9206 33.0311 28.6746 33.6781 28.0367C34.3251 27.3806 34.5621 26.7336 34.5165 25.7494C34.4618 24.8837 34.234 24.3369 33.6781 23.781C32.9491 23.0338 31.81 22.7331 30.8076 23.0156ZM32.3841 24.4189C32.8671 24.6923 33.1951 25.1935 33.2407 25.7403C33.3774 27.417 31.3908 28.2554 30.3155 26.9887C29.14 25.5854 30.7985 23.5168 32.3841 24.4189Z" fill="#D9D9D9"/>
<path d="M27.6727 29.1847C27.1533 29.8864 25.7864 32.438 25.7864 32.6931C25.7864 33.1032 26.0415 33.2672 26.7706 33.331L27.3993 33.3857L27.7001 33.8778C28.0372 34.4337 28.2924 34.5795 28.6842 34.4428C28.8938 34.3699 29.1216 34.0418 29.9145 32.6476C30.4521 31.709 30.8895 30.8524 30.8895 30.7521C30.8895 30.4058 30.6344 30.1689 30.2607 30.1689C29.8324 30.1689 29.7869 30.2145 29.067 31.4903C28.748 32.037 28.4838 32.5109 28.4655 32.5291C28.4473 32.5473 28.3562 32.4744 28.2742 32.3651C28.183 32.2466 27.9734 32.1281 27.8094 32.1008L27.5178 32.037L28.1557 30.9253C28.8665 29.6859 28.9576 29.285 28.5931 29.0389C28.2559 28.802 27.9188 28.8567 27.6727 29.1847Z" fill="#D9D9D9"/>
<path d="M34.6167 29.0662C34.2522 29.3578 34.3434 29.7223 35.0633 30.9617C35.692 32.0461 35.7012 32.0825 35.4824 32.0825C35.3549 32.0825 35.1453 32.1919 35.0086 32.3286L34.7625 32.5837L34.1429 31.4902C33.7966 30.8888 33.4503 30.342 33.3683 30.2782C33.2863 30.2235 33.0949 30.1689 32.9309 30.1689C32.5846 30.1689 32.3477 30.4331 32.3477 30.8067C32.3568 31.153 34.1884 34.2878 34.4709 34.4336C34.8172 34.6068 35.1179 34.4427 35.4916 33.8777L35.8196 33.3857L36.4028 33.331C37.141 33.2581 37.3323 33.1578 37.4052 32.8116C37.4599 32.5655 37.3323 32.2921 36.4757 30.7885C35.5189 29.1118 35.3458 28.8931 34.9448 28.8931C34.881 28.8931 34.7352 28.966 34.6167 29.0662Z" fill="#D9D9D9"/>
</svg>
