<svg width="20" height="20" viewBox="0 0 20 20" fill="none" xmlns="http://www.w3.org/2000/svg">
<path d="M13.6333 11.6666C13.7 11.1166 13.75 10.5666 13.75 9.99996C13.75 9.43329 13.7 8.88329 13.6333 8.33329H16.45C16.5833 8.86663 16.6666 9.42496 16.6666 9.99996C16.6666 10.575 16.5833 11.1333 16.45 11.6666M12.1583 16.3C12.6583 15.375 13.0416 14.375 13.3083 13.3333H15.7666C14.9593 14.7235 13.6784 15.7766 12.1583 16.3ZM11.95 11.6666H8.04996C7.96663 11.1166 7.91663 10.5666 7.91663 9.99996C7.91663 9.43329 7.96663 8.87496 8.04996 8.33329H11.95C12.025 8.87496 12.0833 9.43329 12.0833 9.99996C12.0833 10.5666 12.025 11.1166 11.95 11.6666ZM9.99996 16.6333C9.30829 15.6333 8.74996 14.525 8.40829 13.3333H11.5916C11.25 14.525 10.6916 15.6333 9.99996 16.6333ZM6.66663 6.66663H4.23329C5.03234 5.27264 6.31229 4.21786 7.83329 3.69996C7.33329 4.62496 6.95829 5.62496 6.66663 6.66663ZM4.23329 13.3333H6.66663C6.95829 14.375 7.33329 15.375 7.83329 16.3C6.31548 15.7763 5.03733 14.7231 4.23329 13.3333ZM3.54996 11.6666C3.41663 11.1333 3.33329 10.575 3.33329 9.99996C3.33329 9.42496 3.41663 8.86663 3.54996 8.33329H6.36663C6.29996 8.88329 6.24996 9.43329 6.24996 9.99996C6.24996 10.5666 6.29996 11.1166 6.36663 11.6666M9.99996 3.35829C10.6916 4.35829 11.25 5.47496 11.5916 6.66663H8.40829C8.74996 5.47496 9.30829 4.35829 9.99996 3.35829ZM15.7666 6.66663H13.3083C13.0475 5.63451 12.6613 4.63821 12.1583 3.69996C13.6916 4.22496 14.9666 5.28329 15.7666 6.66663ZM9.99996 1.66663C5.39163 1.66663 1.66663 5.41663 1.66663 9.99996C1.66663 12.2101 2.5446 14.3297 4.1074 15.8925C4.88122 16.6663 5.79988 17.2802 6.81093 17.699C7.82198 18.1177 8.90561 18.3333 9.99996 18.3333C12.2101 18.3333 14.3297 17.4553 15.8925 15.8925C17.4553 14.3297 18.3333 12.2101 18.3333 9.99996C18.3333 8.90561 18.1177 7.82198 17.699 6.81093C17.2802 5.79988 16.6663 4.88122 15.8925 4.1074C15.1187 3.33358 14.2 2.71975 13.189 2.30096C12.1779 1.88217 11.0943 1.66663 9.99996 1.66663Z" fill="#D9D9D9"/>
</svg>
