<svg width="40" height="24" viewBox="0 0 40 24" fill="none" xmlns="http://www.w3.org/2000/svg">
<mask id="mask0_1163_8516" style="mask-type:luminance" maskUnits="userSpaceOnUse" x="0" y="0" width="40" height="24">
<path d="M39.9294 0.664062H0V23.3412H39.9294V0.664062Z" fill="white"/>
</mask>
<g mask="url(#mask0_1163_8516)">
<path d="M22.5225 12.0028C22.5225 18.2648 17.4806 23.3412 11.2615 23.3412C5.0423 23.3412 0 18.2637 0 12.0028C0 5.74195 5.04192 0.664062 11.2615 0.664062C17.4811 0.664062 22.5225 5.7408 22.5225 12.0028ZM34.8764 12.0028C34.8764 17.8971 32.3554 22.6774 29.2457 22.6774C26.1359 22.6774 23.615 17.8971 23.615 12.0028C23.615 6.10847 26.1354 1.32826 29.2454 1.32826C32.3551 1.32826 34.8761 6.10694 34.8761 12.0028H34.8764ZM39.9294 12.0028C39.9294 17.2828 39.043 21.5656 37.9491 21.5656C36.8553 21.5656 35.9691 17.2839 35.9691 12.0028C35.9691 6.72179 36.8556 2.44009 37.9491 2.44009C39.0425 2.44009 39.9294 6.7214 39.9294 12.0028Z" fill="#808589"/>
</g>
</svg>
