<svg width="40" height="40" viewBox="0 0 40 40" fill="none" xmlns="http://www.w3.org/2000/svg">
<circle cx="20" cy="19" r="12" fill="white"/>
<path d="M17.9166 21.7333C17.9166 20.7833 17.1333 20 16.1833 20C15.2333 20 14.45 20.7833 14.45 21.7333C14.45 22.193 14.6326 22.6339 14.9576 22.959C15.2827 23.284 15.7236 23.4667 16.1833 23.4667C16.643 23.4667 17.0839 23.284 17.4089 22.959C17.734 22.6339 17.9166 22.193 17.9166 21.7333ZM23.4833 25.6833C22.7333 26.4333 21.1333 26.7 20 26.7C18.8666 26.7 17.2666 26.4333 16.5166 25.6833C16.4761 25.6399 16.427 25.6053 16.3726 25.5817C16.3181 25.558 16.2593 25.5458 16.2 25.5458C16.1406 25.5458 16.0818 25.558 16.0273 25.5817C15.9729 25.6053 15.9238 25.6399 15.8833 25.6833C15.8399 25.7239 15.8053 25.7729 15.7816 25.8274C15.758 25.8819 15.7458 25.9406 15.7458 26C15.7458 26.0594 15.758 26.1181 15.7816 26.1726C15.8053 26.2271 15.8399 26.2761 15.8833 26.3167C17.0666 27.5 19.3333 27.6 20 27.6C20.6666 27.6 22.9333 27.5 24.1166 26.3167C24.16 26.2761 24.1946 26.2271 24.2183 26.1726C24.2419 26.1181 24.2541 26.0594 24.2541 26C24.2541 25.9406 24.2419 25.8819 24.2183 25.8274C24.1946 25.7729 24.16 25.7239 24.1166 25.6833C23.95 25.5167 23.6666 25.5167 23.4833 25.6833ZM23.8166 20C22.8666 20 22.0833 20.7833 22.0833 21.7333C22.0833 22.6833 22.8666 23.4667 23.8166 23.4667C24.7666 23.4667 25.55 22.6833 25.55 21.7333C25.55 20.7833 24.7833 20 23.8166 20Z" fill="#F64119"/>
<path d="M20 3.3335C10.8 3.3335 3.33337 10.8002 3.33337 20.0002C3.33337 29.2002 10.8 36.6668 20 36.6668C29.2 36.6668 36.6667 29.2002 36.6667 20.0002C36.6667 10.8002 29.2 3.3335 20 3.3335ZM29.6667 22.2168C29.7 22.4502 29.7167 22.7002 29.7167 22.9502C29.7167 26.6835 25.3667 29.7168 20 29.7168C14.6334 29.7168 10.2834 26.6835 10.2834 22.9502C10.2834 22.7002 10.3 22.4502 10.3334 22.2168C9.48337 21.8335 8.90004 20.9835 8.90004 20.0002C8.89757 19.5222 9.03638 19.0542 9.29903 18.6549C9.56168 18.2557 9.93646 17.9429 10.3763 17.7559C10.8161 17.5689 11.3014 17.5161 11.7712 17.604C12.241 17.692 12.6743 17.9168 13.0167 18.2502C14.7 17.0335 17.0334 16.2668 19.6167 16.1835L20.85 10.3668C20.8667 10.2502 20.9334 10.1502 21.0334 10.1002C21.1334 10.0335 21.25 10.0168 21.3667 10.0335L25.4 10.9002C25.5368 10.6228 25.7453 10.3871 26.0039 10.2175C26.2625 10.0478 26.5618 9.9505 26.8707 9.93553C27.1796 9.92057 27.4869 9.98852 27.7607 10.1323C28.0345 10.2762 28.2648 10.4906 28.4278 10.7535C28.5907 11.0163 28.6804 11.318 28.6875 11.6272C28.6946 11.9363 28.6188 12.2418 28.468 12.5118C28.3173 12.7819 28.097 13.0066 27.8301 13.1628C27.5632 13.319 27.2593 13.401 26.95 13.4002C26.0167 13.4002 25.2667 12.6668 25.2167 11.7502L21.6 10.9835L20.5 16.1835C23.05 16.2668 25.3334 17.0502 27 18.2502C27.2555 18.0062 27.5613 17.821 27.8958 17.7075C28.2304 17.594 28.5857 17.555 28.9369 17.5932C29.2881 17.6314 29.6267 17.7458 29.9291 17.9285C30.2314 18.1113 30.4902 18.3579 30.6873 18.651C30.8844 18.9442 31.015 19.2769 31.0701 19.6259C31.1252 19.9748 31.1034 20.3316 31.0062 20.6713C30.909 21.0109 30.7387 21.3252 30.5073 21.5922C30.276 21.8591 29.9891 22.0723 29.6667 22.2168Z" fill="url(#paint0_linear_369_31)"/>
<defs>
<linearGradient id="paint0_linear_369_31" x1="20" y1="3.3335" x2="20" y2="36.6668" gradientUnits="userSpaceOnUse">
<stop stop-color="#FF7A13"/>
<stop offset="1" stop-color="#EF111E"/>
</linearGradient>
</defs>
</svg>
