<svg width="20" height="20" viewBox="0 0 20 20" fill="none" xmlns="http://www.w3.org/2000/svg">
<path d="M2.77834 0.983154H17.2228C17.7701 0.983154 18.2949 1.20082 18.6819 1.58826C19.0689 1.9757 19.2863 2.50119 19.2863 3.04911V17.5108C19.2863 18.0588 19.0689 18.5842 18.6819 18.9717C18.2949 19.3591 17.7701 19.5768 17.2228 19.5768H2.77834C2.23106 19.5768 1.70621 19.3591 1.31923 18.9717C0.932247 18.5842 0.714844 18.0588 0.714844 17.5108V3.04911C0.714844 2.50119 0.932247 1.9757 1.31923 1.58826C1.70621 1.20082 2.23106 0.983154 2.77834 0.983154ZM16.191 3.04911H13.6117C12.6539 3.04911 11.7354 3.43002 11.0582 4.10805C10.381 4.78607 10.0006 5.70567 10.0006 6.66454V9.24699H7.93707V12.3459H10.0006V19.5768H13.0958V12.3459H16.191V9.24699H13.0958V7.18103C13.0958 6.90707 13.2045 6.64433 13.398 6.4506C13.5915 6.25688 13.8539 6.14805 14.1275 6.14805H16.191V3.04911Z" fill="white"/>
</svg>
