<svg width="22" height="19" viewBox="0 0 22 19" fill="none" xmlns="http://www.w3.org/2000/svg">
<path d="M21.7912 2.91044C20.9967 3.27198 20.1404 3.50957 19.2531 3.6232C20.161 3.07572 20.8626 2.20802 21.1927 1.16471C20.3364 1.6812 19.3872 2.04274 18.3864 2.24933C17.5713 1.36097 16.4261 0.844482 15.1261 0.844482C12.7015 0.844482 10.7205 2.8278 10.7205 5.27596C10.7205 5.62718 10.7618 5.96806 10.834 6.28828C7.161 6.10235 3.89036 4.33595 1.71338 1.66054C1.33163 2.31131 1.11497 3.07572 1.11497 3.88144C1.11497 5.42058 1.88878 6.78411 3.0856 7.55885C2.35306 7.55885 1.67211 7.35225 1.0737 7.04236V7.07335C1.0737 9.22195 2.60068 11.0193 4.6229 11.4222C3.97365 11.6001 3.29205 11.6248 2.63163 11.4945C2.91186 12.3751 3.46068 13.1456 4.20094 13.6978C4.94119 14.2499 5.83567 14.5559 6.75862 14.5728C5.19411 15.8128 3.2548 16.4831 1.25941 16.4735C0.908618 16.4735 0.557825 16.4528 0.207031 16.4115C2.16735 17.6717 4.49909 18.4051 6.99592 18.4051C15.1261 18.4051 19.5935 11.6494 19.5935 5.79245C19.5935 5.59619 19.5935 5.41025 19.5832 5.21398C20.4499 4.5942 21.1927 3.80913 21.7912 2.91044Z" fill="white"/>
</svg>
