<svg width="22" height="22" viewBox="0 0 22 22" fill="none" xmlns="http://www.w3.org/2000/svg">
<path d="M6.67163 0.865356H15.3383C18.6399 0.865356 21.3224 3.5511 21.3224 6.85664V15.5337C21.3224 17.1227 20.6919 18.6466 19.5697 19.7701C18.4475 20.8937 16.9254 21.5249 15.3383 21.5249H6.67163C3.37004 21.5249 0.6875 18.8392 0.6875 15.5337V6.85664C0.6875 5.26765 1.31797 3.74374 2.44021 2.62016C3.56245 1.49658 5.08454 0.865356 6.67163 0.865356ZM6.46528 2.93132C5.48019 2.93132 4.53544 3.32311 3.83888 4.0205C3.14232 4.7179 2.75099 5.66377 2.75099 6.65004V15.7403C2.75099 17.7959 4.4121 19.459 6.46528 19.459H15.5446C16.5297 19.459 17.4745 19.0672 18.171 18.3698C18.8676 17.6724 19.2589 16.7265 19.2589 15.7403V6.65004C19.2589 4.59441 17.5978 2.93132 15.5446 2.93132H6.46528ZM16.4216 4.48078C16.7637 4.48078 17.0917 4.61682 17.3336 4.85898C17.5754 5.10113 17.7113 5.42955 17.7113 5.77201C17.7113 6.11446 17.5754 6.44289 17.3336 6.68504C17.0917 6.92719 16.7637 7.06323 16.4216 7.06323C16.0796 7.06323 15.7515 6.92719 15.5097 6.68504C15.2678 6.44289 15.1319 6.11446 15.1319 5.77201C15.1319 5.42955 15.2678 5.10113 15.5097 4.85898C15.7515 4.61682 16.0796 4.48078 16.4216 4.48078ZM11.005 6.03025C12.3731 6.03025 13.6853 6.57441 14.6527 7.54302C15.6202 8.51162 16.1637 9.82533 16.1637 11.1952C16.1637 12.565 15.6202 13.8787 14.6527 14.8473C13.6853 15.8159 12.3731 16.36 11.005 16.36C9.63678 16.36 8.32464 15.8159 7.35719 14.8473C6.38974 13.8787 5.84623 12.565 5.84623 11.1952C5.84623 9.82533 6.38974 8.51162 7.35719 7.54302C8.32464 6.57441 9.63678 6.03025 11.005 6.03025ZM11.005 8.09621C10.1841 8.09621 9.39676 8.42271 8.81629 9.00387C8.23583 9.58503 7.90972 10.3733 7.90972 11.1952C7.90972 12.017 8.23583 12.8053 8.81629 13.3864C9.39676 13.9676 10.1841 14.2941 11.005 14.2941C11.8259 14.2941 12.6132 13.9676 13.1936 13.3864C13.7741 12.8053 14.1002 12.017 14.1002 11.1952C14.1002 10.3733 13.7741 9.58503 13.1936 9.00387C12.6132 8.42271 11.8259 8.09621 11.005 8.09621Z" fill="white"/>
</svg>
