<svg width="16" height="16" viewBox="0 0 16 16" fill="none" xmlns="http://www.w3.org/2000/svg">
<path d="M14.093 7.67897L12.2756 7.15964C11.4572 6.92891 10.7117 6.49202 10.1105 5.89077C9.50924 5.28952 9.07235 4.54403 8.84162 3.72564L8.32229 1.9083C8.29617 1.84472 8.25174 1.79034 8.19464 1.75207C8.13754 1.71379 8.07036 1.69336 8.00162 1.69336C7.93288 1.69336 7.8657 1.71379 7.8086 1.75207C7.7515 1.79034 7.70707 1.84472 7.68095 1.9083L7.16162 3.72564C6.93089 4.54403 6.494 5.28952 5.89275 5.89077C5.2915 6.49202 4.54601 6.92891 3.72762 7.15964L1.91029 7.67897C1.84051 7.69878 1.77909 7.7408 1.73536 7.79867C1.69163 7.85655 1.66797 7.9271 1.66797 7.99964C1.66797 8.07217 1.69163 8.14273 1.73536 8.2006C1.77909 8.25847 1.84051 8.3005 1.91029 8.3203L3.72762 8.83964C4.54601 9.07037 5.2915 9.50726 5.89275 10.1085C6.494 10.7098 6.93089 11.4552 7.16162 12.2736L7.68095 14.091C7.70076 14.1608 7.74278 14.2222 7.80066 14.2659C7.85853 14.3096 7.92908 14.3333 8.00162 14.3333C8.07416 14.3333 8.14471 14.3096 8.20258 14.2659C8.26045 14.2222 8.30248 14.1608 8.32229 14.091L8.84162 12.2736C9.07235 11.4552 9.50924 10.7098 10.1105 10.1085C10.7117 9.50726 11.4572 9.07037 12.2756 8.83964L14.093 8.3203C14.1627 8.3005 14.2241 8.25847 14.2679 8.2006C14.3116 8.14273 14.3353 8.07217 14.3353 7.99964C14.3353 7.9271 14.3116 7.85655 14.2679 7.79867C14.2241 7.7408 14.1627 7.69878 14.093 7.67897Z" fill="white"/>
</svg>
