<svg width="12" height="12" viewBox="0 0 12 12" fill="none" xmlns="http://www.w3.org/2000/svg">
<path d="M11.566 7.09695C11.5102 7.0411 11.4403 7.00148 11.3638 6.98235C11.2873 6.96321 11.2069 6.96528 11.1315 6.98833C10.303 7.23878 9.42217 7.25978 8.58274 7.04909C7.7433 6.8384 6.97675 6.40392 6.36477 5.79193C5.75279 5.17995 5.3183 4.4134 5.10761 3.57397C4.89692 2.73453 4.91792 1.85366 5.16837 1.02522C5.19162 0.94973 5.19384 0.869333 5.17481 0.792674C5.15578 0.716016 5.11621 0.645996 5.06036 0.590144C5.00451 0.534293 4.93449 0.494723 4.85783 0.475692C4.78117 0.45666 4.70077 0.458885 4.62528 0.482129C3.47992 0.832989 2.4744 1.53615 1.7518 2.49156C1.11987 3.33055 0.73441 4.32914 0.638723 5.37513C0.543036 6.42111 0.740916 7.47306 1.21013 8.41279C1.67934 9.35252 2.4013 10.1428 3.2949 10.6948C4.18849 11.2469 5.21831 11.5388 6.26867 11.5378C7.49407 11.5416 8.68686 11.1432 9.66406 10.4038C10.6195 9.68122 11.3226 8.67569 11.6735 7.53033C11.6965 7.45513 11.6986 7.37509 11.6797 7.29877C11.6607 7.22245 11.6214 7.15269 11.566 7.09695ZM9.14161 9.70975C8.22137 10.4029 7.08173 10.7402 5.93247 10.6598C4.78322 10.5793 3.70171 10.0864 2.88704 9.2718C2.07237 8.4572 1.57938 7.37573 1.49882 6.22648C1.41825 5.07723 1.75554 3.93756 2.44859 3.01727C2.90011 2.42099 3.48386 1.93763 4.15388 1.60524C4.11571 1.8731 4.09648 2.14332 4.09632 2.4139C4.0979 3.91139 4.69347 5.34709 5.75236 6.40597C6.81124 7.46486 8.24695 8.06044 9.74444 8.06202C10.0156 8.06193 10.2863 8.0427 10.5547 8.00445C10.222 8.67459 9.73828 9.25835 9.14161 9.70975Z" fill="currentColor"/>
</svg>
