<svg width="18" height="18" viewBox="0 0 18 18" fill="none" xmlns="http://www.w3.org/2000/svg">
<path d="M8.29193 2.90874V1.24721C8.29193 1.10032 8.35028 0.959443 8.45415 0.855577C8.55802 0.751711 8.69889 0.693359 8.84578 0.693359C8.99267 0.693359 9.13354 0.751711 9.23741 0.855577C9.34127 0.959443 9.39962 1.10032 9.39962 1.24721V2.90874C9.39962 3.05563 9.34127 3.19651 9.23741 3.30037C9.13354 3.40424 8.99267 3.46259 8.84578 3.46259C8.69889 3.46259 8.55802 3.40424 8.45415 3.30037C8.35028 3.19651 8.29193 3.05563 8.29193 2.90874ZM13.2765 9.00105C13.2765 9.87738 13.0167 10.734 12.5298 11.4627C12.043 12.1913 11.351 12.7592 10.5414 13.0946C9.73174 13.4299 8.84086 13.5176 7.98138 13.3467C7.12189 13.1757 6.33241 12.7537 5.71275 12.1341C5.0931 11.5144 4.67111 10.7249 4.50015 9.86545C4.32918 9.00597 4.41693 8.11509 4.75228 7.30547C5.08764 6.49585 5.65554 5.80386 6.38417 5.317C7.11281 4.83014 7.96946 4.57028 8.84578 4.57028C10.0205 4.57157 11.1467 5.03879 11.9774 5.86944C12.808 6.70009 13.2753 7.82633 13.2765 9.00105ZM12.1689 9.00105C12.1689 8.34381 11.974 7.70133 11.6088 7.15485C11.2437 6.60837 10.7247 6.18245 10.1175 5.93093C9.51025 5.67941 8.84209 5.61361 8.19748 5.74183C7.55286 5.87005 6.96075 6.18654 6.49601 6.65128C6.03127 7.11602 5.71478 7.70814 5.58655 8.35275C5.45833 8.99737 5.52414 9.66553 5.77566 10.2727C6.02717 10.88 6.4531 11.3989 6.99958 11.7641C7.54605 12.1292 8.18854 12.3241 8.84578 12.3241C9.72683 12.3232 10.5715 11.9728 11.1945 11.3498C11.8175 10.7268 12.1679 9.88211 12.1689 9.00105ZM4.02316 4.96213C4.12709 5.06605 4.26804 5.12444 4.41501 5.12444C4.56198 5.12444 4.70293 5.06605 4.80686 4.96213C4.91078 4.8582 4.96916 4.71725 4.96916 4.57028C4.96916 4.42331 4.91078 4.28236 4.80686 4.17844L3.69916 3.07074C3.59524 2.96682 3.45429 2.90844 3.30732 2.90844C3.16035 2.90844 3.01939 2.96682 2.91547 3.07074C2.81155 3.17467 2.75316 3.31562 2.75316 3.46259C2.75316 3.60956 2.81155 3.75051 2.91547 3.85444L4.02316 4.96213ZM4.02316 13.04L2.91547 14.1477C2.81155 14.2516 2.75316 14.3925 2.75316 14.5395C2.75316 14.6865 2.81155 14.8274 2.91547 14.9314C3.01939 15.0353 3.16035 15.0937 3.30732 15.0937C3.45429 15.0937 3.59524 15.0353 3.69916 14.9314L4.80686 13.8237C4.85831 13.7722 4.89913 13.7111 4.92698 13.6439C4.95483 13.5767 4.96916 13.5046 4.96916 13.4318C4.96916 13.359 4.95483 13.287 4.92698 13.2198C4.89913 13.1525 4.85831 13.0914 4.80686 13.04C4.7554 12.9885 4.69431 12.9477 4.62707 12.9199C4.55984 12.892 4.48778 12.8777 4.41501 12.8777C4.34224 12.8777 4.27018 12.892 4.20294 12.9199C4.13571 12.9477 4.07462 12.9885 4.02316 13.04ZM13.2765 5.12413C13.3493 5.12419 13.4214 5.10991 13.4886 5.08211C13.5558 5.05432 13.6169 5.01355 13.6684 4.96213L14.7761 3.85444C14.88 3.75051 14.9384 3.60956 14.9384 3.46259C14.9384 3.31562 14.88 3.17467 14.7761 3.07074C14.6722 2.96682 14.5312 2.90844 14.3842 2.90844C14.2373 2.90844 14.0963 2.96682 13.9924 3.07074L12.8847 4.17844C12.8072 4.25589 12.7543 4.35462 12.7329 4.46211C12.7115 4.56961 12.7225 4.68103 12.7645 4.78229C12.8064 4.88355 12.8775 4.97008 12.9686 5.03093C13.0598 5.09178 13.1669 5.12422 13.2765 5.12413ZM13.6684 13.04C13.5645 12.9361 13.4235 12.8777 13.2765 12.8777C13.1296 12.8777 12.9886 12.9361 12.8847 13.04C12.7808 13.1439 12.7224 13.2849 12.7224 13.4318C12.7224 13.5788 12.7808 13.7197 12.8847 13.8237L13.9924 14.9314C14.0439 14.9828 14.1049 15.0236 14.1722 15.0515C14.2394 15.0793 14.3115 15.0937 14.3842 15.0937C14.457 15.0937 14.5291 15.0793 14.5963 15.0515C14.6635 15.0236 14.7246 14.9828 14.7761 14.9314C14.8275 14.8799 14.8684 14.8188 14.8962 14.7516C14.9241 14.6843 14.9384 14.6123 14.9384 14.5395C14.9384 14.4667 14.9241 14.3947 14.8962 14.3274C14.8684 14.2602 14.8275 14.1991 14.7761 14.1477L13.6684 13.04ZM3.30732 9.00105C3.30732 8.85416 3.24897 8.71329 3.1451 8.60942C3.04123 8.50556 2.90036 8.44721 2.75347 8.44721H1.09193C0.945043 8.44721 0.80417 8.50556 0.700304 8.60942C0.596437 8.71329 0.538086 8.85416 0.538086 9.00105C0.538086 9.14794 0.596437 9.28881 0.700304 9.39268C0.80417 9.49655 0.945043 9.5549 1.09193 9.5549H2.75347C2.90036 9.5549 3.04123 9.49655 3.1451 9.39268C3.24897 9.28881 3.30732 9.14794 3.30732 9.00105ZM8.84578 14.5395C8.69889 14.5395 8.55802 14.5979 8.45415 14.7017C8.35028 14.8056 8.29193 14.9465 8.29193 15.0934V16.7549C8.29193 16.9018 8.35028 17.0427 8.45415 17.1465C8.55802 17.2504 8.69889 17.3087 8.84578 17.3087C8.99267 17.3087 9.13354 17.2504 9.23741 17.1465C9.34127 17.0427 9.39962 16.9018 9.39962 16.7549V15.0934C9.39962 14.9465 9.34127 14.8056 9.23741 14.7017C9.13354 14.5979 8.99267 14.5395 8.84578 14.5395ZM16.5996 8.44721H14.9381C14.7912 8.44721 14.6503 8.50556 14.5465 8.60942C14.4426 8.71329 14.3842 8.85416 14.3842 9.00105C14.3842 9.14794 14.4426 9.28881 14.5465 9.39268C14.6503 9.49655 14.7912 9.5549 14.9381 9.5549H16.5996C16.7465 9.5549 16.8874 9.49655 16.9913 9.39268C17.0951 9.28881 17.1535 9.14794 17.1535 9.00105C17.1535 8.85416 17.0951 8.71329 16.9913 8.60942C16.8874 8.50556 16.7465 8.44721 16.5996 8.44721Z" fill="currentColor"/>
</svg>
