<svg width="29" height="32" viewBox="0 0 29 32" fill="none" xmlns="http://www.w3.org/2000/svg">
<path d="M20.7333 4.7C19.594 3.39937 18.9662 1.72905 18.9667 0H13.8167V20.6667C13.7769 21.785 13.3048 22.8444 12.4996 23.6216C11.6944 24.3988 10.6191 24.8332 9.5 24.8333C7.13333 24.8333 5.16667 22.9 5.16667 20.5C5.16667 17.6333 7.93333 15.4833 10.7833 16.3667V11.1C5.03333 10.3333 0 14.8 0 20.5C0 26.05 4.6 30 9.48333 30C14.7167 30 18.9667 25.75 18.9667 20.5V10.0167C21.055 11.5164 23.5623 12.3211 26.1333 12.3167V7.16667C26.1333 7.16667 23 7.31667 20.7333 4.7Z" fill="#00F7EF"/>
<path d="M22.7333 6.7C21.594 5.39937 20.9662 3.72905 20.9667 2H15.8167V22.6667C15.7769 23.785 15.3048 24.8444 14.4996 25.6216C13.6944 26.3988 12.6191 26.8332 11.5 26.8333C9.13333 26.8333 7.16667 24.9 7.16667 22.5C7.16667 19.6333 9.93333 17.4833 12.7833 18.3667V13.1C7.03333 12.3333 2 16.8 2 22.5C2 28.05 6.6 32 11.4833 32C16.7167 32 20.9667 27.75 20.9667 22.5V12.0167C23.055 13.5164 25.5623 14.3211 28.1333 14.3167V9.16667C28.1333 9.16667 25 9.31667 22.7333 6.7Z" fill="#FF004F"/>
<path d="M21.7333 5.7C20.594 4.39937 19.9662 2.72905 19.9667 1H14.8167V21.6667C14.7769 22.785 14.3048 23.8444 13.4996 24.6216C12.6944 25.3988 11.6191 25.8332 10.5 25.8333C8.13333 25.8333 6.16667 23.9 6.16667 21.5C6.16667 18.6333 8.93333 16.4833 11.7833 17.3667V12.1C6.03333 11.3333 1 15.8 1 21.5C1 27.05 5.6 31 10.4833 31C15.7167 31 19.9667 26.75 19.9667 21.5V11.0167C22.055 12.5164 24.5623 13.3211 27.1333 13.3167V8.16667C27.1333 8.16667 24 8.31667 21.7333 5.7Z" fill="black"/>
</svg>
