<svg width="40" height="40" viewBox="0 0 40 40" fill="none" xmlns="http://www.w3.org/2000/svg">
<path d="M37.4333 9.99984C36.15 10.5832 34.7666 10.9665 33.3333 11.1498C34.8 10.2665 35.9333 8.8665 36.4666 7.18317C35.0833 8.0165 33.55 8.59984 31.9333 8.93317C30.6166 7.49984 28.7666 6.6665 26.6666 6.6665C22.75 6.6665 19.55 9.8665 19.55 13.8165C19.55 14.3832 19.6166 14.9332 19.7333 15.4498C13.8 15.1498 8.51665 12.2998 4.99998 7.98317C4.38332 9.03317 4.03332 10.2665 4.03332 11.5665C4.03332 14.0498 5.28332 16.2498 7.21665 17.4998C6.03332 17.4998 4.93332 17.1665 3.96665 16.6665V16.7165C3.96665 20.1832 6.43332 23.0832 9.69998 23.7332C8.6512 24.0202 7.55014 24.0601 6.48332 23.8498C6.93599 25.2706 7.82254 26.5138 9.01834 27.4047C10.2141 28.2956 11.6591 28.7893 13.15 28.8165C10.6227 30.8172 7.48998 31.8987 4.26665 31.8832C3.69998 31.8832 3.13332 31.8498 2.56665 31.7832C5.73332 33.8165 9.49998 34.9998 13.5333 34.9998C26.6666 34.9998 33.8833 24.0998 33.8833 14.6498C33.8833 14.3332 33.8833 14.0332 33.8666 13.7165C35.2666 12.7165 36.4666 11.4498 37.4333 9.99984Z" fill="#1DA1F2"/>
</svg>
