<svg width="40" height="40" viewBox="0 0 40 40" fill="none" xmlns="http://www.w3.org/2000/svg">
<g opacity="0.5">
<path d="M16.6667 25.0002L25.3167 20.0002L16.6667 15.0002V25.0002ZM35.9334 11.9502C36.15 12.7335 36.3 13.7835 36.4 15.1168C36.5167 16.4502 36.5667 17.6002 36.5667 18.6002L36.6667 20.0002C36.6667 23.6502 36.4 26.3335 35.9334 28.0502C35.5167 29.5502 34.55 30.5168 33.05 30.9335C32.2667 31.1502 30.8334 31.3002 28.6334 31.4002C26.4667 31.5168 24.4834 31.5668 22.65 31.5668L20 31.6668C13.0167 31.6668 8.66671 31.4002 6.95004 30.9335C5.45004 30.5168 4.48337 29.5502 4.06671 28.0502C3.85004 27.2668 3.70004 26.2168 3.60004 24.8835C3.48337 23.5502 3.43337 22.4002 3.43337 21.4002L3.33337 20.0002C3.33337 16.3502 3.60004 13.6668 4.06671 11.9502C4.48337 10.4502 5.45004 9.4835 6.95004 9.06683C7.73337 8.85016 9.16671 8.70016 11.3667 8.60016C13.5334 8.4835 15.5167 8.4335 17.35 8.4335L20 8.3335C26.9834 8.3335 31.3334 8.60016 33.05 9.06683C34.55 9.4835 35.5167 10.4502 35.9334 11.9502Z" fill="#FF0200"/>
</g>
</svg>
