<svg width="24" height="20" viewBox="0 0 24 20" fill="none" xmlns="http://www.w3.org/2000/svg">
<path fill-rule="evenodd" clip-rule="evenodd" d="M23.6673 1.66667C23.6673 0.7462 22.9212 0 22.0007 0H2.00065C1.08018 0 0.333984 0.7462 0.333984 1.66667C0.333984 2.58713 1.08018 3.33333 2.00065 3.33333H22.0007C22.9212 3.33333 23.6673 2.58713 23.6673 1.66667ZM23.6673 10C23.6673 9.0795 22.9212 8.33333 22.0007 8.33333H8.66732C7.74684 8.33333 7.00065 9.0795 7.00065 10C7.00065 10.9205 7.74685 11.6667 8.66732 11.6667H22.0007C22.9212 11.6667 23.6673 10.9205 23.6673 10ZM22.0007 16.6667C22.9212 16.6667 23.6673 17.4128 23.6673 18.3333C23.6673 19.2538 22.9212 20 22.0007 20H2.00065C1.08018 20 0.333984 19.2538 0.333984 18.3333C0.333984 17.4128 1.08018 16.6667 2.00065 16.6667H22.0007Z" fill="white"/>
</svg>
